SplineFontDB: 3.0
FontName: arial-black-hollow
FullName: arial-black-hollow
FamilyName: Arial-Hollow
Weight: Black
Copyright: 
Version: 
ItalicAngle: 0
UnderlinePosition: 0
UnderlineWidth: 0
Ascent: 800
Descent: 200
InvalidEm: 0
LayerCount: 2
Layer: 0 0 "Back" 1
Layer: 1 0 "Fore" 0
XUID: [1021 575 -53711584 14727247]
OS2Version: 0
OS2_WeightWidthSlopeOnly: 0
OS2_UseTypoMetrics: 0
CreationTime: 1530566282
ModificationTime: 1530725314
PfmFamily: 17
TTFWeight: 700
TTFWidth: 5
LineGap: 90
VLineGap: 90
Panose: 2 0 8 3 0 0 0 0 0 0
OS2TypoAscent: 0
OS2TypoAOffset: 1
OS2TypoDescent: 0
OS2TypoDOffset: 1
OS2TypoLinegap: 90
OS2WinAscent: 0
OS2WinAOffset: 1
OS2WinDescent: 0
OS2WinDOffset: 1
HheadAscent: 0
HheadAOffset: 1
HheadDescent: 0
HheadDOffset: 1
OS2Vendor: 'PfEd'
Lookup: 258 0 0 "Pairwise Positioning (kerning) in Latin lookup 0" { "Pairwise Positioning (kerning) in Latin lookup 0-1" [150,15,0] } ['    ' ('DFLT' <'dflt' > 'latn' <'dflt' > ) ]
MarkAttachClasses: 1
DEI: 91125
Encoding: Original
UnicodeInterp: none
NameList: AGL For New Fonts
DisplaySize: -48
AntiAlias: 1
FitToEm: 0
WinInfo: 30 10 7
BeginPrivate: 0
EndPrivate
BeginChars: 92 91

StartChar: y
Encoding: 1 121 0
Width: 640
HStem: 372.556 38.9844<117.94 200.121>
VStem: 76.2451 58.2812<-110.336 -49.7295>
LayerCount: 2
Fore
SplineSet
110.229492188 -153.303710938 m 0
 90.2685546875 -140.979492188 76.2451171875 -108.596679688 76.2451171875 -74.8076171875 c 0
 76.2451171875 -24.6513671875 83.2763671875 -17.3076171875 131.284179688 -17.3076171875 c 0
 161.557617188 -17.3076171875 191.420898438 -12.1904296875 197.651367188 -5.9208984375 c 0
 203.881835938 0.3291015625 174.741210938 88.0048828125 132.905273438 188.903320312 c 0
 91.0498046875 289.801757812 56.8115234375 381.637695312 56.8115234375 392.965820312 c 0
 56.8115234375 405.563476562 95.8740234375 411.286132812 157.143554688 407.692382812 c 0
 256.049804688 401.872070312 257.749023438 400.700195312 279.194335938 323.825195312 c 0
 302.358398438 240.778320312 315.991210938 246.442382812 337.729492188 348.200195312 c 0
 350.776367188 409.235351562 354.741210938 411.540039062 446.850585938 411.540039062 c 0
 499.428710938 411.540039062 542.436523438 403.336914062 542.436523438 393.278320312 c 0
 542.436523438 353.571289062 365.014648438 -106.233398438 340.014648438 -131.331054688 c 0
 305.522460938 -165.940429688 154.155273438 -180.413085938 110.229492188 -153.303710938 c 0
282.143554688 -99.8466796875 m 0
 313.823242188 -78.6162109375 340.131835938 -22.0732421875 415.463867188 186.735351562 c 0
 482.006835938 371.227539062 482.534179688 375.036132812 440.893554688 369.000976562 c 0
 407.768554688 364.176757812 391.557617188 339.137695312 367.553710938 255.700195312 c 0
 324.624023438 106.422851562 286.440429688 106.149414062 241.596679688 254.801757812 c 0
 211.518554688 354.508789062 199.194335938 372.555664062 161.225585938 372.555664062 c 2
 116.381835938 372.555664062 l 1
 183.725585938 212.340820312 l 2
 268.354492188 10.9931640625 269.799804688 -33.0888671875 192.788085938 -62.2490234375 c 0
 160.737304688 -74.3974609375 134.526367188 -91.1748046875 134.526367188 -99.5537109375 c 0
 134.526367188 -118.772460938 253.530273438 -119.026367188 282.143554688 -99.8466796875 c 0
EndSplineSet
EndChar

StartChar: braceleft
Encoding: 2 123 1
Width: 640
Flags: H
LayerCount: 2
Fore
SplineSet
188.66796875 -65.009765625 m 4
 123.677734375 -41.6943359375 91.548828125 22.685546875 91.548828125 129.643554688 c 4
 91.548828125 208.037109375 79.3173828125 242.094726562 42.9892578125 264.873046875 c 4
 8.541015625 286.455078125 -5.5703125 321.684570312 -5.5703125 386.040039062 c 4
 -5.5703125 451.860351562 7.759765625 483.96484375 42.9892578125 502.861328125 c 4
 80.0009765625 522.758789062 91.548828125 553.88671875 91.548828125 633.96484375 c 4
 91.548828125 767.607421875 144.8203125 819.633789062 281.63671875 819.633789062 c 6
 382.90625 819.633789062 l 5
 382.90625 724.78515625 l 6
 382.90625 666.557617188 369.966796875 624.931640625 349.361328125 616.997070312 c 4
 321.431640625 606.254882812 288.716796875 492.583007812 284.932617188 393.217773438 c 4
 281.197265625 295.09765625 321.08984375 137.3828125 349.654296875 137.3828125 c 4
 372.896484375 137.3828125 382.90625 104.326171875 382.90625 27.7392578125 c 4
 382.90625 -80.1220703125 381.63671875 -81.8798828125 304 -80 c 4
 260.591796875 -78.92578125 208.6875 -72.1875 188.66796875 -65.009765625 c 4
334.346679688 15.556640625 m 4
 334.346679688 28.9599609375 312.49609375 61.845703125 285.787109375 88.65234375 c 4
 258.711914062 115.825195312 237.227539062 169.877929688 237.227539062 210.8203125 c 4
 237.227539062 251.201171875 223.677734375 306.010742188 207.100585938 332.646484375 c 4
 183.125976562 371.171875 183.125976562 390.922851562 207.100585938 429.448242188 c 4
 223.677734375 456.059570312 237.227539062 504.497070312 237.227539062 537.08984375 c 4
 237.227539062 621.538085938 261.32421875 673.442382812 300.533203125 673.442382812 c 4
 319.13671875 673.442382812 334.346679688 695.366210938 334.346679688 722.172851562 c 4
 334.346679688 754.66796875 318.16015625 770.903320312 285.787109375 770.903320312 c 4
 205.708984375 770.903320312 140.108398438 684.453125 140.108398438 578.959960938 c 4
 140.108398438 524.6875 124.60546875 471.5625 103.682617188 454.130859375 c 4
 58.150390625 416.215820312 56.3193359375 341.728515625 100.508789062 324.711914062 c 4
 121.163085938 316.77734375 138.106445312 259.501953125 145.186523438 173.662109375 c 4
 151.924804688 92.0458984375 170.625976562 26.5185546875 190.840820312 13.6767578125 c 4
 237.325195312 -15.83984375 334.346679688 -14.5703125 334.346679688 15.556640625 c 4
EndSplineSet
EndChar

StartChar: braceright
Encoding: 3 125 2
Width: 640
Flags: H
LayerCount: 2
Fore
SplineSet
85.7578125 -67.7646484375 m 4
 48.4287109375 -30.2890625 70.6943359375 105.721679688 119.498046875 138.412109375 c 4
 161.734375 166.708007812 169.64453125 198.373046875 170.938476562 344.515625 c 4
 172.720703125 543.270507812 153.7265625 622.616210938 104.361328125 622.616210938 c 4
 79.9716796875 622.616210938 69.5712890625 651.717773438 69.5712890625 720.077148438 c 6
 69.5712890625 817.538085938 l 5
 174.209960938 817.538085938 l 6
 318.936523438 817.538085938 363.272460938 777.669921875 378.995117188 633.309570312 c 4
 386.197265625 567.123046875 406.924804688 504.208007812 425.088867188 493.490234375 c 4
 471.20703125 466.244140625 468.47265625 290.70703125 421.646484375 272.689453125 c 4
 396.622070312 263.045898438 385.220703125 223.788085938 385.220703125 147.127929688 c 4
 385.220703125 5.6484375 307.168945312 -84 184 -84 c 4
 138.8828125 -84 94.6689453125 -76.7001953125 85.7578125 -67.7646484375 c 4
283.243164062 18.34375 m 4
 299.283203125 34.408203125 312.393554688 100.106445312 312.393554688 164.315429688 c 4
 312.393554688 254.696289062 323.35546875 287.948242188 360.953125 311.5078125 c 4
 387.662109375 328.255859375 409.512695312 355.74609375 409.512695312 372.640625 c 4
 409.512695312 389.510742188 387.662109375 425.252929688 360.953125 452.059570312 c 4
 329.849609375 483.260742188 312.247070312 533.651367188 312.002929688 592.147460938 c 4
 311.563476562 706.283203125 292.88671875 736.190429688 208.951171875 757.333007812 c 4
 153.04296875 771.419921875 142.422851562 766.317382812 142.422851562 725.326171875 c 4
 142.422851562 698.495117188 158.8046875 670.248046875 178.848632812 662.533203125 c 4
 201.504882812 653.817382812 215.274414062 616.659179688 215.274414062 564.193359375 c 4
 215.274414062 517.831054688 233.4140625 461.678710938 255.630859375 439.413085938 c 4
 293.252929688 401.64453125 293.252929688 394.247070312 255.630859375 330.35546875 c 4
 233.4140625 292.635742188 215.274414062 223.543945312 215.274414062 176.791015625 c 4
 215.274414062 123.690429688 201.578125 86.5078125 178.848632812 77.7431640625 c 4
 158.8046875 70.0283203125 142.422851562 46.9326171875 142.422851562 26.400390625 c 4
 142.422851562 -18.521484375 240.884765625 -24.185546875 283.243164062 18.34375 c 4
EndSplineSet
EndChar

StartChar: bar
Encoding: 4 124 3
Width: 640
Flags: H
LayerCount: 2
Fore
SplineSet
5.0146484375 438.57421875 m 5
 5.0146484375 877.172851562 l 5
 90 877.172851562 l 5
 174.985351562 877.172851562 l 5
 174.985351562 438.57421875 l 5
 174.985351562 0 l 5
 90 0 l 5
 5.0146484375 0 l 5
 5.0146484375 438.57421875 l 5
102.133789062 438.57421875 m 4
 102.133789062 682.250976562 93.02734375 828.442382812 77.841796875 828.442382812 c 4
 62.6806640625 828.442382812 53.57421875 682.250976562 53.57421875 438.57421875 c 4
 53.57421875 194.921875 62.6806640625 48.73046875 77.841796875 48.73046875 c 4
 93.02734375 48.73046875 102.133789062 194.921875 102.133789062 438.57421875 c 4
EndSplineSet
EndChar

StartChar: s
Encoding: 5 115 4
Width: 640
Flags: H
LayerCount: 2
Fore
SplineSet
108.799804688 29.0009765625 m 0
 73.619140625 56.7841796875 44.8349609375 100.631835938 44.8349609375 126.461914062 c 0
 44.8349609375 163.986328125 63.12109375 173.99609375 135.875 176.2421875 c 0
 188.31640625 177.877929688 206.333984375 184.15234375 178.379882812 191.061523438 c 0
 95.640625 211.471679688 69.1025390625 248.971679688 69.1025390625 345.602539062 c 0
 69.1025390625 470.138671875 133.506835938 514.547851562 314.048828125 514.547851562 c 0
 415.879882812 514.547851562 467.466796875 501.583984375 515.025390625 464.059570312 c 0
 589.903320312 404.953125 594.883789062 373.654296875 536.509765625 329.171875 c 0
 509.581054688 308.6640625 505.357421875 296.530273438 524.961914062 296.041992188 c 0
 576.451171875 294.748046875 609.3125 173.751953125 578.453125 98.99609375 c 0
 543.39453125 14.0595703125 461.802734375 -21.51171875 301.915039062 -21.51171875 c 0
 208.04296875 -21.51171875 155.30859375 -7.7177734375 108.799804688 29.0009765625 c 0
483.750976562 89.865234375 m 0
 574.595703125 172.360351562 521.51953125 243.209960938 338.877929688 283.249023438 c 0
 251.426757812 302.4140625 226.939453125 318.405273438 226.939453125 356.344726562 c 0
 226.939453125 399.411132812 241.465820312 404.293945312 355.40625 399.508789062 c 0
 490.489257812 393.8203125 508.04296875 426.461914062 384.556640625 453.68359375 c 0
 298.545898438 472.62890625 151.817382812 429.342773438 132.725585938 379.3671875 c 0
 101.3046875 297.213867188 155.162109375 258.76171875 368.125976562 211.30078125 c 0
 464.463867188 189.840820312 451.98828125 91.671875 351.451171875 80.1484375 c 0
 313.096679688 75.75390625 269.932617188 83.9814453125 255.528320312 98.41015625 c 0
 221.055664062 133.029296875 109.556640625 133.200195312 130.845703125 98.6298828125 c 0
 179.478515625 19.6748046875 400.42578125 14.181640625 483.750976562 89.865234375 c 0
EndSplineSet
EndChar

StartChar: t
Encoding: 6 116 5
Width: 640
Flags: H
LayerCount: 2
Fore
SplineSet
246.587890625 13.140625 m 2
 226.564453125 33.234375 202.654296875 110.1328125 193.455078125 184.026367188 c 0
 184.254882812 257.918945312 167.078125 324.361328125 155.284179688 331.67578125 c 0
 126.599609375 349.466796875 127.68359375 512.662109375 156.486328125 512.662109375 c 0
 168.94140625 512.662109375 186.10546875 534.712890625 194.62890625 561.662109375 c 0
 210.791992188 612.767578125 322.627929688 683.225585938 387.583984375 683.225585938 c 0
 414.399414062 683.225585938 425.2109375 658.720703125 425.2109375 597.944335938 c 0
 425.2109375 528.907226562 434.4609375 512.662109375 473.772460938 512.662109375 c 0
 514.240234375 512.662109375 522.333984375 496.41796875 522.333984375 415.197265625 c 0
 522.333984375 333.977539062 514.240234375 317.732421875 473.772460938 317.732421875 c 0
 436.002929688 317.732421875 425.2109375 301.489257812 425.2109375 244.634765625 c 0
 425.2109375 189.404296875 436.33984375 171.53515625 470.737304688 171.53515625 c 0
 502.232421875 171.53515625 520.907226562 148.235351562 531.331054688 95.9345703125 c 0
 539.618164062 54.3544921875 540.338867188 10.4951171875 532.93359375 -1.5302734375 c 0
 510.2109375 -38.4248046875 286.5546875 -26.9658203125 246.588867188 13.140625 c 2
 246.587890625 13.140625 l 2
466.822265625 64.876953125 m 0
 471.736328125 79.9228515625 453.458007812 98.083984375 426.203125 105.236328125 c 0
 383.768554688 116.373046875 376.6484375 137.823242188 376.6484375 254.536132812 c 0
 376.6484375 374.586914062 382.436523438 390.83203125 425.209960938 390.83203125 c 0
 452.188476562 390.83203125 473.771484375 407.076171875 473.771484375 427.380859375 c 0
 473.771484375 447.685546875 452.188476562 463.9296875 425.209960938 463.9296875 c 0
 387.517578125 463.9296875 376.6484375 480.173828125 376.6484375 536.505859375 c 0
 376.6484375 605.078125 373.299804688 607.55078125 315.947265625 581.327148438 c 0
 282.561523438 566.0625 255.245117188 533.403320312 255.245117188 508.750976562 c 0
 255.245117188 484.099609375 238.85546875 463.9296875 218.82421875 463.9296875 c 0
 198.79296875 463.9296875 182.403320312 447.482421875 182.403320312 427.380859375 c 0
 182.403320312 407.278320312 198.79296875 390.83203125 218.82421875 390.83203125 c 0
 247.102539062 390.83203125 255.245117188 358.536132812 255.245117188 246.375 c 0
 255.245117188 145.4921875 267.15234375 89.9697265625 294.71875 62.3056640625 c 0
 337.70703125 19.166015625 452.450195312 20.880859375 466.822265625 64.876953125 c 0
EndSplineSet
EndChar

StartChar: u
Encoding: 7 117 6
Width: 640
Flags: H
LayerCount: 2
Fore
SplineSet
57.05078125 23.9326171875 m 6
 17.9287109375 63.19140625 10.3837890625 106.219726562 10.3837890625 290.059570312 c 6
 10.3837890625 509.354492188 l 5
 131.788085938 509.354492188 l 5
 253.19140625 509.354492188 l 5
 253.19140625 336.760742188 l 6
 253.19140625 209.5625 261.173828125 166.813476562 283.541992188 174.231445312 c 4
 302.7578125 180.602539062 316.526367188 243.921875 321.072265625 346.825195312 c 6
 328.251953125 509.354492188 l 5
 448.545898438 509.354492188 l 5
 568.840820312 509.354492188 l 5
 568.840820312 242.749023438 l 5
 568.840820312 -23.85546875 l 5
 336.279296875 -23.3779296875 l 6
 139.637695312 -22.9736328125 96.509765625 -15.6669921875 57.05078125 23.931640625 c 6
 57.05078125 23.9326171875 l 6
277.471679688 58.580078125 m 4
 356.603515625 103.974609375 398.875976562 103.974609375 398.875976562 58.580078125 c 4
 398.875976562 38.2744140625 420.458007812 22.03125 447.436523438 22.03125 c 4
 492.401367188 22.03125 495.998046875 38.2744140625 495.998046875 241.326171875 c 4
 495.998046875 458.998046875 495.548828125 460.622070312 435.296875 460.622070312 c 4
 376.971679688 460.622070312 374.594726562 454.612304688 374.594726562 307.115234375 c 4
 374.594726562 148.791015625 348.997070312 95.1298828125 273.469726562 95.1298828125 c 4
 211.069335938 95.1298828125 180.349609375 170.965820312 180.349609375 325.005859375 c 4
 180.349609375 444.377929688 174.532226562 460.622070312 131.788085938 460.622070312 c 4
 87.740234375 460.622070312 83.2265625 444.377929688 83.2265625 285.88671875 c 4
 83.2265625 157.485351562 93.8818359375 99.3330078125 123.41015625 66.5908203125 c 4
 171.18359375 13.6162109375 196.771484375 12.28515625 277.471679688 58.580078125 c 4
EndSplineSet
EndChar

StartChar: v
Encoding: 8 118 7
Width: 640
Flags: HW
LayerCount: 2
Fore
SplineSet
166.416015625 29.4873046875 m 0
 154.787109375 59.6396484375 111.352539062 169.573242188 69.89453125 273.783203125 c 0
 28.435546875 377.993164062 -5.484375 473.934570312 -5.484375 486.987304688 c 0
 -5.484375 500.040039062 48.81640625 510.71875 115.184570312 510.71875 c 2
 235.853515625 510.71875 l 1
 267.848632812 400.603515625 l 1
 299.84375 290.489257812 l 1
 329.19140625 400.603515625 l 1
 358.540039062 510.71875 l 1
 480.036132812 510.71875 l 2
 546.859375 510.71875 601.58203125 502.495117188 601.640625 492.444335938 c 0
 601.690429688 482.393554688 556.791992188 361.780273438 501.846679688 224.416015625 c 2
 401.946289062 -25.337890625 l 1
 294.752929688 -25.337890625 l 2
 206.041015625 -25.337890625 183.9140625 -15.884765625 166.416015625 29.4873046875 c 0
435.796875 243.103515625 m 0
 524.290039062 460.223632812 524.56640625 461.986328125 470.12890625 461.986328125 c 0
 423.741210938 461.986328125 408.981445312 439.364257812 374.745117188 315.7890625 c 0
 348.376953125 220.61328125 321.602539062 169.591796875 298.024414062 169.591796875 c 0
 274.446289062 169.591796875 247.671875 220.61328125 221.303710938 315.7890625 c 0
 186.6640625 440.818359375 172.637695312 461.986328125 124.432617188 461.986328125 c 2
 68.0654296875 461.986328125 l 1
 113.783203125 346.247070312 l 2
 240.659179688 25.041015625 241.586914062 23.38671875 294.590820312 23.8076171875 c 0
 337.133789062 24.1474609375 362.803710938 64.0107421875 435.796875 243.103515625 c 0
EndSplineSet
EndChar

StartChar: w
Encoding: 9 119 8
Width: 640
Flags: H
LayerCount: 2
Fore
SplineSet
-2.9951171875 86.87890625 m 4
 -23.79296875 143.834960938 -62.93359375 250.741210938 -89.9736328125 324.44921875 c 4
 -160.4453125 516.546875 -158.139648438 523.282226562 -24.87109375 514.622070312 c 4
 88.17578125 507.276367188 89.697265625 506.041015625 115.069335938 400.986328125 c 6
 140.720703125 294.776367188 l 5
 170.651367188 407.078125 l 6
 200.563476562 519.309570312 200.6484375 519.37890625 308.963867188 519.37890625 c 4
 415.329101562 519.37890625 417.916992188 517.465820312 448.072265625 416.461914062 c 6
 478.798828125 313.544921875 l 5
 505.748046875 410.37109375 l 6
 531.754882812 503.811523438 536.655273438 507.455078125 645.9609375 514.622070312 c 4
 784.893554688 523.732421875 784.901367188 523.66796875 677.07421875 223.895507812 c 6
 594.923828125 -4.494140625 l 5
 484.108398438 -11.869140625 l 5
 373.293945312 -19.2431640625 l 5
 344.4375 85.595703125 l 5
 315.581054688 190.435546875 l 5
 280.431640625 86.87890625 l 6
 246.329101562 -13.5966796875 242.15234375 -16.677734375 140.05078125 -16.677734375 c 4
 38.3681640625 -16.677734375 33.544921875 -13.185546875 -2.9951171875 86.87890625 c 4
234.454101562 167.52734375 m 4
 289.58203125 343.028320312 344.200195312 340.309570312 392.323242188 159.668945312 c 4
 420.39453125 54.298828125 435.721679688 32.0546875 480.256835938 32.0546875 c 4
 534.2265625 32.0546875 538.333007812 40.4140625 680.729492188 440.188476562 c 4
 687.083984375 458.028320312 671.46875 470.646484375 643.036132812 470.646484375 c 4
 604.084960938 470.646484375 587.768554688 442.991210938 560.450195312 330.666992188 c 4
 513.244140625 136.569335938 464.532226562 134.275390625 407.452148438 323.462890625 c 4
 370.80859375 444.915039062 353.776367188 470.646484375 310.03125 470.646484375 c 4
 266.326171875 470.646484375 249.274414062 444.978515625 212.909179688 324.44921875 c 4
 188.395507812 243.202148438 154.7421875 178.251953125 137.158203125 178.251953125 c 4
 119.755859375 178.251953125 93.51953125 224.852539062 78.85546875 281.80859375 c 4
 64.19140625 338.764648438 46.64453125 404.552734375 39.8623046875 428.005859375 c 4
 33.080078125 451.458007812 6.8837890625 470.646484375 -18.3515625 470.646484375 c 4
 -61.111328125 470.646484375 -59.0615234375 455.71875 11.7587890625 251.350585938 c 4
 75.6162109375 67.0732421875 96.0673828125 32.0546875 139.826171875 32.0546875 c 4
 181.724609375 32.0546875 200.21484375 58.52734375 234.454101562 167.52734375 c 4
EndSplineSet
EndChar

StartChar: x
Encoding: 10 120 9
Width: 885
Flags: HW
LayerCount: 2
Fore
SplineSet
162.14453125 53.5185546875 m 0
 162.14453125 74.3310546875 189.459960938 131.700195312 222.846679688 181.005859375 c 0
 256.232421875 230.310546875 283.547851562 279.65234375 283.547851562 290.653320312 c 0
 283.547851562 301.655273438 256.232421875 350.997070312 222.846679688 400.301757812 c 0
 132.920898438 533.10546875 141.6796875 551.732421875 294.051757812 551.732421875 c 0
 406.466796875 551.732421875 428.336914062 544.217773438 442.04296875 500.8828125 c 2
 458.125 450.032226562 l 1
 493.6171875 500.8828125 l 2
 521.462890625 540.77734375 554.967773438 551.732421875 649.135742188 551.732421875 c 0
 718.189453125 551.732421875 769.163085938 540.662109375 769.163085938 525.665039062 c 0
 769.163085938 511.328125 737.619140625 453.588867188 699.065429688 397.35546875 c 2
 628.966796875 295.11328125 l 1
 698.0703125 198.03515625 l 2
 803.11328125 50.470703125 793.776367188 15.6767578125 649.135742188 15.6767578125 c 0
 554.526367188 15.6767578125 521.505859375 26.5703125 493.203125 67.119140625 c 2
 457.297851562 118.561523438 l 1
 425.284179688 67.119140625 l 2
 399.993164062 26.478515625 369.00390625 15.6767578125 277.70703125 15.6767578125 c 0
 189.416992188 15.6767578125 162.14453125 24.607421875 162.14453125 53.5185546875 c 0
380.670898438 137.5078125 m 0
 409.198242188 177.711914062 447.904296875 210.60546875 466.68359375 210.60546875 c 0
 485.462890625 210.60546875 517.778320312 177.711914062 538.49609375 137.5078125 c 0
 565.172851562 85.73828125 593.94921875 64.4091796875 637.1171875 64.4091796875 c 2
 698.071289062 64.4091796875 l 1
 636.494140625 155.346679688 l 2
 561.7265625 265.763671875 559.71484375 314.184570312 625.458984375 420.934570312 c 2
 676 503 l 1
 626.018554688 503 l 2
 598.528320312 503 558.138671875 475.587890625 536.262695312 442.084960938 c 0
 514.387695312 408.581054688 482.61328125 381.169921875 465.653320312 381.169921875 c 0
 448.693359375 381.169921875 416.919921875 408.581054688 395.043945312 442.084960938 c 0
 369.981445312 480.469726562 332.569335938 503 293.893554688 503 c 2
 232.515625 503 l 1
 294.453125 421.510742188 l 2
 368.02734375 324.708984375 371.62109375 276.775390625 311.810546875 190.000976562 c 0
 231.6875 73.759765625 229.353515625 64.4091796875 280.461914062 64.4091796875 c 0
 307.049804688 64.4091796875 352.143554688 97.302734375 380.670898438 137.5078125 c 0
EndSplineSet
EndChar

StartChar: z
Encoding: 11 122 10
Width: 989
VWidth: 25141
Flags: HW
LayerCount: 2
Fore
SplineSet
186.388671875 7.6796875 m 0
 144.025390625 50.19140625 177.958007812 147.166015625 270.416015625 247.825195312 c 2
 370.6328125 356.928710938 l 1
 282.556640625 356.928710938 l 2
 197.921875 356.928710938 194.481445312 360.291992188 194.481445312 443.0625 c 2
 194.481445312 529.197265625 l 1
 443.358398438 522.252929688 l 2
 673.622070312 515.828125 692.772460938 511.549804688 699.401367188 465.045898438 c 0
 703.684570312 434.98828125 666.250976562 363.973632812 606.282226562 288.390625 c 2
 506 162 l 1
 605.189453125 162 l 2
 702.361328125 162 704.375976562 160.26171875 704.375976562 76.7177734375 c 2
 704.375976562 -8.564453125 l 1
 453.4765625 -8.564453125 l 2
 315.481445312 -8.564453125 195.291992188 -1.25390625 186.388671875 7.6796875 c 0
655.814453125 76.7177734375 m 0
 655.814453125 104.333007812 626.138671875 113.266601562 534.411132812 113.266601562 c 0
 380.424804688 113.266601562 378.545898438 142.629882812 522.270507812 303.049804688 c 0
 582.365234375 370.125 631.534179688 437.099609375 631.534179688 451.881835938 c 0
 631.534179688 469.0859375 565.991210938 478.759765625 449.428710938 478.759765625 c 0
 303.744140625 478.759765625 267.323242188 471.450195312 267.323242188 442.2109375 c 0
 267.323242188 415.813476562 294.303710938 405.661132812 364.446289062 405.661132812 c 0
 491.727539062 405.661132812 489.18359375 369.90625 352.305664062 235.09765625 c 0
 292.2109375 175.911132812 243.04296875 107.83984375 243.04296875 83.8271484375 c 0
 243.04296875 45.2841796875 267.223632812 40.16796875 449.428710938 40.16796875 c 0
 616.696289062 40.16796875 655.814453125 47.095703125 655.814453125 76.7177734375 c 0
EndSplineSet
EndChar

StartChar: asciitilde
Encoding: 12 126 11
Width: 765
VWidth: 25256
Flags: HW
LayerCount: 2
Fore
SplineSet
84.91015625 367.141601562 m 0
 84.91015625 434.622070312 98.97265625 478.713867188 127.415039062 500.369140625 c 0
 184.8125 544.094726562 314.329101562 542.5078125 402 497 c 0
 454.783203125 469.607421875 486.252929688 466.384765625 520.603515625 484.817382812 c 0
 609.03125 532.302734375 643.381835938 515.872070312 643.381835938 426.028320312 c 0
 643.381835938 281.716796875 502.048828125 226.19921875 324.36328125 300.686523438 c 0
 254.416992188 330.032226562 233.274414062 330.154296875 181.78515625 301.565429688 c 0
 92.3076171875 251.858398438 84.91015625 256.86328125 84.91015625 367.141601562 c 0
484.348632812 412.454101562 m 0
 436.936523438 412.454101562 365.0859375 429.6171875 324.680664062 450.588867188 c 0
 257.859375 485.256835938 245.823242188 485.208007812 192.33203125 450.02734375 c 0
 110.447265625 396.194335938 118.89453125 371.8046875 215.525390625 383.1328125 c 0
 261.47265625 388.50390625 328.245117188 376.052734375 367.283203125 354.836914062 c 0
 452.317382812 308.596679688 434.543945312 310.647460938 508.25 338.748046875 c 0
 597.776367188 372.903320312 584.934570312 412.454101562 484.348632812 412.454101562 c 0
EndSplineSet
EndChar

StartChar: g
Encoding: 13 103 12
Width: 13573
VWidth: 18263
Flags: H
LayerCount: 2
Fore
SplineSet
-35.2431640625 -67.8603515625 m 0
 -114.7109375 -48.4267578125 -168.788085938 15.07421875 -168.788085938 88.951171875 c 0
 -168.788085938 137.217773438 -156.581054688 158.287109375 -128.602539062 158.287109375 c 0
 -91.9326171875 158.287109375 -92.103515625 162.364257812 -130.653320312 205.137695312 c 0
 -220.057617188 304.258789062 -199.76953125 565.489257812 -98.451171875 619.883789062 c 0
 -76.7958984375 631.529296875 41.880859375 641.514648438 165.293945312 642.100585938 c 2
 389.659179688 643.174804688 l 1
 389.659179688 375.157226562 l 2
 389.659179688 67.3447265625 360.97265625 -16.4443359375 241.099609375 -58.36328125 c 0
 162.901367188 -85.7314453125 53.2822265625 -89.4912109375 -35.2431640625 -67.8603515625 c 0
268.272460938 36.4609375 m 0
 310.655273438 78.990234375 316.83203125 117.686523438 316.83203125 341.026367188 c 0
 316.83203125 580.625976562 313.755859375 596.885742188 268.272460938 596.885742188 c 0
 241.294921875 596.885742188 219.712890625 580.625976562 219.712890625 560.337890625 c 0
 219.712890625 512.828125 191.709960938 514.1953125 101.622070312 566.099609375 c 0
 30.7236328125 606.919921875 25.7431640625 606.626953125 -39.9794921875 557.5546875 c 0
 -138.392578125 484.1171875 -148.060546875 330.186523438 -59.828125 241.661132812 c 0
 -22.1328125 203.819335938 18.4921875 184.1171875 40.9287109375 192.735351562 c 0
 61.607421875 200.71875 105.577148438 214.048828125 138.633789062 222.349609375 c 0
 195.665039062 236.729492188 198.326171875 232.701171875 191.001953125 143.077148438 c 0
 184.166015625 59.3857421875 175.352539062 47.7158203125 113.560546875 40.6357421875 c 0
 75.2060546875 36.2412109375 32.0419921875 44.46875 17.6376953125 58.921875 c 0
 -14.6865234375 91.3681640625 -95.9365234375 93.58984375 -95.9365234375 62.0224609375 c 0
 -95.9365234375 -20.9853515625 190.953125 -41.1513671875 268.272460938 36.4609375 c 0
1.1337890625 316.807617188 m 0
 -33.4365234375 408.04296875 -4.7744140625 496.983398438 64.87890625 514.537109375 c 0
 153.819335938 536.924804688 199.05859375 484.01953125 190.5625 367.515625 c 0
 183.775390625 274.7421875 177.8671875 267.41796875 104.356445312 260.2890625 c 0
 38.0966796875 253.892578125 21.51953125 262.950195312 1.1337890625 316.807617188 c 0
134.727539062 390.098632812 m 0
 134.727539062 458.287109375 63.609375 450.71875 53.84375 381.504882812 c 0
 47.59375 337.315429688 55.7724609375 326.451171875 90.26953125 333.116210938 c 0
 115.5625 337.999023438 134.727539062 362.559570312 134.727539062 390.098632812 c 0
133.3359375 131.651367188 m 0
 140.806640625 143.809570312 125.059570312 148.008789062 98.326171875 140.977539062 c 0
 41.63671875 126.109375 34.4833984375 109.556640625 84.7275390625 109.556640625 c 0
 103.965820312 109.556640625 125.840820312 119.493164062 133.3359375 131.651367188 c 0
EndSplineSet
EndChar

StartChar: j
Encoding: 14 106 13
Width: 13024
VWidth: 25229
Flags: H
LayerCount: 2
Fore
SplineSet
185.307617188 -178.6640625 m 4
 149.1015625 -168.361328125 143.193359375 -150.709960938 155.278320312 -88.9423828125 c 4
 163.5546875 -46.6328125 186.137695312 -0.1728515625 205.473632812 14.3291015625 c 4
 232.426757812 34.5439453125 242.265625 116.892578125 247.63671875 367.625 c 6
 254.66796875 694.578125 l 5
 370 702 l 5
 485.33203125 709.446289062 l 5
 485.33203125 310.715820312 l 6
 485.33203125 24.3876953125 476.518554688 -100.075195312 454.130859375 -130.8125 c 4
 422.099609375 -174.7578125 267.998046875 -202.19921875 185.307617188 -178.6640625 c 4
405.498046875 -48.5859375 m 4
 423.7109375 -12.2578125 436.186523438 108.274414062 436.40625 249.900390625 c 4
 436.772460938 487.15625 436.674804688 487.473632812 376.0546875 487.473632812 c 4
 315.361328125 487.473632812 315.361328125 487.44921875 315.361328125 244.016601562 c 4
 315.361328125 26.951171875 310.087890625 -2.736328125 266.801757812 -29.8603515625 c 4
 189.7265625 -78.17578125 206.03515625 -125.954101562 296.586914062 -117.140625 c 4
 351.396484375 -111.793945312 384.135742188 -91.1884765625 405.498046875 -48.5859375 c 4
436.772460938 621.482421875 m 4
 436.772460938 644.236328125 413.823242188 658.030273438 376.0546875 658.030273438 c 4
 338.286132812 658.030273438 315.361328125 644.236328125 315.361328125 621.482421875 c 4
 315.361328125 598.752929688 338.286132812 584.934570312 376.0546875 584.934570312 c 4
 413.823242188 584.934570312 436.772460938 598.752929688 436.772460938 621.482421875 c 4
EndSplineSet
EndChar

StartChar: p
Encoding: 15 112 14
Width: 921
VWidth: 21603
Flags: HW
LayerCount: 2
Fore
SplineSet
188.61328125 187.465820312 m 1
 188.61328125 539.956054688 l 1
 399.599609375 539.174804688 l 2
 645.131835938 538.247070312 689.614257812 520.180664062 739.1015625 401.333007812 c 0
 822.963867188 199.892578125 717.983398438 5.556640625 525.258789062 5.556640625 c 0
 434.194335938 5.556640625 431.411132812 3.017578125 431.411132812 -79.7216796875 c 2
 431.411132812 -165 l 1
 310 -165 l 1
 188.61328125 -165 l 1
 188.61328125 187.465820312 l 1
 188.61328125 187.465820312 l 1
358.559570312 -20.2490234375 m 2
 358.559570312 95.0341796875 386.586914062 117.470703125 481.2890625 78.0908203125 c 0
 540.786132812 53.3837890625 562.514648438 55.0439453125 613.002929688 88.2470703125 c 0
 726.430664062 162.83203125 724.2578125 385.756835938 609.365234375 461.293945312 c 0
 550.576171875 499.94140625 542.373046875 499.94140625 474.990234375 461.098632812 c 0
 386.5625 410.1953125 358.559570312 409.047851562 358.559570312 456.313476562 c 0
 358.559570312 476.625976562 336.977539062 492.861328125 310 492.861328125 c 0
 264.028320312 492.861328125 261.440429688 476.625976562 261.440429688 188.295898438 c 0
 261.440429688 -100.034179688 264.028320312 -116.293945312 310 -116.293945312 c 0
 350.356445312 -116.293945312 358.559570312 -100.034179688 358.559570312 -20.2490234375 c 2
 358.559570312 -20.2490234375 l 2
407.143554688 176.11328125 m 0
 348.793945312 234.658203125 345.498046875 292.739257812 396.376953125 365.615234375 c 0
 471.889648438 473.818359375 577.08984375 417.885742188 577.08984375 269.5703125 c 0
 577.08984375 203.798828125 563.80859375 170.693359375 530.141601562 152.602539062 c 0
 467.470703125 118.959960938 463.295898438 119.765625 407.143554688 176.11328125 c 0
516.412109375 271.586914062 m 0
 516.412109375 338.359375 462.359375 366.020507812 440.997070312 310.161132812 c 0
 420.904296875 257.59765625 448.858398438 192.119140625 486.08984375 204.5703125 c 0
 502.764648438 210.161132812 516.412109375 240.3125 516.412109375 271.586914062 c 0
EndSplineSet
EndChar

StartChar: q
Encoding: 16 113 15
Width: 856
VWidth: 24913
Flags: HW
LayerCount: 2
Fore
SplineSet
464.3359375 -155.094726562 m 1
 464.3359375 -93.1728515625 464.3359375 -31.25 464.3359375 30.671875 c 1
 361.137695312 22.4443359375 l 2
 274.907226562 15.5595703125 247.978515625 24.861328125 197.24609375 79.0361328125 c 0
 146.391601562 133.357421875 136.528320312 167.68359375 136.528320312 290.2421875 c 0
 136.528320312 419.63671875 144.267578125 443.245117188 203.227539062 494.1484375 c 0
 263.5546875 546.223632812 290.288085938 551.252929688 482.475585938 546.858398438 c 2
 695 542 l 1
 695 314.583007812 695 87.166015625 695 -140.250976562 c 1
 618.112304688 -145.19921875 541.223632812 -150.146484375 464.3359375 -155.094726562 c 1
585.72265625 505.452148438 m 0
 558.745117188 505.452148438 537.163085938 489.216796875 537.163085938 468.904296875 c 0
 537.163085938 422.688476562 514.873046875 422.95703125 420.390625 470.247070312 c 0
 363.06640625 498.93359375 332.841796875 501.765625 295.805664062 481.868164062 c 0
 179.692382812 419.514648438 159.74609375 224.104492188 259.306640625 124.202148438 c 0
 321.098632812 62.1904296875 324.98046875 61.873046875 470.390625 107.844726562 c 0
 506.669921875 119.319335938 512.895507812 104.79296875 512.895507812 8.796875 c 0
 512.895507812 -94.9384765625 517.607421875 -103.703125 573.588867188 -103.703125 c 2
 634.282226562 -103.703125 l 1
 634.282226562 200.88671875 l 2
 634.282226562 489.216796875 631.694335938 505.452148438 585.72265625 505.452148438 c 0
327.32421875 202.766601562 m 0
 255.791015625 312.336914062 358.256835938 480.452148438 458.256835938 417.5859375 c 0
 519.194335938 379.280273438 529.594726562 212.483398438 473.588867188 171.39453125 c 0
 410.112304688 124.8125 373.02734375 132.771484375 327.32421875 202.766601562 c 0
452.958984375 264.241210938 m 0
 471.049804688 321.443359375 434.2578125 373.591796875 393.608398438 348.396484375 c 0
 364.458007812 330.305664062 357.98828125 254.817382812 383.403320312 229.3046875 c 0
 412.504882812 200.10546875 436.479492188 212.141601562 452.958984375 264.241210938 c 0
EndSplineSet
EndChar

StartChar: e
Encoding: 17 101 16
Width: 821
VWidth: 18358
Flags: HW
LayerCount: 2
Fore
SplineSet
208.935546875 31.5576171875 m 4
 130.078125 77.28515625 86.7431640625 163.076171875 85.7177734375 275.478515625 c 4
 85.0341796875 350.307617188 101.5625 386.049804688 167.407226562 452.138671875 c 4
 239.916992188 524.916992188 265.185546875 535 375 535 c 4
 537.5 535 632.006835938 484.8046875 666.381835938 380.3125 c 4
 701.196289062 274.453125 675.122070312 110.805664062 614.721679688 55.947265625 c 4
 553.002929688 -0.107421875 290.747070312 -15.87890625 208.935546875 31.5576171875 c 4
493.994140625 74.404296875 m 4
 536.059570312 89.1259765625 570.458984375 111.049804688 570.458984375 123.159179688 c 4
 570.458984375 153.090820312 479.8828125 151.11328125 461.206054688 120.766601562 c 4
 440.454101562 87.0751953125 343.579101562 90.17578125 308.227539062 125.649414062 c 4
 292.211914062 141.713867188 279.1015625 180.092773438 279.1015625 210.927734375 c 4
 279.1015625 264.052734375 287.890625 266.958007812 449.072265625 266.958007812 c 4
 641.30859375 266.958007812 659.716796875 289.8828125 560.424804688 405.703125 c 4
 480.883789062 498.500976562 313.76953125 503.090820312 220.361328125 415.004882812 c 4
 137.817382812 337.197265625 133.959960938 199.6484375 212.329101562 128.115234375 c 4
 303.857421875 44.5458984375 371.6796875 31.630859375 493.994140625 74.404296875 c 4
279.1015625 335.1953125 m 4
 279.1015625 393.764648438 325.830078125 437.514648438 388.354492188 437.514648438 c 4
 450.903320312 437.514648438 497.631835938 393.764648438 497.631835938 335.1953125 c 4
 497.631835938 299.453125 477.392578125 291.323242188 388.354492188 291.323242188 c 4
 299.340820312 291.323242188 279.1015625 299.453125 279.1015625 335.1953125 c 4
418.212890625 354.775390625 m 4
 410.131835938 362.880859375 389.208984375 363.735351562 371.6796875 356.704101562 c 4
 352.294921875 348.916015625 358.056640625 343.154296875 386.328125 341.982421875 c 4
 411.938476562 340.932617188 426.26953125 346.669921875 418.212890625 354.775390625 c 4
EndSplineSet
EndChar

StartChar: f
Encoding: 18 102 17
Width: 15475
VWidth: 24994
Flags: H
LayerCount: 2
Fore
SplineSet
97 169.287109375 m 0
 97 297.290039062 88.11328125 342.016601562 60.57421875 352.612304688 c 0
 37.72265625 361.42578125 24.1728515625 398.681640625 24.1728515625 452.685546875 c 0
 24.1728515625 512.915039062 35.0859375 538.720703125 60.57421875 538.720703125 c 0
 80.6181640625 538.720703125 97 558.959960938 97 583.69140625 c 0
 97 668.676757812 177.76171875 712.670898438 318.948242188 704.565429688 c 0
 462.8203125 696.313476562 456.814453125 708.666992188 423.611328125 489.990234375 c 0
 414.456054688 429.6875 392.434570312 368.603515625 374.661132812 354.223632812 c 0
 355.49609375 338.720703125 339.3828125 264.428710938 335.012695312 171.484375 c 2
 327.6640625 14.8681640625 l 1
 212.33203125 7.421875 l 1
 97 0 l 1
 97 169.287109375 l 0
266.970703125 224.243164062 m 0
 266.970703125 376.611328125 272.732421875 398.608398438 315.530273438 409.838867188 c 0
 342.239257812 416.845703125 364.08984375 437.744140625 364.08984375 456.298828125 c 0
 364.08984375 474.829101562 342.239257812 489.990234375 315.530273438 489.990234375 c 0
 245.681640625 489.990234375 255.374023438 559.887695312 329.12890625 588.012695312 c 0
 402.786132812 616.11328125 386.135742188 660.571289062 301.956054688 660.571289062 c 0
 236.038085938 660.571289062 145.559570312 583.032226562 145.559570312 526.538085938 c 0
 145.559570312 506.4453125 134.646484375 489.990234375 121.291992188 489.990234375 c 0
 107.9375 489.990234375 97 473.559570312 97 453.442382812 c 0
 97 433.349609375 107.9375 416.89453125 121.291992188 416.89453125 c 0
 135.305664062 416.89453125 145.559570312 339.74609375 145.559570312 234.155273438 c 0
 145.559570312 55.46875 146.926757812 51.416015625 206.27734375 51.416015625 c 0
 265.310546875 51.416015625 266.970703125 56.1279296875 266.970703125 224.243164062 c 0
EndSplineSet
EndChar

StartChar: h
Encoding: 19 104 18
Width: 889
VWidth: 25126
Flags: HW
LayerCount: 2
Fore
SplineSet
158 2.3837890625 m 1
 158 237.922851562 158 473.4609375 158 709 c 1
 238.940429688 709 319.881835938 709 400.822265625 709 c 1
 400.822265625 647.96484375 400.822265625 586.9296875 400.822265625 525.89453125 c 1
 506.608398438 534.341796875 l 2
 598.014648438 541.641601562 619.474609375 533.755859375 664.420898438 476.407226562 c 0
 708.1953125 420.572265625 716.471679688 377.65234375 716.471679688 206.192382812 c 2
 716.471679688 2.3837890625 l 1
 636.271484375 2.3837890625 556.071289062 2.3837890625 475.87109375 2.3837890625 c 1
 468.693359375 166.836914062 l 2
 464.73828125 257.315429688 450.578125 331.314453125 437.223632812 331.314453125 c 0
 423.869140625 331.314453125 409.733398438 257.315429688 405.778320312 166.836914062 c 2
 398.600585938 2.3837890625 l 1
 318.400390625 2.3837890625 238.200195312 2.3837890625 158 2.3837890625 c 1
450.724609375 388.467773438 m 0
 506.120117188 380.606445312 510.563476562 369.107421875 517.252929688 215.567382812 c 0
 524.088867188 59.1708984375 527.360351562 51.1142578125 584.025390625 51.1142578125 c 0
 641.984375 51.1142578125 643.620117188 56.119140625 643.620117188 233.291992188 c 0
 643.620117188 399.209960938 638.37109375 418.936523438 584.7578125 454.166015625 c 0
 530.973632812 489.541992188 519.450195312 489.517578125 450.504882812 453.750976562 c 0
 351.603515625 402.408203125 327.970703125 421.377929688 327.970703125 552.041992188 c 0
 327.970703125 644.009765625 320.670898438 660.26953125 279.411132812 660.26953125 c 0
 233.439453125 660.26953125 230.8515625 644.009765625 230.8515625 355.6796875 c 0
 230.8515625 67.349609375 233.439453125 51.1142578125 279.411132812 51.1142578125 c 0
 321.8671875 51.1142578125 327.970703125 67.349609375 327.970703125 180.459960938 c 0
 327.970703125 333.731445312 367.252929688 400.284179688 450.724609375 388.467773438 c 0
EndSplineSet
EndChar

StartChar: i
Encoding: 20 105 19
Width: 644
VWidth: 25169
Flags: HW
LayerCount: 2
Fore
SplineSet
184.315429688 49.7685546875 m 0
 177.552734375 67.46875 175.16015625 223.71875 179.017578125 396.985351562 c 2
 186 712 l 1
 301.33203125 719.421875 l 1
 416.688476562 726.868164062 l 1
 416.688476562 372.205078125 l 1
 416.688476562 17.56640625 l 1
 306.654296875 17.56640625 l 2
 237.85546875 17.56640625 192.005859375 29.626953125 184.315429688 49.7685546875 c 0
368.104492188 285.583984375 m 0
 368.104492188 503.259765625 367.665039062 504.895507812 307.411132812 504.895507812 c 0
 247.157226562 504.895507812 246.717773438 503.259765625 246.717773438 285.583984375 c 0
 246.717773438 67.9326171875 247.157226562 66.296875 307.411132812 66.296875 c 0
 367.665039062 66.296875 368.104492188 67.9326171875 368.104492188 285.583984375 c 0
368.104492188 638.904296875 m 0
 368.104492188 661.658203125 345.1796875 675.452148438 307.411132812 675.452148438 c 0
 269.642578125 675.452148438 246.717773438 661.658203125 246.717773438 638.904296875 c 0
 246.717773438 616.174804688 269.642578125 602.356445312 307.411132812 602.356445312 c 0
 345.1796875 602.356445312 368.104492188 616.174804688 368.104492188 638.904296875 c 0
EndSplineSet
EndChar

StartChar: k
Encoding: 21 107 20
Width: 1021
VWidth: 24742
Flags: HW
LayerCount: 2
Fore
SplineSet
219.002929688 -13.65625 m 1
 219.002929688 221.8828125 219.002929688 457.420898438 219.002929688 692.959960938 c 1
 299.935546875 692.959960938 380.868164062 692.959960938 461.80078125 692.959960938 c 1
 461.80078125 567.349609375 l 2
 461.80078125 447.208007812 463.729492188 443.497070312 506.209960938 482.071289062 c 0
 559.75 530.704101562 801.717773438 539.737304688 801.717773438 493.106445312 c 0
 801.717773438 476.993164062 769.735351562 430.38671875 730.599609375 389.541992188 c 2
 659.481445312 315.274414062 l 1
 743.124023438 173.453125 l 2
 789.120117188 95.4501953125 820.467773438 21.4267578125 812.801757812 8.9755859375 c 0
 805.135742188 -3.4755859375 746.200195312 -13.65625 681.844726562 -13.65625 c 0
 574.69140625 -13.65625 562.264648438 -7.4794921875 534.65234375 59.439453125 c 0
 518.05078125 99.6494140625 494.857421875 132.53515625 483.138671875 132.53515625 c 0
 471.395507812 132.53515625 461.80078125 99.6494140625 461.80078125 59.439453125 c 0
 461.80078125 -12.044921875 459.090820312 -13.65625 340.389648438 -13.65625 c 2
 219.002929688 -13.65625 l 1
495.907226562 229.99609375 m 0
 513.143554688 229.99609375 546.981445312 186.1484375 571.053710938 132.53515625 c 0
 604.745117188 57.6083984375 628.5 35.07421875 673.885742188 35.07421875 c 0
 706.356445312 35.07421875 729.232421875 43.3017578125 724.69140625 53.3359375 c 0
 720.174804688 63.39453125 685.653320312 130.459960938 648.006835938 202.383789062 c 2
 579.525390625 333.12109375 l 1
 624.244140625 379.971679688 668.962890625 426.822265625 713.680664062 473.672851562 c 1
 654.525390625 473.892578125 l 2
 617.3671875 474.0390625 571.786132812 445.328125 532.064453125 396.841796875 c 0
 436.21484375 279.849609375 388.94921875 313.028320312 388.94921875 497.28125 c 0
 388.94921875 627.994140625 383.578125 644.229492188 340.389648438 644.229492188 c 0
 294.41796875 644.229492188 291.830078125 627.994140625 291.830078125 339.6640625 c 0
 291.830078125 51.333984375 294.41796875 35.07421875 340.389648438 35.07421875 c 0
 370.736328125 35.07421875 388.94921875 51.333984375 388.94921875 78.384765625 c 0
 388.94921875 135.025390625 455.94140625 229.99609375 495.907226562 229.99609375 c 0
EndSplineSet
EndChar

StartChar: l
Encoding: 22 108 21
Width: 645
VWidth: 25250
Flags: HW
LayerCount: 2
Fore
SplineSet
201 0 m 1
 201 235.5390625 201 471.077148438 201 706.616210938 c 1
 281.940429688 706.616210938 362.881835938 706.616210938 443.822265625 706.616210938 c 1
 443.822265625 471.077148438 443.822265625 235.5390625 443.822265625 0 c 1
 362.881835938 0 281.940429688 0 201 0 c 1
395.23828125 48.73046875 m 1
 395.23828125 251.782226562 395.23828125 454.833984375 395.23828125 657.885742188 c 1
 354.776367188 657.885742188 314.313476562 657.885742188 273.8515625 657.885742188 c 1
 273.8515625 454.833984375 273.8515625 251.782226562 273.8515625 48.73046875 c 1
 314.313476562 48.73046875 354.776367188 48.73046875 395.23828125 48.73046875 c 1
EndSplineSet
EndChar

StartChar: m
Encoding: 23 109 22
Width: 1378
VWidth: 24915
Flags: HW
LayerCount: 2
Fore
SplineSet
309 533.374023438 m 1
 688.760742188 531.298828125 l 2
 1166.08007812 528.662109375 1158.8046875 533.49609375 1158.8046875 219.287109375 c 2
 1158.8046875 0 l 1
 1077.87207031 0 996.939453125 0 916.006835938 0 c 1
 916.006835938 170.556640625 l 2
 916.006835938 388.989257812 871.963867188 393.994140625 862.491210938 176.635742188 c 2
 855.313476562 12.1826171875 l 1
 779.193359375 7.248046875 703.0625 2.32421875 626.919921875 -2.587890625 c 1
 619.717773438 163.18359375 l 2
 610.391601562 377.221679688 566.080078125 378.125 556.75390625 164.453125 c 2
 549.576171875 0 l 1
 469.383789062 0 389.192382812 0 309 0 c 1
 309 177.791015625 309 355.583007812 309 533.374023438 c 1
550.9921875 401.782226562 m 0
 647.427734375 432.495117188 673.208984375 393.45703125 673.208984375 216.674804688 c 0
 673.208984375 53.759765625 675.015625 48.73046875 733.90234375 48.73046875 c 0
 792.447265625 48.73046875 794.595703125 54.3701171875 794.595703125 207.6171875 c 0
 794.595703125 352.978515625 799.72265625 368.872070312 854.581054688 393.9453125 c 0
 952.45703125 438.696289062 988.858398438 387.231445312 988.858398438 204.125976562 c 0
 988.858398438 54.6142578125 991.153320312 48.73046875 1049.55175781 48.73046875 c 0
 1106.72949219 48.73046875 1110.24511719 56.2744140625 1110.24511719 179.1015625 c 0
 1110.24511719 432.958984375 1033.48730469 524.340820312 884.9765625 447.265625 c 0
 819.05859375 413.061523438 805.923828125 413.549804688 733.169921875 452.880859375 c 0
 658.365234375 493.286132812 649.698242188 493.432617188 591.348632812 455.078125 c 0
 514.46875 404.516601562 478.946289062 403.149414062 478.946289062 450.756835938 c 0
 478.946289062 471.069335938 457.364257812 487.3046875 430.38671875 487.3046875 c 0
 385.440429688 487.3046875 381.827148438 471.069335938 381.827148438 268.017578125 c 0
 381.827148438 64.9658203125 385.440429688 48.73046875 430.38671875 48.73046875 c 0
 472.0859375 48.73046875 478.995117188 65.087890625 479.288085938 164.453125 c 0
 479.727539062 319.091796875 499.795898438 385.473632812 550.9921875 401.782226562 c 0
EndSplineSet
EndChar

StartChar: n
Encoding: 24 110 23
Width: 1160
VWidth: 25098
Flags: HW
LayerCount: 2
Fore
SplineSet
325 533.203125 m 1
 555.37109375 532.71484375 l 2
 773.315429688 532.275390625 788.403320312 528.881835938 834.619140625 469.946289062 c 0
 874.70703125 418.798828125 883.447265625 371.118164062 883.447265625 203.80859375 c 2
 883.447265625 -0.0244140625 l 1
 803.247070312 -0.0244140625 723.046875 -0.0244140625 642.846679688 -0.0244140625 c 1
 635.668945312 164.453125 l 2
 631.73828125 254.931640625 617.578125 328.930664062 604.223632812 328.930664062 c 0
 590.869140625 328.930664062 576.708984375 254.931640625 572.75390625 164.453125 c 2
 565.576171875 0 l 1
 485.383789062 0 405.192382812 0 325 0 c 1
 325 177.734375 325 355.46875 325 533.203125 c 1
566.9921875 401.782226562 m 0
 663.427734375 432.495117188 689.208984375 393.45703125 689.208984375 216.674804688 c 0
 689.208984375 53.759765625 691.015625 48.73046875 749.90234375 48.73046875 c 0
 809.228515625 48.73046875 810.595703125 52.8076171875 810.595703125 230.908203125 c 0
 810.595703125 397.631835938 805.517578125 416.430664062 750.78125 452.416992188 c 0
 695.971679688 488.452148438 684.448242188 488.500976562 613.500976562 452.978515625 c 0
 517.236328125 404.78515625 494.946289062 404.370117188 494.946289062 450.756835938 c 0
 494.946289062 471.069335938 473.364257812 487.3046875 446.38671875 487.3046875 c 0
 401.440429688 487.3046875 397.827148438 471.069335938 397.827148438 268.017578125 c 0
 397.827148438 64.9658203125 401.440429688 48.7060546875 446.38671875 48.7060546875 c 0
 488.0859375 48.7060546875 494.995117188 65.0634765625 495.288085938 164.453125 c 0
 495.727539062 319.091796875 515.795898438 385.473632812 566.9921875 401.782226562 c 0
EndSplineSet
EndChar

StartChar: o
Encoding: 25 111 24
Width: 824
VWidth: 25099
Flags: HW
LayerCount: 2
Fore
SplineSet
195.784179688 85.9375 m 0
 116.365234375 165.625 111.067382812 180.200195312 122.981445312 286.157226562 c 0
 141.731445312 453.247070312 240.095703125 536.059570312 419.807617188 536.059570312 c 0
 532.234375 536.059570312 564.75390625 525.146484375 631.892578125 464.916992188 c 0
 702.961914062 401.147460938 710.994140625 380.590820312 709.333984375 266.333007812 c 0
 707.698242188 154.931640625 697.712890625 130.126953125 630.037109375 69.43359375 c 0
 564.485351562 10.6689453125 531.770507812 0 417 0 c 0
 294.221679688 0 273.323242188 8.10546875 195.784179688 85.9375 c 0
569.905273438 110.302734375 m 0
 678.254882812 181.54296875 673.34765625 357.739257812 560.9453125 431.640625 c 0
 525.49609375 454.956054688 453.474609375 474.0234375 400.935546875 474.0234375 c 0
 231.282226562 474.0234375 131.965820312 287.670898438 228.157226562 149.877929688 c 0
 301.375 44.9951171875 445.247070312 28.3447265625 569.905273438 110.302734375 c 0
336.04296875 144.921875 m 0
 291.90234375 172.94921875 289.875976562 323.315429688 332.942382812 375.390625 c 0
 370.881835938 421.264648438 458.772460938 426.318359375 499.934570312 384.985351562 c 0
 537.629882812 347.16796875 537.629882812 188.891601562 499.934570312 151.07421875 c 0
 465.486328125 116.50390625 385.530273438 113.500976562 336.04296875 144.921875 c 0
480.134765625 266.6015625 m 0
 479.036132812 307.8125 431.672851562 346.215820312 397.981445312 333.251953125 c 0
 351.790039062 315.478515625 346.907226562 241.284179688 389.143554688 198.901367188 c 0
 412.99609375 174.975585938 425.471679688 177.44140625 449.836914062 210.864257812 c 0
 466.70703125 234.033203125 480.354492188 259.106445312 480.134765625 266.6015625 c 0
EndSplineSet
EndChar

StartChar: r
Encoding: 26 114 25
Width: 975
VWidth: 25000
Flags: HW
LayerCount: 2
Fore
SplineSet
196 0 m 1
 196 178.133138021 196 356.266276042 196 534.399414062 c 1
 402.396484375 533.618164062 l 2
 624.076171875 532.8125 629.056640625 529.19921875 593.485351562 395.947265625 c 0
 583.744140625 359.448242188 560.35546875 341.11328125 523.563476562 341.11328125 c 0
 455.204101562 341.11328125 438.822265625 300.68359375 438.822265625 132.006835938 c 2
 438.822265625 0 l 1
 357.881510417 -0 276.940755208 0 196 0 c 1
366.1171875 127.9296875 m 0
 366.361328125 269.677734375 411.72265625 389.84375 464.994140625 389.84375 c 0
 491.5078125 389.84375 519.657226562 406.787109375 527.567382812 427.465820312 c 0
 549.61328125 485.107421875 517.118164062 499.829101562 467.411132812 454.6875 c 0
 411.991210938 404.345703125 365.970703125 402.563476562 365.970703125 450.78125 c 0
 365.970703125 471.069335938 344.388671875 487.329101562 317.411132812 487.329101562 c 0
 272.440429688 487.329101562 268.8515625 471.069335938 268.8515625 268.017578125 c 0
 268.8515625 64.9658203125 272.440429688 48.73046875 317.411132812 48.73046875 c 0
 355.985351562 48.73046875 365.995117188 65.0146484375 366.1171875 127.9296875 c 0
EndSplineSet
EndChar

StartChar: bracketleft
Encoding: 27 91 26
Width: 25233
VWidth: 26374
Flags: H
LayerCount: 2
Fore
SplineSet
0 -37 m 5
 0 255.399414062 0 547.797851562 0 840.197265625 c 5
 113.305664062 840.197265625 226.611328125 840.197265625 339.916992188 840.197265625 c 5
 339.916992188 742.736328125 l 6
 339.916992188 655.016601562 333.837890625 645.275390625 279.223632812 645.275390625 c 4
 218.505859375 645.275390625 218.505859375 645.275390625 218.505859375 401.598632812 c 4
 218.505859375 157.946289062 218.505859375 157.946289062 279.223632812 157.946289062 c 4
 333.837890625 157.946289062 339.916992188 148.205078125 339.916992188 60.4853515625 c 6
 339.916992188 -37 l 5
 226.611328125 -37 113.305664062 -37 0 -37 c 5
267.08984375 60.4853515625 m 4
 267.08984375 92.9560546875 250.87890625 109.215820312 218.505859375 109.215820312 c 4
 172.65625 109.215820312 169.946289062 125.451171875 169.946289062 401.598632812 c 4
 169.946289062 677.74609375 172.65625 694.005859375 218.505859375 694.005859375 c 4
 250.87890625 694.005859375 267.08984375 710.241210938 267.08984375 742.736328125 c 4
 267.08984375 783.336914062 250.87890625 791.466796875 169.946289062 791.466796875 c 6
 72.8271484375 791.466796875 l 5
 72.8271484375 531.5625 72.8271484375 271.659179688 72.8271484375 11.7548828125 c 5
 169.946289062 11.7548828125 l 6
 250.87890625 11.7548828125 267.08984375 19.8603515625 267.08984375 60.4853515625 c 4
EndSplineSet
EndChar

StartChar: bracketright
Encoding: 28 93 27
Width: 556
VWidth: 25327
Flags: HW
LayerCount: 2
Fore
SplineSet
50 42.4609375 m 2
 50 123.686523438 58.10546875 139.921875 98.5595703125 139.921875 c 0
 143.896484375 139.921875 147.143554688 156.157226562 147.143554688 383.57421875 c 0
 147.143554688 610.991210938 143.896484375 627.250976562 98.5595703125 627.250976562 c 0
 58.10546875 627.250976562 50 643.486328125 50 724.711914062 c 2
 50 822.172851562 l 1
 155.216796875 822.172851562 260.432617188 822.172851562 365.649414062 822.172851562 c 1
 365.649414062 529.782226562 365.649414062 237.390625 365.649414062 -55 c 1
 260.432617188 -55 155.216796875 -55 50 -55 c 1
 50 42.4609375 l 2
317.08984375 -6.26953125 m 1
 317.08984375 253.634765625 317.08984375 513.538085938 317.08984375 773.442382812 c 1
 207.836914062 773.442382812 l 2
 82.6904296875 773.442382812 54.58984375 715.922851562 160.083007812 675.6640625 c 0
 221.459960938 652.250976562 221.557617188 651.73828125 214.697265625 377.788085938 c 0
 208.10546875 114.165039062 205.688476562 103.056640625 153.198242188 95.5859375 c 0
 118.090820312 90.5810546875 98.5595703125 71.0009765625 98.5595703125 40.751953125 c 0
 98.5595703125 1.25 116.064453125 -6.26953125 207.836914062 -6.26953125 c 2
 317.08984375 -6.26953125 l 1
EndSplineSet
EndChar

StartChar: underscore
Encoding: 29 95 28
Width: 908
VWidth: 24672
Flags: HW
LayerCount: 2
Fore
SplineSet
143.043945312 48.7548828125 m 0
 143.043945312 94.384765625 159.23046875 97.4853515625 398 97.4853515625 c 0
 636.76953125 97.4853515625 652.956054688 94.384765625 652.956054688 48.7548828125 c 0
 652.956054688 3.1005859375 636.76953125 0 398 0 c 0
 159.23046875 0 143.043945312 3.1005859375 143.043945312 48.7548828125 c 0
EndSplineSet
EndChar

StartChar: W
Encoding: 30 87 29
Width: 1273
VWidth: 19677
Flags: HW
LayerCount: 2
Fore
SplineSet
278.357421875 16.9912109375 m 0
 257.061523438 82.1162109375 143.595703125 620.981445312 143.595703125 656.994140625 c 0
 143.595703125 685.62109375 171.841796875 694.436523438 263.5703125 694.436523438 c 2
 383.544921875 694.436523438 l 1
 398.290039062 625.399414062 413.036132812 556.361328125 427.78125 487.32421875 c 1
 456.374023438 560.421875 l 2
 472.099609375 600.626953125 489.762695312 647.227539062 495.625 663.978515625 c 0
 502.196289062 682.759765625 552.010742188 694.436523438 625.565429688 694.436523438 c 2
 744.848632812 694.436523438 l 1
 774.950195312 578.697265625 l 2
 806.75 456.430664062 810.526367188 457.970703125 834.708007812 603.063476562 c 0
 849.9140625 694.299804688 850.118164062 694.436523438 970.240234375 694.436523438 c 0
 1115.48242188 694.436523438 1113.76269531 707.859375 1021.75390625 292.393554688 c 2
 957 0 l 1
 873.3984375 -4.8623046875 789.795898438 -9.7236328125 706.194335938 -14.5859375 c 1
 667.702148438 118.288085938 l 2
 646.53125 191.369140625 628.153320312 265.921875 626.862304688 283.9609375 c 0
 625.5703125 302.000976562 605.944335938 245.489257812 583.248046875 158.379882812 c 2
 541.982421875 0 l 1
 415.359375 -7.375 l 2
 327.528320312 -12.490234375 285.557617188 -5.025390625 278.357421875 16.9912109375 c 0
502.249023438 127.922851562 m 0
 516.774414062 178.177734375 540.77734375 265.895507812 555.58984375 322.852539062 c 0
 604.56640625 511.182617188 659.334960938 446.083007812 740.08203125 103.555664062 c 0
 752.78125 49.6875 769.553710938 36.548828125 825.625976562 36.548828125 c 0
 878.08203125 36.548828125 898.458007812 50.140625 907.817382812 91.373046875 c 0
 957.067382812 308.337890625 1017.70214844 600.6328125 1017.70214844 621.080078125 c 0
 1017.70214844 634.623046875 990.385742188 645.704101562 957 645.704101562 c 0
 912.99609375 645.704101562 896.297851562 632.62890625 896.297851562 598.170898438 c 0
 896.297851562 490.625976562 842.26171875 304.577148438 811.026367188 304.577148438 c 0
 791.974609375 304.577148438 761.959960938 363.01953125 739.071289062 444.682617188 c 0
 717.47265625 521.741210938 695.1875 598.494140625 689.548828125 615.24609375 c 0
 683.909179688 631.998046875 651.293945312 645.704101562 617.069335938 645.704101562 c 0
 582.845703125 645.704101562 550.471679688 631.998046875 545.127929688 615.24609375 c 0
 539.784179688 598.494140625 517.96875 521.741210938 496.650390625 444.682617188 c 0
 442.987304688 250.716796875 398.638671875 260.6328125 360.438476562 475.140625 c 0
 333.033203125 629.033203125 324.51171875 645.704101562 273.250976562 645.704101562 c 0
 242.00390625 645.704101562 216.4375 636.212890625 216.4375 624.612304688 c 0
 216.4375 613.01171875 243.75390625 482.086914062 277.139648438 333.668945312 c 0
 310.525390625 185.25 337.841796875 57.681640625 337.841796875 50.1826171875 c 0
 337.841796875 42.6845703125 368.890625 36.548828125 406.83984375 36.548828125 c 0
 465.690429688 36.548828125 479.723632812 49.9892578125 502.249023438 127.922851562 c 0
EndSplineSet
EndChar

StartChar: X
Encoding: 31 88 30
Width: 1307
VWidth: 25204
Flags: HW
LayerCount: 2
Fore
SplineSet
258.62109375 40.01171875 m 0
 258.62109375 52.9609375 302.326171875 131.4140625 355.743164062 214.352539062 c 0
 409.161132812 297.291015625 452.866210938 374.846679688 452.866210938 386.69921875 c 0
 452.866210938 398.551757812 414.624023438 465.235351562 367.883789062 534.885742188 c 0
 252.288085938 707.138671875 256.201171875 723.086914062 414.060546875 723.086914062 c 0
 534.75 723.086914062 549.086914062 716.958984375 593.654296875 646.322265625 c 2
 642.086914062 569.55859375 l 1
 681.64453125 646.322265625 l 2
 718.708007812 718.249023438 729.580078125 723.086914062 854.122070312 723.086914062 c 0
 934.55078125 723.086914062 987.04296875 712.509765625 987.04296875 696.301757812 c 0
 987.04296875 681.5703125 947.873046875 605.833984375 900 528 c 0
 803.377929688 370.909179688 802.873046875 375.203125 942.075195312 170.45703125 c 0
 980.161132812 114.4375 1011.32324219 56.8720703125 1011.32324219 42.53515625 c 0
 1011.32324219 27.033203125 954.513671875 16.4677734375 871.16015625 16.4677734375 c 0
 735.272460938 16.4677734375 729.569335938 19.12890625 684.168945312 103.73046875 c 2
 637.338867188 190.993164062 l 1
 587.59375 103.96875 l 2
 539.663085938 20.1171875 532.758789062 16.9365234375 398.234375 16.7060546875 c 0
 321.447265625 16.5810546875 258.62109375 27.0625 258.62109375 40.01171875 c 0
537.848632812 162.665039062 m 0
 571.5703125 216.270507812 615.275390625 260.12890625 634.971679688 260.12890625 c 0
 654.668945312 260.12890625 698.374023438 216.270507812 732.094726562 162.665039062 c 0
 777.09375 91.1318359375 809.641601562 65.2001953125 854.426757812 65.2001953125 c 0
 913.508789062 65.2001953125 914.307617188 67.3271484375 879.553710938 132.20703125 c 0
 859.8125 169.060546875 821.361328125 232.108398438 794.107421875 272.3125 c 0
 728.537109375 369.041015625 731.180664062 398.48828125 817.077148438 528.157226562 c 0
 904.553710938 660.2109375 906.161132812 674.354492188 833.688476562 674.354492188 c 0
 793.37109375 674.354492188 762.010742188 646.772460938 722.872070312 576.889648438 c 0
 692.849609375 523.284179688 652.817382812 479.424804688 633.912109375 479.424804688 c 0
 615.005859375 479.424804688 577.241210938 523.284179688 549.989257812 576.889648438 c 0
 512.299804688 651.02734375 486.030273438 674.354492188 440.232421875 674.354492188 c 0
 407.118164062 674.354492188 380.024414062 669.252929688 380.024414062 663.017578125 c 0
 380.024414062 656.782226562 412.803710938 599.811523438 452.866210938 536.416992188 c 0
 538.875 400.318359375 541.573242188 369.287109375 475.8359375 272.3125 c 0
 448.58203125 232.108398438 410.131835938 169.060546875 390.390625 132.20703125 c 0
 355.63671875 67.328125 356.434570312 65.2001953125 415.517578125 65.2001953125 c 0
 460.302734375 65.2001953125 492.850585938 91.1318359375 537.848632812 162.665039062 c 0
EndSplineSet
EndChar

StartChar: Y
Encoding: 32 89 31
Width: 998
VWidth: 25198
Flags: HW
LayerCount: 2
Fore
SplineSet
344 147.297851562 m 6
 344 283.73828125 335.051757812 307.903320312 222.596679688 475.140625 c 4
 155.82421875 574.44140625 101.193359375 667.146484375 101.193359375 681.153320312 c 4
 101.193359375 695.796875 158.296875 706.620117188 235.555664062 706.620117188 c 4
 363.375 706.620117188 372.360351562 702.466796875 420.059570312 621.337890625 c 4
 447.63671875 574.432617188 473.504882812 536.056640625 477.543945312 536.056640625 c 4
 481.583007812 536.056640625 507.451171875 574.432617188 535.028320312 621.337890625 c 4
 582.727539062 702.466796875 591.712890625 706.620117188 719.532226562 706.620117188 c 4
 796.791015625 706.620117188 853.895507812 695.796875 853.895507812 681.153320312 c 4
 853.895507812 667.146484375 799.263671875 574.44140625 732.491210938 475.140625 c 4
 620.037109375 307.903320312 611.087890625 283.73828125 611.087890625 147.297851562 c 6
 611.087890625 0 l 5
 522.05859375 0 433.029296875 0 344 0 c 5
 344 147.297851562 l 6
538.24609375 177.090820312 m 4
 538.24609375 270.555664062 553.516601562 328.512695312 594.422851562 390.294921875 c 4
 625.319335938 436.959960938 675.37890625 516.258789062 705.666015625 566.514648438 c 6
 760.733398438 657.887695312 l 5
 699.07421875 657.887695312 l 6
 651.670898438 657.887695312 622.611328125 632.537109375 573.383789062 548.239257812 c 4
 538.166015625 487.93359375 495.038085938 438.591796875 477.543945312 438.591796875 c 4
 460.05078125 438.591796875 416.922851562 487.93359375 381.705078125 548.239257812 c 4
 332.4765625 632.537109375 303.416992188 657.887695312 256.013671875 657.887695312 c 6
 194.35546875 657.887695312 l 5
 249.422851562 566.514648438 l 6
 279.708984375 516.258789062 329.768554688 436.959960938 360.666015625 390.294921875 c 4
 401.571289062 328.512695312 416.842773438 270.555664062 416.842773438 177.090820312 c 4
 416.842773438 56.419921875 420.477539062 48.732421875 477.543945312 48.732421875 c 4
 534.610351562 48.732421875 538.24609375 56.419921875 538.24609375 177.090820312 c 4
EndSplineSet
EndChar

StartChar: Z
Encoding: 33 90 32
Width: 1044
VWidth: 25169
Flags: HW
LayerCount: 2
Fore
SplineSet
144.139648438 103.89453125 m 0
 144.139648438 158.889648438 181.328125 213.95703125 305.948242188 343.495117188 c 2
 467.756835938 511.689453125 l 1
 376.071289062 511.689453125 284.38671875 511.689453125 192.701171875 511.689453125 c 1
 192.701171875 576.666015625 192.701171875 641.642578125 192.701171875 706.619140625 c 1
 496.97265625 706.619140625 l 2
 745.23828125 706.619140625 803.8203125 699.881835938 815.240234375 670.015625 c 0
 841.596679688 601.090820312 801.170898438 523.749023438 652.883789062 359.401367188 c 2
 504.485351562 194.928710938 l 1
 610.990234375 194.928710938 717.495117188 194.928710938 824 194.928710938 c 1
 824 129.952148438 824 64.9765625 824 0 c 1
 500.2578125 0 l 2
 322.198242188 0 169.23046875 7.3095703125 160.327148438 16.244140625 c 0
 151.423828125 25.177734375 144.139648438 64.62109375 144.139648438 103.89453125 c 0
751.158203125 97.46484375 m 0
 751.158203125 141.555664062 734.970703125 146.197265625 581.193359375 146.197265625 c 0
 468.626953125 146.197265625 411.228515625 155.724609375 411.228515625 174.408203125 c 0
 411.228515625 189.923828125 487.711914062 287.622070312 581.193359375 391.515625 c 0
 674.673828125 495.408203125 751.158203125 597.84375 751.158203125 619.149414062 c 0
 751.158203125 652.095703125 713.044921875 657.88671875 496.2109375 657.88671875 c 0
 285.77734375 657.88671875 241.262695312 651.505859375 241.262695312 621.337890625 c 0
 241.262695312 592.889648438 273.721679688 584.788085938 387.708984375 584.788085938 c 0
 597.251953125 584.788085938 597.490234375 550.138671875 389.486328125 326.626953125 c 0
 294.608398438 224.674804688 216.981445312 120.44140625 216.981445312 94.99609375 c 0
 216.981445312 52.3583984375 237.918945312 48.732421875 484.069335938 48.732421875 c 0
 734.970703125 48.732421875 751.157226562 51.685546875 751.158203125 97.46484375 c 0
EndSplineSet
EndChar

StartChar: backslash
Encoding: 34 92 33
Width: 415
VWidth: 25245
Flags: HW
LayerCount: 2
Fore
SplineSet
117.829101562 322.852539062 m 0
 74.6611328125 500.420898438 39.560546875 659.41015625 39.8271484375 676.162109375 c 0
 40.1025390625 693.35546875 70.7265625 706.620117188 110.149414062 706.620117188 c 0
 179.291015625 706.620117188 180.740234375 703.596679688 255.833984375 402.682617188 c 0
 351.103515625 20.9189453125 351.52734375 0 264 0 c 0
 197.297851562 0 195.1796875 4.6787109375 117.829101562 322.852539062 c 0
196.044921875 375.575195312 m 0
 158.513671875 529.999023438 123.28515625 651.80859375 117.758789062 646.263671875 c 0
 112.233398438 640.717773438 138.418945312 509.833984375 175.950195312 355.41015625 c 0
 213.481445312 200.987304688 248.709960938 79.177734375 254.236328125 84.72265625 c 0
 259.76171875 90.2685546875 233.576171875 221.15234375 196.044921875 375.575195312 c 0
EndSplineSet
EndChar

StartChar: a
Encoding: 35 97 34
Width: 808
VWidth: 24899
Flags: HW
LayerCount: 2
Fore
SplineSet
131.109375 264.849609375 m 0
 189.198242188 323.141601562 191.658203125 337.948242188 143.249023438 337.948242188 c 0
 84.369140625 337.948242188 101.484375 427.657226562 170.805664062 482.376953125 c 0
 258.821289062 551.853515625 512.25390625 554.201171875 595.825195312 486.314453125 c 0
 646.994140625 444.747070312 654.05078125 416.15234375 661.572265625 219.875 c 2
 670 0 l 1
 423.251953125 0 l 2
 211.650390625 0 169.8125 6.71484375 129.526367188 47.1435546875 c 0
 68.890625 107.999023438 69.58203125 203.099609375 131.109375 264.849609375 c 0
343.571289062 92.57421875 m 0
 285.948242188 94.0537109375 276.798828125 104.30078125 276.798828125 167.384765625 c 0
 276.798828125 208.59375 290.041992188 241.323242188 307.150390625 242.407226562 c 0
 326.450195312 243.631835938 327.788085938 248.358398438 310.828125 255.390625 c 0
 296.158203125 261.473632812 255.184570312 255.396484375 219.775390625 241.88671875 c 0
 135.701171875 209.809570312 129.625976562 103.110351562 210.02734375 70.6796875 c 0
 277.48828125 43.46875 300.178710938 43.3544921875 361.78125 69.919921875 c 0
 404.814453125 88.4765625 402.740234375 91.056640625 343.571289062 92.57421875 c 0
592.448242188 211.459960938 m 0
 592.448242188 433.452148438 564.760742188 468.8828125 389.916015625 470.6171875 c 0
 287.912109375 471.627929688 243.599609375 460.678710938 210.942382812 426.38671875 c 0
 168.885742188 382.227539062 169.80078125 381.326171875 240.377929688 397.405273438 c 0
 421.495117188 438.666992188 437.918945312 438.919921875 469.331054688 400.939453125 c 0
 508.465820312 353.6171875 471.345703125 297.634765625 390.370117188 281.814453125 c 0
 355.555664062 275.012695312 365.348632812 270.353515625 419.047851562 268.16796875 c 0
 495.357421875 265.0625 499.528320312 260.549804688 484.022460938 197.842773438 c 0
 474.91015625 160.989257812 456.360351562 126.853515625 442.796875 121.986328125 c 0
 415.7890625 112.294921875 513.283203125 51.78515625 562.09765625 47.943359375 c 0
 583.641601562 46.248046875 592.448242188 93.705078125 592.448242188 211.459960938 c 0
410.172851562 191.47265625 m 0
 418.678710938 205.284179688 408.935546875 209.369140625 387.325195312 201.048828125 c 0
 345.260742188 184.849609375 337.563476562 167.384765625 372.489257812 167.384765625 c 0
 385.057617188 167.384765625 402.01171875 178.224609375 410.172851562 191.47265625 c 0
EndSplineSet
EndChar

StartChar: b
Encoding: 36 98 35
Width: 930
VWidth: 25153
Flags: HW
LayerCount: 2
Fore
SplineSet
170 704.959960938 m 1
 250.935546875 704.959960938 331.872070312 704.959960938 412.807617188 704.959960938 c 1
 412.807617188 619.678710938 l 2
 412.807617188 536.923828125 415.587890625 534.396484375 506.657226562 534.396484375 c 0
 699.37109375 534.396484375 804.36328125 340.0625 720.48828125 138.612304688 c 0
 671.001953125 19.7587890625 626.516601562 1.69921875 380.993164062 0.78515625 c 2
 170 0 l 1
 170 234.987304688 170 469.971679688 170 704.959960938 c 1
456.375 78.8291015625 m 0
 523.7734375 40.0107421875 531.979492188 40 590.750976562 78.62890625 c 0
 662.9140625 126.077148438 698.784179688 263.57421875 664.513671875 361.36328125 c 0
 634.857421875 445.986328125 528.692382812 497.439453125 459.936523438 460.512695312 c 0
 378.68359375 416.884765625 339.965820312 448.341796875 339.965820312 557.993164062 c 0
 339.965820312 639.978515625 331.935546875 656.22265625 291.404296875 656.22265625 c 0
 245.43359375 656.22265625 242.842773438 639.978515625 242.842773438 351.645507812 c 0
 242.842773438 63.3125 245.43359375 47.068359375 291.404296875 47.068359375 c 0
 318.384765625 47.068359375 339.965820312 63.3125 339.965820312 83.6171875 c 0
 339.965820312 130.907226562 367.954101562 129.754882812 456.375 78.8291015625 c 0
374.271484375 180.909179688 m 0
 298.569335938 296.8515625 397.7734375 448.436523438 509.930664062 388.19921875 c 0
 545.29296875 369.208984375 558.4921875 337.181640625 558.4921875 270.384765625 c 0
 558.4921875 118.068359375 449.77734375 65.2666015625 374.271484375 180.909179688 c 0
497.790039062 266.368164062 m 0
 497.790039062 297.638671875 484.139648438 327.790039062 467.454101562 333.372070312 c 0
 430.229492188 345.822265625 402.267578125 280.348632812 422.364257812 227.79296875 c 0
 443.724609375 171.93359375 497.790039062 199.584960938 497.790039062 266.368164062 c 0
EndSplineSet
EndChar

StartChar: c
Encoding: 37 99 36
Width: 896
VWidth: 25002
Flags: HW
LayerCount: 2
Fore
SplineSet
288.21484375 52.8388671875 m 0
 212.92578125 96.5 166.078125 183.247070312 165 281 c 0
 163.08203125 454.819335938 274.209960938 556.266601562 466.530273438 556.266601562 c 0
 637.374023438 556.266601562 746.875 485.352539062 746.875 374.71484375 c 0
 746.875 332.60546875 583.548828125 308.032226562 529.364257812 341.989257812 c 0
 437.711914062 399.4296875 357.573242188 286.59375 440.794921875 217.282226562 c 0
 466.920898438 195.5234375 483.483398438 197.961914062 513.384765625 227.967773438 c 0
 538.63671875 253.30859375 583.913085938 264.206054688 643.4296875 259.266601562 c 0
 720.848632812 252.841796875 735.834960938 242.23046875 741.956054688 189.501953125 c 0
 753.5234375 89.849609375 672.000976562 35.8017578125 496.624023438 26.857421875 c 0
 400.076171875 21.93359375 325.471679688 31.234375 288.21484375 52.8388671875 c 0
674.033203125 165.1640625 m 0
 674.033203125 197.771484375 584.713867188 198.788085938 564.76953125 166.40625 c 0
 547.314453125 138.060546875 432.161132812 134.440429688 390.66015625 160.931640625 c 0
 338.075195312 194.5 326.110351562 308.912109375 368.409179688 373.696289062 c 0
 409.439453125 436.538085938 534.232421875 459.653320312 564.76953125 410.068359375 c 0
 589.217773438 370.374023438 674.560546875 380.341796875 658.984375 421.072265625 c 0
 640.178710938 470.25390625 490.592773438 515.499023438 411.7265625 495.860351562 c 0
 152.651367188 431.346679688 194.17578125 82.787109375 462.358398438 70.865234375 c 0
 486.15625 69.810546875 543.51953125 84.8291015625 589.833007812 104.247070312 c 0
 636.143554688 123.666992188 674.033203125 151.079101562 674.033203125 165.1640625 c 0
EndSplineSet
EndChar

StartChar: d
Encoding: 38 100 37
Width: 986
VWidth: 25262
Flags: HW
LayerCount: 2
Fore
SplineSet
247.520507812 51.642578125 m 0
 200.071289062 102.329101562 189.54296875 139.407226562 189.54296875 255.845703125 c 0
 189.54296875 374.064453125 199.806640625 409.079101562 250.245117188 462.961914062 c 0
 300.974609375 517.153320312 327.90234375 526.455078125 414.139648438 519.573242188 c 2
 517.333007812 511.338867188 l 1
 517.333007812 573.26171875 517.333007812 635.184570312 517.333007812 697.107421875 c 1
 594.221679688 692.15625 671.111328125 687.205078125 748 682.25390625 c 1
 748 454.8359375 748 227.41796875 748 0 c 1
 526.749023438 -5.14453125 l 2
 317.954101562 -9.9990234375 302.234375 -6.8017578125 247.520507812 51.642578125 c 0
590.174804688 73.0986328125 m 0
 590.174804688 52.7939453125 611.7578125 36.5498046875 638.736328125 36.5498046875 c 0
 684.709960938 36.5498046875 687.297851562 52.7939453125 687.297851562 341.126953125 c 2
 687.297851562 645.705078125 l 1
 626.595703125 645.705078125 l 2
 570.614257812 645.705078125 565.89453125 636.959960938 565.89453125 533.21484375 c 0
 565.89453125 411.415039062 576.201171875 415.950195312 415.51171875 467.033203125 c 0
 390.833007812 474.87890625 349.5703125 455.19921875 312.318359375 417.815429688 c 0
 226.999023438 332.1953125 225.830078125 180.666015625 309.84375 96.357421875 c 0
 378.4921875 27.4658203125 416.302734375 22.1982421875 482.340820312 72.32421875 c 0
 543.553710938 118.784179688 590.174804688 119.119140625 590.174804688 73.0986328125 c 0
385.166015625 163.801757812 m 0
 335.338867188 235.19140625 337.470703125 286.911132812 393.079101562 355.826171875 c 0
 433.420898438 405.822265625 446.249023438 409.061523438 502.341796875 383.4140625 c 0
 554.75390625 359.44921875 565.89453125 338.03125 565.89453125 261.241210938 c 0
 565.89453125 111.635742188 461.038085938 55.1015625 385.166015625 163.801757812 c 0
505.328125 207.331054688 m 0
 525.126953125 239.48046875 496.470703125 328.943359375 466.375 328.943359375 c 0
 434.227539062 328.943359375 411.998046875 263.739257812 428.9921875 219.295898438 c 0
 445.041992188 177.325195312 483.16796875 171.349609375 505.328125 207.331054688 c 0
EndSplineSet
EndChar

StartChar: asciicircum
Encoding: 39 94 38
Width: 1008
VWidth: 25268
Flags: HW
LayerCount: 2
Fore
SplineSet
258.252929688 382.668945312 m 0
 250.498046875 395.26171875 285.028320312 488.461914062 334.986328125 589.782226562 c 0
 424.501953125 771.32421875 427.174804688 774 519 774 c 0
 611.454101562 774 612.833007812 772.564453125 695.78125 589.903320312 c 0
 741.760742188 488.650390625 779.381835938 395.450195312 779.381835938 382.791015625 c 0
 779.381835938 370.131835938 732.323242188 359.774414062 674.806640625 359.774414062 c 0
 582.982421875 359.774414062 567.177734375 367.9453125 545.186523438 426.78125 c 2
 520.141601562 493.7890625 l 1
 488.0390625 426.78125 l 2
 461.403320312 371.180664062 440.313476562 359.774414062 364.145507812 359.774414062 c 0
 313.66015625 359.774414062 266.0078125 370.077148438 258.252929688 382.668945312 c 0
445.016601562 510.541015625 m 0
 463.657226562 566.659179688 492.067382812 616.975585938 508.151367188 622.35546875 c 0
 524.327148438 627.766601562 559.419921875 582.170898438 586.682617188 520.322265625 c 0
 613.791992188 458.82421875 651.747070312 408.506835938 671.028320312 408.506835938 c 0
 697.19921875 408.506835938 686.357421875 448.658203125 628.260742188 566.887695312 c 0
 585.456054688 653.997070312 536.544921875 725.267578125 519.573242188 725.267578125 c 0
 502.600585938 725.267578125 455.77734375 659.791992188 415.520507812 579.764648438 c 0
 331.46484375 412.6640625 330.5234375 408.506835938 376.7265625 408.506835938 c 0
 395.646484375 408.506835938 426.375976562 454.421875 445.016601562 510.541015625 c 0
EndSplineSet
EndChar

StartChar: grave
Encoding: 40 96 39
Width: 710
VWidth: 25182
Flags: HW
LayerCount: 2
Fore
SplineSet
280.985351562 658.994140625 m 0
 200.541015625 744.907226562 211.72265625 797.51953125 310.379882812 797.51953125 c 0
 394.876953125 797.51953125 471 722.885742188 471 640 c 0
 471 580.649414062 342.2890625 593.515625 280.985351562 658.994140625 c 0
382.645507812 687.875976562 m 0
 374.955078125 707.993164062 357.572265625 724.423828125 344.022460938 724.423828125 c 0
 329.813476562 724.423828125 332.157226562 708.9453125 349.588867188 687.875976562 c 0
 366.21484375 667.783203125 383.59765625 651.328125 388.211914062 651.328125 c 0
 392.850585938 651.328125 390.3359375 667.783203125 382.645507812 687.875976562 c 0
EndSplineSet
EndChar

StartChar: Q
Encoding: 41 81 40
Width: 823
VWidth: 25959
Flags: HW
LayerCount: 2
Fore
SplineSet
606.00390625 -13.7294921875 m 0
 579.709960938 1.5537109375 501.0234375 11.4169921875 431.150390625 8.169921875 c 0
 184.348632812 -3.3046875 52 119.15625 52 359 c 0
 52 590.4453125 175.828125 712.3203125 411.008789062 712.3203125 c 0
 671.946289062 712.3203125 775.73046875 590.93359375 757.56640625 306.973632812 c 0
 751.21875 207.974609375 756.663085938 119.3515625 769.87109375 106.094726562 c 0
 782.859375 93.033203125 786.448242188 54.1416015625 777.830078125 19.6689453125 c 0
 760.569335938 -49.3251953125 690.549804688 -62.9482421875 606.00390625 -13.7294921875 c 0
714.5 45.6455078125 m 0
 714.5 54.21484375 696.189453125 74.673828125 673.77734375 91.12890625 c 0
 635.764648438 119.034179688 635.935546875 127.115234375 676.51171875 212.930664062 c 0
 793.455078125 460.220703125 582.932617188 719.3515625 327.512695312 642.544921875 c 0
 183.34765625 599.209960938 119.626953125 512.466796875 119.626953125 359.610351562 c 0
 119.626953125 264.56640625 132.541992188 215.567382812 168.186523438 175.455078125 c 0
 243.650390625 90.54296875 363.279296875 49.7470703125 483.689453125 67.8623046875 c 0
 544.504882812 77.017578125 607.541992188 72.6962890625 633.420898438 57.6083984375 c 0
 684.788085938 27.6279296875 714.5 23.2578125 714.5 45.6455078125 c 0
293.357421875 196.451171875 m 0
 266.990234375 225.69921875 253.171875 283.853515625 253.171875 365.640625 c 0
 253.171875 466.788085938 263.328125 497.403320312 307.126953125 528.189453125 c 0
 336.814453125 549.0390625 383.567382812 566.104492188 411.008789062 566.104492188 c 0
 438.450195312 566.104492188 485.178710938 549.0390625 514.866210938 528.189453125 c 0
 559.397460938 496.890625 568.821289062 467.056640625 568.821289062 357.6328125 c 0
 568.821289062 241.2265625 562.864257812 224.991210938 520.26171875 224.991210938 c 0
 493.284179688 224.991210938 471.702148438 208.755859375 471.702148438 188.443359375 c 0
 471.702148438 135.806640625 342.8203125 141.592773438 293.357421875 196.451171875 c 0
455.784179688 313.39453125 m 0
 527.732421875 295.279296875 537.3515625 322.891601562 496.580078125 430.508789062 c 0
 441.84375 574.991210938 273.240234375 464.053710938 312.009765625 309.073242188 c 0
 327.146484375 248.526367188 330.90625 246.768554688 359.861328125 286.514648438 c 0
 382.737304688 317.88671875 408.860351562 325.2109375 455.784179688 313.39453125 c 0
EndSplineSet
EndChar

StartChar: K
Encoding: 42 75 41
Width: 1100
Flags: HW
LayerCount: 2
Fore
SplineSet
151 0 m 1
 151 235.546875 151 471.09375 151 706.640625 c 1
 231.940429688 706.640625 312.881835938 706.640625 393.822265625 706.640625 c 1
 394.424804688 645.719726562 395.026367188 584.797851562 395.62890625 523.876953125 c 1
 473.631835938 615.258789062 l 2
 548.314453125 702.758789062 558.080078125 706.640625 703.392578125 706.640625 c 0
 886.424804688 706.640625 894.823242188 682.299804688 758.03125 548.2421875 c 0
 704.61328125 495.8984375 660.912109375 442.993164062 660.912109375 430.6640625 c 0
 660.912109375 418.310546875 710.08203125 326.953125 770.165039062 227.612304688 c 0
 830.248046875 128.295898438 879.41796875 36.4501953125 879.41796875 23.5107421875 c 0
 879.41796875 10.595703125 810.594726562 0 726.439453125 0 c 2
 573.4609375 0 l 1
 519.26171875 111.962890625 l 2
 474.022460938 205.395507812 459.154296875 219.018554688 429.442382812 194.262695312 c 0
 409.837890625 177.954101562 393.822265625 127.563476562 393.822265625 82.2998046875 c 2
 393.822265625 0 l 1
 312.881835938 0 231.940429688 0 151 0 c 1
346.068359375 127.9296875 m 0
 346.922851562 212.5 416.209960938 316.772460938 471.556640625 316.772460938 c 0
 490.013671875 316.772460938 534.569335938 256.469726562 570.604492188 182.763671875 c 0
 628.368164062 64.55078125 644.701171875 48.7548828125 709.203125 48.7548828125 c 0
 749.413085938 48.7548828125 782.298828125 54.0283203125 782.298828125 60.498046875 c 0
 782.298828125 66.9677734375 738.59765625 143.920898438 685.1796875 231.494140625 c 0
 631.76171875 319.067382812 588.060546875 409.252929688 588.060546875 431.909179688 c 0
 588.060546875 454.565429688 628.514648438 514.672851562 677.977539062 565.502929688 c 2
 767.870117188 657.91015625 l 1
 683.568359375 657.91015625 l 2
 611.375976562 657.91015625 585.399414062 640.356445312 503.075195312 536.059570312 c 0
 450.194335938 469.067382812 393.041015625 414.233398438 376.073242188 414.233398438 c 0
 355.272460938 414.233398438 345.23828125 453.833007812 345.23828125 536.059570312 c 0
 345.23828125 655.200195312 343.626953125 657.91015625 272.411132812 657.91015625 c 2
 199.559570312 657.91015625 l 1
 199.559570312 454.858398438 199.559570312 251.806640625 199.559570312 48.7548828125 c 1
 272.411132812 48.7548828125 l 2
 338.231445312 48.7548828125 345.3359375 56.3720703125 346.068359375 127.9296875 c 0
EndSplineSet
EndChar

StartChar: L
Encoding: 43 76 42
Width: 1630
Flags: HW
LayerCount: 2
Fore
SplineSet
345.486328125 55.3291015625 m 0
 338.821289062 72.78515625 336.428710938 229.03515625 340.188476562 402.545898438 c 2
 347 718 l 1
 431.986328125 722.915039062 516.971679688 727.830078125 601.956054688 732.74609375 c 1
 601.956054688 569.45703125 601.956054688 406.166992188 601.956054688 242.877929688 c 1
 707.172851562 242.877929688 812.388671875 242.877929688 917.60546875 242.877929688 c 1
 917.60546875 169.774414062 917.60546875 96.669921875 917.60546875 23.56640625 c 1
 637.625 23.56640625 l 2
 429.958984375 23.56640625 354.495117188 31.76953125 345.486328125 55.3291015625 c 0
844.778320312 119.831054688 m 0
 844.778320312 160.578125 824.905273438 168.366210938 705.154296875 174.640625 c 2
 565.530273438 181.96484375 l 1
 560.927734375 348.47265625 556.313476562 514.96875 551.6875 681.452148438 c 1
 503.697265625 681.452148438 455.708007812 681.452148438 407.717773438 681.452148438 c 1
 407.717773438 478.400390625 407.717773438 275.348632812 407.717773438 72.296875 c 1
 626.248046875 72.296875 l 2
 826.711914062 72.296875 844.778320312 76.2275390625 844.778320312 119.831054688 c 0
EndSplineSet
EndChar

StartChar: M
Encoding: 44 77 43
Width: 1000
VWidth: 25246
Flags: HW
LayerCount: 2
Fore
SplineSet
144.0234375 31.888671875 m 2
 137.041015625 50.1259765625 134.428710938 207.010742188 138.188476562 380.521484375 c 2
 145 696 l 1
 305.375976562 703.104492188 l 1
 465.727539062 710.233398438 l 1
 497.880859375 558.133789062 l 1
 530.05859375 406.05859375 l 1
 568.315429688 551.029296875 l 1
 606.596679688 696 l 1
 764.287109375 696 l 1
 922.001953125 696 l 1
 922.001953125 354.862304688 l 1
 922.001953125 13.724609375 l 1
 818.803710938 6.25390625 l 1
 715.60546875 -1.2412109375 l 1
 713.45703125 152.4453125 l 1
 711.30859375 306.131835938 l 1
 675.37109375 153.836914062 l 1
 639.409179688 1.5419921875 l 1
 532.915039062 1.5419921875 l 2
 429.326171875 1.5419921875 425.932617188 4.0322265625 408.037109375 92.923828125 c 2
 389.62890625 184.305664062 l 1
 376.591796875 99.02734375 l 2
 364.262695312 18.4853515625 357.768554688 13.3095703125 260.112304688 6.2294921875 c 0
 189.750976562 1.126953125 152.641601562 9.330078125 144.0234375 31.888671875 c 2
 144.0234375 31.888671875 l 2
302.836914062 281.766601562 m 0
 302.836914062 468.55859375 309.672851562 513.236328125 338.310546875 513.236328125 c 0
 373.100585938 513.236328125 383.305664062 485.453125 454.66796875 196.48828125 c 0
 479.619140625 95.4384765625 499.614257812 60.7216796875 535.942382812 55.3505859375 c 0
 578.032226562 49.125 591.215820312 77.689453125 639.995117188 280.741210938 c 0
 677.71484375 437.723632812 706.962890625 513.236328125 730.009765625 513.236328125 c 0
 756.962890625 513.236328125 764.165039062 464.45703125 764.165039062 281.766601562 c 0
 764.165039062 66.5322265625 767.583007812 50.2724609375 812.724609375 50.2724609375 c 0
 858.696289062 50.2724609375 861.284179688 66.5322265625 861.284179688 354.862304688 c 2
 861.284179688 659.427734375 l 1
 765.092773438 659.427734375 l 2
 674.321289062 659.427734375 667.583007812 654.30078125 645.341796875 568.0703125 c 0
 632.353515625 517.801757812 609.672851562 430.08203125 594.90234375 373.1484375 c 0
 553.911132812 215.067382812 509.135742188 242.606445312 456.23046875 458.426757812 c 2
 409.94140625 647.245117188 l 1
 307.817382812 654.740234375 l 1
 205.717773438 662.235351562 l 1
 205.717773438 356.25390625 l 2
 205.717773438 66.5322265625 208.28125 50.2724609375 254.27734375 50.2724609375 c 0
 299.418945312 50.2724609375 302.836914062 66.5322265625 302.836914062 281.766601562 c 0
EndSplineSet
EndChar

StartChar: N
Encoding: 45 78 44
Width: 888
VWidth: 25070
Flags: HW
LayerCount: 2
Fore
SplineSet
120.141601562 353.3203125 m 1
 120.141601562 706.616210938 l 1
 239.013671875 706.616210938 l 2
 355.834960938 706.616210938 359.27734375 704.443359375 439.331054688 578.90625 c 2
 520.776367188 451.196289062 l 1
 528.100585938 578.90625 l 1
 535.44921875 706.616210938 l 1
 655.56640625 706.616210938 l 1
 775.708007812 706.616210938 l 1
 775.708007812 353.3203125 l 1
 775.708007812 0 l 1
 656.8359375 0 l 2
 540.014648438 0 536.572265625 2.197265625 456.518554688 127.709960938 c 2
 375.073242188 255.444335938 l 1
 367.749023438 127.709960938 l 1
 360.400390625 0 l 1
 240.258789062 0 l 1
 120.141601562 0 l 1
 120.141601562 353.3203125 l 1
290.087890625 219.311523438 m 0
 290.087890625 449.145507812 336.645507812 449.145507812 484.350585938 219.311523438 c 0
 575.854492188 76.904296875 604.467773438 49.21875 660.375976562 48.9990234375 c 2
 727.1484375 48.73046875 l 1
 727.1484375 353.3203125 l 1
 727.1484375 657.885742188 l 1
 666.455078125 657.885742188 l 2
 607.470703125 657.885742188 605.737304688 653.02734375 605.737304688 487.329101562 c 0
 605.737304688 257.495117188 559.1796875 257.495117188 411.499023438 487.329101562 c 0
 319.995117188 629.736328125 291.381835938 657.421875 235.473632812 657.641601562 c 2
 168.701171875 657.885742188 l 1
 168.701171875 353.3203125 l 1
 168.701171875 48.73046875 l 1
 229.39453125 48.73046875 l 2
 288.354492188 48.73046875 290.087890625 53.61328125 290.087890625 219.311523438 c 0
EndSplineSet
EndChar

StartChar: O
Encoding: 46 79 45
Width: 939
VWidth: 25129
Flags: HW
LayerCount: 2
Fore
SplineSet
123.55859375 155.389648438 m 0
 72.5087890625 254.461914062 71.80078125 456.903320312 122.19140625 554.657226562 c 0
 226.634765625 757.342773438 655.78515625 761.883789062 759.081054688 561.395507812 c 0
 805.223632812 471.869140625 804.393554688 239.227539062 757.616210938 148.431640625 c 0
 737.352539062 109.125 688.719726562 60.3212890625 649.559570312 40.0087890625 c 0
 558.788085938 -7.0859375 317.650390625 -6.4267578125 230.223632812 41.1806640625 c 0
 193.67578125 61.078125 145.677734375 112.469726562 123.55859375 155.389648438 c 0
660.912109375 150.702148438 m 1
 723.924804688 213.495117188 733.739257812 241.034179688 733.739257812 354.852539062 c 0
 733.739257812 460.174804688 722.118164062 498.846679688 675.536132812 548.602539062 c 0
 548.119140625 684.7109375 337.108398438 685.223632812 210.252929688 549.725585938 c 0
 162.669921875 498.895507812 151 460.736328125 151 356 c 0
 151 245.379882812 161.668945312 214.374023438 221.1171875 152.09375 c 0
 301.09765625 68.3291015625 353.514648438 51.849609375 490.94140625 67.2548828125 c 0
 556.590820312 74.603515625 611.64453125 101.629882812 660.912109375 150.702148438 c 1
 660.912109375 150.702148438 l 1
324.73046875 193.79296875 m 0
 298.36328125 223.041015625 284.544921875 281.219726562 284.544921875 362.982421875 c 0
 284.544921875 464.129882812 294.701171875 494.745117188 338.524414062 525.53125 c 0
 368.1875 546.405273438 414.940429688 563.470703125 442.381835938 563.470703125 c 0
 469.823242188 563.470703125 516.551757812 546.405273438 546.239257812 525.53125 c 0
 618.260742188 474.896484375 624.608398438 252.044921875 555.78515625 189.569335938 c 0
 496.849609375 136.029296875 374.803710938 138.275390625 324.73046875 193.79296875 c 0
530.1015625 289.349609375 m 0
 570.04296875 393.036132812 530.4921875 478.192382812 442.381835938 478.192382812 c 0
 386.327148438 478.192382812 365.6484375 463.788085938 347.557617188 412.15234375 c 0
 292.870117188 256.09765625 471.092773438 136.17578125 530.1015625 289.349609375 c 0
EndSplineSet
EndChar

StartChar: P
Encoding: 47 80 46
Width: 938
VWidth: 25062
Flags: HW
LayerCount: 2
Fore
SplineSet
171.768554688 39.0078125 m 0
 165.103515625 56.48828125 162.7109375 212.73828125 166.470703125 386.249023438 c 2
 173.306640625 701.703125 l 1
 405.704101562 708.63671875 l 2
 611.392578125 714.764648438 645.596679688 709.637695312 703.140625 664.227539062 c 0
 758.096679688 620.84375 768.1796875 594.0859375 768.1796875 491.717773438 c 0
 768.1796875 326.947265625 695.71875 250.946289062 538.614257812 250.946289062 c 2
 428.23828125 250.946289062 l 1
 428.23828125 169.720703125 428.23828125 88.4951171875 428.23828125 7.26953125 c 1
 306.0703125 7.26953125 l 2
 228.091796875 7.26953125 179.532226562 18.744140625 171.768554688 39.0078125 c 0
379.678710938 177.826171875 m 2
 379.678710938 299.676757812 l 1
 465.884765625 299.676757812 l 2
 648.84375 299.676757812 759.9765625 422.870117188 698.721679688 557.806640625 c 0
 663.052734375 636.37109375 580.313476562 665.155273438 390.25 665.155273438 c 2
 234 665.155273438 l 1
 234 462.103515625 234 259.051757812 234 56 c 1
 306.8515625 56 l 2
 378.067382812 56 379.678710938 58.7099609375 379.678710938 177.826171875 c 2
379.678710938 482.416015625 m 0
 379.678710938 582.147460938 385.000976562 592.059570312 438.39453125 592.059570312 c 0
 542.911132812 592.059570312 573.94140625 566.961914062 573.94140625 482.416015625 c 0
 573.94140625 397.845703125 542.911132812 372.772460938 438.39453125 372.772460938 c 0
 385.000976562 372.772460938 379.678710938 382.684570312 379.678710938 482.416015625 c 0
470.743164062 514.325195312 m 0
 444.15625 519.452148438 428.23828125 507.513671875 428.23828125 482.416015625 c 0
 428.23828125 440.008789062 500.015625 439.715820312 508.438476562 482.07421875 c 0
 511.075195312 495.306640625 494.107421875 509.80859375 470.743164062 514.325195312 c 0
EndSplineSet
EndChar

StartChar: R
Encoding: 48 82 47
Width: 1065
VWidth: 24883
Flags: HW
LayerCount: 2
Fore
SplineSet
181.416015625 728.73046875 m 1
 437.470703125 728.73046875 l 2
 676.97265625 728.73046875 697.3828125 724.873046875 753.120117188 668.940429688 c 0
 825.727539062 596.088867188 832.685546875 466.474609375 768.28125 386.665039062 c 0
 724.775390625 332.734375 725.263671875 328.950195312 792.109375 207.294921875 c 0
 888.59375 31.7578125 884.931640625 22.1142578125 721.674804688 22.1875 c 2
 582.05078125 22.236328125 l 1
 533.5 115.604492188 484.940429688 208.963867188 436.372070312 302.314453125 c 1
 431.521484375 208.915039062 426.670898438 115.514648438 421.821289062 22.1142578125 c 1
 341.686523438 22.1142578125 261.55078125 22.1142578125 181.416015625 22.1142578125 c 1
 181.416015625 257.653320312 181.416015625 493.19140625 181.416015625 728.73046875 c 1
434.052734375 338.88671875 m 0
 479.51171875 338.88671875 509.150390625 309.174804688 567.817382812 204.877929688 c 0
 632.24609375 90.2783203125 653.461914062 70.8447265625 714.106445312 70.8447265625 c 2
 785.029296875 70.8447265625 l 1
 723.969726562 180.512695312 l 2
 690.375976562 240.815429688 652.900390625 290.15625 640.693359375 290.15625 c 0
 595.234375 290.15625 620.600585938 359.028320312 680.561523438 398.45703125 c 0
 731.5625 432.001953125 741.303710938 455.219726562 735.200195312 528.6328125 c 0
 725.288085938 647.309570312 658.393554688 679.194335938 418.159179688 679.658203125 c 2
 230 680 l 1
 230 476.948242188 230 273.896484375 230 70.8447265625 c 1
 302.827148438 70.8447265625 l 2
 374.946289062 70.8447265625 375.678710938 72.2119140625 375.678710938 204.877929688 c 0
 375.678710938 330.146484375 379.487304688 338.88671875 434.052734375 338.88671875 c 0
375.678710938 409.174804688 m 1
 375.678710938 476.020507812 375.678710938 542.866210938 375.678710938 609.711914062 c 1
 476.38671875 602.216796875 l 2
 593.012695312 593.549804688 647.016601562 536.103515625 603.754882812 466.81640625 c 0
 586.958007812 439.936523438 539.86328125 421.381835938 476.38671875 416.669921875 c 2
 375.678710938 409.174804688 l 1
507.221679688 475.5078125 m 0
 566.352539062 498.26171875 552.75390625 533.80859375 484.931640625 533.80859375 c 0
 447.163085938 533.80859375 424.23828125 520.014648438 424.23828125 497.260742188 c 0
 424.23828125 457.9296875 446.479492188 452.094726562 507.221679688 475.5078125 c 0
EndSplineSet
EndChar

StartChar: S
Encoding: 49 83 48
Width: 870
VWidth: 24904
Flags: HW
LayerCount: 2
Fore
SplineSet
104.80859375 279.823242188 m 0
 113.255859375 301.91796875 149.33984375 316.810546875 194.408203125 316.810546875 c 2
 269.872070312 316.810546875 l 1
 195.189453125 379.896484375 l 2
 94.994140625 464.491210938 94.6279296875 562.66015625 194.139648438 662.513671875 c 0
 264.57421875 733.192382812 275.243164062 736.024414062 437.059570312 726.844726562 c 0
 622.704101562 716.322265625 695.995117188 671.668945312 708.51953125 561.390625 c 0
 714.134765625 511.952148438 702.513671875 498.841796875 642.50390625 486.952148438 c 0
 573.387695312 473.255859375 572.459960938 471.571289062 624.559570312 453.846679688 c 0
 699.608398438 428.333984375 758.788085938 306.922851562 739.37890625 218.2265625 c 0
 730.8828125 179.359375 691.087890625 119.862304688 651 86 c 0
 589.842773438 34.3642578125 553.905273438 24.57421875 428.172851562 25.404296875 c 0
 345.750976562 25.94140625 249.754882812 41.9326171875 214.8671875 60.9755859375 c 0
 144.701171875 99.2568359375 82.8115234375 222.303710938 104.80859375 279.823242188 c 0
454.002929688 439.759765625 m 0
 345.384765625 471.9375 326.854492188 486.146484375 326.854492188 537.220703125 c 0
 326.854492188 586.219726562 340.404296875 598.353515625 401.756835938 604.359375 c 0
 447.362304688 608.827148438 488.915039062 596.913085938 507.93359375 573.915039062 c 0
 525.12109375 553.114257812 565.55078125 536.122070312 597.77734375 536.122070312 c 0
 648.021484375 536.122070312 652.806640625 542.762695312 631.395507812 582.899414062 c 0
 551.732421875 732.2890625 193.309570312 684.071289062 193.309570312 523.939453125 c 0
 193.309570312 450.306640625 260.350585938 396.25390625 405.272460938 353.065429688 c 0
 536.620117188 313.9296875 572.557617188 268.690429688 532.298828125 193.2265625 c 0
 498.631835938 130.067382812 375.731445312 131.092773438 321.21484375 194.984375 c 0
 280.614257812 242.591796875 169.041992188 263.563476562 169.041992188 223.59765625 c 0
 169.041992188 192.127929688 273.0703125 103.7734375 326.854492188 89.564453125 c 0
 426.268554688 63.294921875 568.529296875 97.083984375 624.291015625 160.243164062 c 0
 731.6640625 281.776367188 675.365234375 374.208007812 454.002929688 439.759765625 c 0
484.69140625 243.71484375 m 0
 484.69140625 257.118164062 481.883789062 268.080078125 478.44140625 268.080078125 c 0
 475.0234375 268.080078125 435.423828125 278.67578125 390.453125 291.615234375 c 0
 310.228515625 314.7109375 309.49609375 314.247070312 351.87890625 267.25 c 0
 397.044921875 217.201171875 484.69140625 201.649414062 484.69140625 243.71484375 c 0
448.265625 536.122070312 m 0
 440.013671875 549.525390625 422.97265625 560.487304688 410.399414062 560.487304688 c 0
 397.850585938 560.487304688 387.547851562 549.525390625 387.547851562 536.122070312 c 0
 387.547851562 522.71875 404.588867188 511.756835938 425.4140625 511.756835938 c 0
 446.239257812 511.756835938 456.517578125 522.71875 448.265625 536.122070312 c 0
EndSplineSet
EndChar

StartChar: T
Encoding: 50 84 49
Width: 1179
VWidth: 24846
Flags: HW
LayerCount: 2
Fore
SplineSet
405.245117188 6.8330078125 m 1
 405.245117188 170.123046875 405.245117188 333.4140625 405.245117188 496.704101562 c 1
 340.497070312 496.704101562 275.748046875 496.704101562 211 496.704101562 c 1
 211 569.802734375 211 642.901367188 211 716 c 1
 429.526367188 716 648.052734375 716 866.579101562 716 c 1
 866.579101562 642.901367188 866.579101562 569.802734375 866.579101562 496.704101562 c 1
 802.416992188 496.704101562 738.255859375 496.704101562 674.09375 496.704101562 c 1
 669.4609375 338.323242188 664.828125 179.942382812 660.193359375 21.5634765625 c 1
 575.2109375 16.6533203125 490.227539062 11.7431640625 405.245117188 6.8330078125 c 1
604.713867188 307.866210938 m 2
 611.631835938 557.619140625 l 1
 702.684570312 565.181640625 l 2
 774.016601562 571.106445312 793.737304688 582.981445312 793.737304688 620.005859375 c 0
 793.737304688 663.913085938 774.78125 667.267578125 526.649414062 667.267578125 c 0
 275.749023438 667.267578125 259.561523438 664.313476562 259.561523438 618.53515625 c 0
 259.561523438 578.147460938 275.749023438 569.802734375 354.088867188 569.802734375 c 0
 471.517578125 569.802734375 478.087890625 554.198242188 478.087890625 275.415039062 c 0
 478.087890625 60.6923828125 478.79296875 58.1123046875 537.942382812 58.1123046875 c 0
 597.213867188 58.1123046875 597.859375 60.5302734375 604.713867188 307.866210938 c 2
EndSplineSet
EndChar

StartChar: U
Encoding: 51 85 50
Width: 916
VWidth: 25052
Flags: HW
LayerCount: 2
Fore
SplineSet
104.955078125 441.879882812 m 2
 104.419921875 716 l 1
 185.35546875 716 266.291992188 716 347.227539062 716 c 1
 347.227539062 510.879882812 l 2
 347.227539062 267.186523438 358.826171875 228.67578125 432.209960938 228.67578125 c 0
 505.595703125 228.67578125 517.192382812 267.186523438 517.192382812 510.879882812 c 2
 517.192382812 716 l 1
 598.127929688 716 679.064453125 716 760 716 c 1
 760 461.30078125 l 2
 760 178.861328125 739.630859375 109.697265625 638.850585938 49.9560546875 c 0
 560.067382812 3.2529296875 313.989257812 -4.2939453125 237.963867188 37.6611328125 c 0
 122.396484375 101.436523438 105.5234375 152.71484375 104.955078125 441.879882812 c 2
636.224609375 142.088867188 m 0
 693.6953125 199.725585938 700.0390625 225.838867188 707.70703125 436.302734375 c 2
 716.12109375 667.267578125 l 1
 666.583007812 667.267578125 617.045898438 667.267578125 567.5078125 667.267578125 c 1
 560.55859375 430.227539062 l 2
 553.721679688 197.0078125 552.548828125 192.815429688 487.813476562 170.024414062 c 0
 443.205078125 154.318359375 402.161132812 155.940429688 360.33984375 175.0625 c 0
 300.575195312 202.389648438 298.66015625 210.461914062 298.66015625 435.265625 c 2
 298.66015625 667.267578125 l 1
 248.536132812 667.267578125 198.413085938 667.267578125 148.2890625 667.267578125 c 1
 156.702148438 437.706054688 l 2
 164.09375 236.0625 172.127929688 200.662109375 222.765625 146.609375 c 0
 324.088867188 38.455078125 530.640625 36.1962890625 636.224609375 142.088867188 c 0
EndSplineSet
EndChar

StartChar: V
Encoding: 52 86 51
Width: 930
VWidth: 25212
Flags: HW
LayerCount: 2
Fore
SplineSet
261.71484375 37.3896484375 m 0
 145.181640625 350.643554688 40.0341796875 649.717773438 40.0341796875 667.93359375 c 0
 40.0341796875 680.29296875 99.5556640625 690.405273438 172.30078125 690.405273438 c 2
 304.567382812 690.405273438 l 1
 343.376953125 564.513671875 382.185546875 438.622070312 420.994140625 312.729492188 c 1
 458.374023438 438.622070312 495.75390625 564.513671875 533.134765625 690.405273438 c 1
 662.936523438 690.405273438 l 2
 751.213867188 690.405273438 792.362304688 680.662109375 791.56640625 659.947265625 c 0
 790.93359375 643.196289062 738.2890625 486.947265625 674.603515625 312.729492188 c 2
 558.811523438 -4.03125 l 1
 420.688476562 -11.3427734375 l 2
 295.515625 -17.96875 280.610351562 -13.400390625 261.71484375 37.3896484375 c 0
520.700195312 99.5244140625 m 0
 533.9453125 136.37890625 583.965820312 274.145507812 631.857421875 405.674804688 c 2
 718.932617188 644.81640625 l 1
 653.739257812 637.153320312 l 2
 594.193359375 630.153320312 582.591796875 609.971679688 519.755859375 404.102539062 c 0
 478.298828125 268.271484375 438.206054688 178.71484375 418.859375 178.71484375 c 0
 399.270507812 178.71484375 360.192382812 268.970703125 318.633789062 410.194335938 c 0
 253.529296875 631.431640625 247.498046875 641.672851562 182.306640625 641.672851562 c 2
 114.099609375 641.672851562 l 1
 188.923828125 440.651367188 l 2
 230.077148438 330.08984375 279.998046875 193.030273438 299.857421875 136.07421875 c 0
 332.517578125 42.4150390625 343.645507812 32.517578125 416.29296875 32.517578125 c 0
 481.89453125 32.517578125 501.033203125 44.7998046875 520.700195312 99.5244140625 c 0
EndSplineSet
EndChar

StartChar: at
Encoding: 53 64 52
Width: 1185
VWidth: 22077
Flags: HW
LayerCount: 2
Fore
SplineSet
394 40 m 4
 266.005859375 103.30859375 208.759765625 206.002929688 199.572265625 388.791015625 c 4
 185.990234375 659.024414062 325.952148438 827.927734375 563.46484375 827.927734375 c 4
 791.79296875 827.927734375 909 712.215820312 909 486.80078125 c 4
 909 397.622070312 894.140625 330.369140625 864.584960938 285.779296875 c 4
 823.8671875 224.349609375 823.575195312 218.772460938 861.073242188 218.772460938 c 4
 943.173828125 218.772460938 891.250976562 115.314453125 779.446289062 56.126953125 c 4
 653.940429688 -10.3134765625 508.061523438 -16.4169921875 394 40 c 4
643.650390625 145.673828125 m 4
 679.643554688 161.1953125 660.791992188 166.961914062 570.80859375 167.954101562 c 4
 483.926757812 168.912109375 459.76171875 162.577148438 485.825195312 145.673828125 c 4
 529.450195312 117.3828125 578.04296875 117.3828125 643.650390625 145.673828125 c 4
655.749023438 413.483398438 m 4
 686.370117188 575.51171875 686.37890625 615.419921875 655.799804688 596.44921875 c 4
 642.4453125 588.166015625 631.518554688 533.409179688 631.518554688 474.765625 c 4
 631.518554688 416.123046875 621.139648438 340.747070312 608.454101562 307.264648438 c 4
 592.078125 264.040039062 593.837890625 242.940429688 614.524414062 234.502929688 c 4
 669.248046875 212.182617188 686.046875 218.747070312 658.731445312 251.77734375 c 4
 639.189453125 275.396484375 638.34375 321.381835938 655.749023438 413.483398438 c 4
558.243164062 387.755859375 m 4
 587.989257812 498.612304688 569.272460938 574.698242188 521.951171875 535.287109375 c 4
 460.485351562 484.095703125 451.049804688 243.060546875 511.991210938 280.857421875 c 4
 523.583007812 288.046875 544.396484375 336.150390625 558.243164062 387.755859375 c 4
418.845703125 444.137695312 m 4
 423.610351562 494.380859375 419.715820312 527.275390625 410.193359375 517.236328125 c 4
 390.962890625 496.963867188 380.370117188 403.334960938 388.83203125 328.420898438 c 4
 395.380859375 270.4375 406.40625 312.946289062 418.845703125 444.137695312 c 4
775.655273438 497.548828125 m 4
 773.86328125 612.709960938 745.44140625 562.565429688 721.225585938 401.518554688 c 4
 707.803710938 312.260742188 709.543945312 308.037109375 741.8828125 351.352539062 c 4
 761.303710938 377.366210938 776.501953125 443.155273438 775.655273438 497.548828125 c 4
643.650390625 681.73046875 m 4
 652.594726562 696.254882812 626.203125 705.116210938 578.311523438 703.66796875 c 4
 502.771484375 701.384765625 501.596679688 700.072265625 558.66796875 681.73046875 c 4
 592.053710938 671.000976562 621.456054688 661.12890625 624.006835938 659.79296875 c 4
 626.557617188 658.458007812 635.396484375 668.329101562 643.650390625 681.73046875 c 4
EndSplineSet
EndChar

StartChar: question
Encoding: 54 63 53
Width: 1090
VWidth: 24801
Flags: HW
LayerCount: 2
Fore
SplineSet
434 181.533203125 m 2
 434 323.310546875 441.608398438 347.760742188 510.073242188 426.012695312 c 0
 551.9140625 473.834960938 580.115234375 519.014648438 572.7421875 526.413085938 c 0
 565.370117188 533.811523438 546.936523438 516.609375 531.778320312 488.188476562 c 0
 508.5078125 444.552734375 490.254882812 439.000976562 414.477539062 452.506835938 c 0
 291.953125 474.345703125 275.770507812 495.205078125 312.4375 584.037109375 c 0
 356.8984375 691.75390625 425.61328125 730.620117188 571.592773438 730.620117188 c 0
 740.298828125 730.620117188 832.204101562 657.39453125 832.204101562 522.977539062 c 0
 832.204101562 448.248046875 816.81640625 417.958984375 750.721679688 362.586914062 c 0
 674.8125 298.991210938 669.541015625 285.079101562 673.641601562 159.162109375 c 2
 678.04296875 24 l 1
 596.6953125 24 515.34765625 24 434 24 c 1
 434 181.533203125 l 2
603.96484375 121.465820312 m 0
 603.96484375 157.202148438 587.77734375 170.197265625 543.263671875 170.197265625 c 0
 498.749023438 170.197265625 482.561523438 157.202148438 482.561523438 121.465820312 c 0
 482.561523438 85.7275390625 498.749023438 72.732421875 543.263671875 72.732421875 c 0
 587.77734375 72.732421875 603.96484375 85.7275390625 603.96484375 121.465820312 c 0
586.216796875 234.913085938 m 0
 569.77734375 241.586914062 536.999023438 241.993164062 513.374023438 235.815429688 c 0
 489.75 229.637695312 503.200195312 224.176757812 543.263671875 223.6796875 c 0
 583.326171875 223.184570312 602.655273438 228.23828125 586.216796875 234.913085938 c 0
674.883789062 390.434570312 m 0
 729.359375 444.55859375 773.9296875 502.424804688 773.9296875 519.02734375 c 0
 773.9296875 573.920898438 703.2265625 651.700195312 638.5078125 668 c 0
 524.983398438 696.59375 361.158203125 612.190429688 361.158203125 525.109375 c 0
 361.158203125 493.963867188 460.874023438 514.119140625 473.78125 547.874023438 c 0
 482.404296875 570.424804688 519.309570312 584.422851562 570.141601562 584.422851562 c 0
 640.0546875 584.422851562 652.526367188 575.891601562 652.526367188 528.06640625 c 0
 652.526367188 497.0703125 619.747070312 440.194335938 579.684570312 401.676757812 c 0
 539.62109375 363.158203125 506.841796875 322.73046875 506.841796875 311.8359375 c 0
 506.841796875 263.857421875 583.637695312 299.77734375 674.883789062 390.434570312 c 0
EndSplineSet
EndChar

StartChar: A
Encoding: 55 65 54
Width: 1642
VWidth: 24981
Flags: HW
LayerCount: 2
Fore
SplineSet
32.029296875 39.0205078125 m 0
 32.154296875 55.7724609375 85.7294921875 212.020507812 151.078125 386.239257812 c 2
 269.892578125 703 l 1
 362.594726562 703 455.297851562 703 548 703 c 1
 665.204101562 386.239257812 l 2
 729.666015625 212.020507812 782.877929688 55.7724609375 783.453125 39.0205078125 c 0
 784.165039062 18.263671875 742.487304688 8.5625 652.590820312 8.5625 c 0
 542.0078125 8.5625 518.19140625 16.44140625 505.26953125 57.294921875 c 0
 493.696289062 93.890625 468.532226562 106.02734375 404.237304688 106.02734375 c 0
 339.038085938 106.02734375 315.58984375 94.4052734375 305.918945312 57.294921875 c 0
 295.204101562 16.17578125 272.799804688 8.5625 162.5078125 8.5625 c 0
 74.0009765625 8.5625 31.87109375 18.3974609375 32.029296875 39.0205078125 c 0
243.287109375 106.02734375 m 0
 254.19921875 147.903320312 276.40625 154.759765625 401.111328125 154.759765625 c 0
 525.817382812 154.759765625 548.024414062 147.903320312 558.936523438 106.02734375 c 0
 567.908203125 71.5986328125 592.055664062 57.294921875 641.209960938 57.294921875 c 2
 710.784179688 57.294921875 l 1
 623.96875 294.865234375 l 2
 576.220703125 425.529296875 526.1796875 562.588867188 512.766601562 599.443359375 c 0
 492.87890625 654.084960938 473.573242188 666.450195312 408.147460938 666.450195312 c 0
 342.720703125 666.450195312 323.415039062 654.084960938 303.52734375 599.443359375 c 0
 290.115234375 562.588867188 240.073242188 425.529296875 192.325195312 294.865234375 c 2
 105.509765625 57.294921875 l 1
 168.048828125 57.294921875 l 2
 210.16796875 57.294921875 234.734375 73.20703125 243.287109375 106.02734375 c 0
312.8984375 273.548828125 m 0
 291.161132812 308.84375 373.760742188 520.252929688 409.288085938 520.252929688 c 0
 427.436523438 520.252929688 453.6640625 479.134765625 467.572265625 428.879882812 c 0
 510.391601562 274.153320312 503.192382812 252.224609375 409.580078125 252.224609375 c 0
 363.627929688 252.224609375 320.12109375 261.8203125 312.8984375 273.548828125 c 0
420.287109375 349.689453125 m 0
 420.287109375 376.4921875 416.098632812 398.421875 410.978515625 398.421875 c 0
 402.1484375 398.421875 367.853515625 300.95703125 398.280273438 300.95703125 c 0
 410.383789062 300.95703125 420.287109375 322.88671875 420.287109375 349.689453125 c 0
EndSplineSet
EndChar

StartChar: B
Encoding: 56 66 55
Width: 1061
VWidth: 25011
Flags: HW
LayerCount: 2
Fore
SplineSet
200 0 m 5
 200 235.540039062 200 471.079101562 200 706.619140625 c 5
 450.71484375 706.619140625 l 6
 681.390625 706.619140625 705.650390625 702.111328125 754.224609375 650.225585938 c 4
 810.704101562 589.892578125 826.671875 443.694335938 781.708007812 398.573242188 c 4
 764.149414062 380.951171875 767.8671875 363.623046875 793.848632812 341.983398438 c 4
 816.982421875 322.716796875 831.298828125 270.693359375 831.298828125 205.897460938 c 4
 831.298828125 121.598632812 818.736328125 91.0859375 767.322265625 50.5009765625 c 4
 711.9453125 6.7880859375 669.518554688 0 451.672851562 0 c 6
 200 0 l 5
737.59375 120.015625 m 4
 797.9375 194.799804688 794.505859375 235.043945312 722.036132812 302.443359375 c 4
 648.799804688 370.5546875 648.25 376.728515625 709.895507812 438.590820312 c 4
 772.76171875 501.678710938 771.107421875 525.576171875 698.858398438 598.079101562 c 4
 645.458007812 651.666992188 618.944335938 657.88671875 443.911132812 657.88671875 c 6
 248.561523438 657.88671875 l 5
 248.561523438 452.848632812 248.561523438 247.809570312 248.561523438 42.771484375 c 5
 470.505859375 53.419921875 l 6
 665.71484375 62.7861328125 697.887695312 70.8076171875 737.59375 120.015625 c 4
394.24609375 143.52734375 m 5
 394.24609375 202.162109375 394.24609375 260.795898438 394.24609375 319.430664062 c 5
 509.579101562 312.00390625 l 6
 619.895507812 304.900390625 624.913085938 301.397460938 624.913085938 231.478515625 c 4
 624.913085938 161.559570312 619.895507812 158.056640625 509.579101562 150.953125 c 6
 394.24609375 143.52734375 l 5
565.720703125 231.478515625 m 4
 565.720703125 244.879882812 538.065429688 259.314453125 504.263671875 263.5546875 c 4
 460.463867188 269.049804688 442.807617188 259.833984375 442.807617188 231.478515625 c 4
 442.807617188 203.123046875 460.463867188 193.907226562 504.263671875 199.40234375 c 4
 538.065429688 203.642578125 565.720703125 218.077148438 565.720703125 231.478515625 c 4
394.24609375 485.922851562 m 6
 394.24609375 581.295898438 397.033203125 584.775390625 473.158203125 584.416015625 c 4
 583.075195312 583.895507812 618.033203125 555.018554688 608.646484375 472.497070312 c 4
 601.37109375 408.538085938 591.118164062 401.3515625 497.439453125 394.549804688 c 6
 394.24609375 387.056640625 l 5
 394.24609375 485.922851562 l 6
525.6640625 453.327148438 m 4
 575.083007812 472.358398438 551.00390625 511.690429688 489.935546875 511.690429688 c 4
 464.014648438 511.690429688 442.807617188 495.243164062 442.807617188 475.140625 c 4
 442.807617188 435.83984375 465.047851562 429.985351562 525.6640625 453.327148438 c 4
EndSplineSet
EndChar

StartChar: C
Encoding: 57 67 56
Width: 918
VWidth: 22135
Flags: HW
LayerCount: 2
Fore
SplineSet
243 40 m 0
 143.389648438 95.46875 93.0419921875 201.260742188 92.8681640625 355.463867188 c 0
 92.5859375 604.7578125 195.8828125 713.655273438 432.638671875 713.655273438 c 0
 623.61328125 713.655273438 748.287109375 628.901367188 748.287109375 499.075195312 c 0
 748.287109375 432.568359375 557.091796875 399.51953125 514.051757812 458.586914062 c 0
 470.58203125 518.245117188 377.065429688 494.07421875 349.87109375 416.151367188 c 0
 300.010742188 273.280273438 432.952148438 161.151367188 514.197265625 277.552734375 c 0
 544.71484375 321.276367188 564.709960938 326.270507812 650.80859375 311.672851562 c 0
 706.28125 302.268554688 757.162109375 280.208007812 763.875 262.651367188 c 0
 783.671875 210.880859375 704.579101562 83.904296875 627.678710938 43.9970703125 c 0
 541.455078125 -0.748046875 320.298828125 -3.0458984375 243 40 c 0
548.81640625 81.95703125 m 0
 589.991210938 96.361328125 641.178710938 134.947265625 662.56640625 167.704101562 c 0
 699.567382812 224.374023438 698.762695312 228.275390625 645.958007812 248.196289062 c 0
 604.543945312 263.8203125 584.828125 259.065429688 568.256835938 229.45703125 c 0
 520.0625 143.346679688 405.723632812 126.020507812 331.357421875 193.55859375 c 0
 272.41015625 247.092773438 269.693359375 459.19921875 327.138671875 522.8984375 c 0
 376.60546875 577.750976562 476.311523438 580.366210938 549.765625 528.735351562 c 0
 612.578125 484.584960938 681.364257812 499.259765625 661.017578125 552.470703125 c 0
 653.532226562 572.044921875 609.315429688 606.200195312 562.7578125 628.37109375 c 0
 397.380859375 707.124023438 190.013671875 612.870117188 152.603515625 441.9453125 c 0
 97.880859375 191.915039062 310.616210938 -1.3720703125 548.81640625 81.95703125 c 0
EndSplineSet
EndChar

StartChar: D
Encoding: 58 68 57
Width: 1047
VWidth: 25265
Flags: HW
LayerCount: 2
Fore
SplineSet
232 0 m 1
 232 237.061523438 232 474.124023438 232 711.185546875 c 1
 462.283203125 711.185546875 l 2
 679.768554688 711.185546875 696.763671875 707.423828125 768.068359375 643.48828125 c 0
 904.408203125 521.240234375 911.181640625 212.157226562 780.399414062 80.8154296875 c 0
 721.495117188 21.658203125 698.041015625 16.107421875 474.303710938 8.375 c 2
 232 0 l 1
748.446289062 561.100585938 m 0
 691.217773438 638.022460938 631.069335938 656.84375 432.315429688 660.024414062 c 2
 280.561523438 662.455078125 l 1
 280.561523438 459.403320312 280.561523438 256.3515625 280.561523438 53.2998046875 c 1
 427.025390625 53.2998046875 l 2
 507.580078125 53.2998046875 610.655273438 68.8828125 656.079101562 87.9296875 c 0
 814.963867188 154.548828125 864.004882812 405.77734375 748.446289062 561.100585938 c 0
426.245117188 150.763671875 m 1
 426.245117188 288.838867188 426.245117188 426.9140625 426.245117188 564.989257812 c 1
 509.493164062 564.989257812 l 2
 626.79296875 564.989257812 669.052734375 512.4765625 669.052734375 366.716796875 c 0
 669.052734375 193.958007812 639.7421875 150.763671875 522.513671875 150.763671875 c 2
 426.245117188 150.763671875 l 1
591.178710938 236.053710938 m 0
 595.087890625 239.428710938 604.512695312 280.69140625 612.123046875 327.748046875 c 0
 622.90234375 394.412109375 614.630859375 424.672851562 574.663085938 464.78125 c 0
 492.70703125 547.025390625 474.806640625 527.567382812 474.806640625 356.234375 c 0
 474.806640625 201.536132812 476.624023438 196.772460938 529.438476562 213.064453125 c 0
 559.486328125 222.333007812 587.268554688 232.677734375 591.178710938 236.053710938 c 0
EndSplineSet
EndChar

StartChar: E
Encoding: 59 69 58
Width: 896
VWidth: 25117
Flags: HW
LayerCount: 2
Fore
SplineSet
135.599609375 31.7470703125 m 4
 128.922851562 49.20703125 126.536132812 205.455078125 130.291992188 378.96484375 c 6
 137.122070312 694.4375 l 5
 335.415039062 698.998046875 533.708007812 703.55859375 732 708.120117188 c 5
 732 642.643554688 732 577.166992188 732 511.690429688 c 5
 562.03515625 511.690429688 l 6
 464.912109375 511.690429688 392.0703125 501.248046875 392.0703125 487.32421875 c 4
 392.0703125 473.556640625 461.35546875 462.958007812 551.361328125 462.958007812 c 6
 710.65234375 462.958007812 l 5
 705.627929688 402.041992188 700.603515625 341.126953125 695.579101562 280.211914062 c 5
 543.82421875 272.95703125 l 6
 430.654296875 267.547851562 392.0703125 256.706054688 392.0703125 230.31640625 c 4
 392.0703125 202.749023438 429.625 194.9296875 562.03515625 194.9296875 c 6
 732 194.9296875 l 5
 732 129.953125 732 64.9765625 732 0 c 5
 439.872070312 0 l 6
 222.241210938 0 144.64453125 8.0966796875 135.599609375 31.7470703125 c 4
683.438476562 97.46484375 m 4
 683.438476562 141.555664062 667.252929688 146.197265625 513.473632812 146.197265625 c 6
 343.508789062 146.197265625 l 5
 343.508789062 211.173828125 343.508789062 276.150390625 343.508789062 341.126953125 c 5
 489.192382812 341.126953125 l 6
 602.50390625 341.126953125 634.876953125 349.249023438 634.876953125 377.676757812 c 4
 634.876953125 406.146484375 602.333984375 414.225585938 487.65625 414.225585938 c 6
 340.431640625 414.225585938 l 5
 348.041992188 493.416015625 l 6
 355.6484375 572.602539062 355.65625 572.606445312 507.403320312 579.860351562 c 4
 620.576171875 585.26953125 659.158203125 596.111328125 659.158203125 622.500976562 c 4
 659.158203125 650.956054688 613.973632812 657.887695312 428.491210938 657.887695312 c 6
 197.82421875 657.887695312 l 5
 197.82421875 454.8359375 197.82421875 251.784179688 197.82421875 48.732421875 c 5
 440.631835938 48.732421875 l 6
 667.252929688 48.732421875 683.438476562 51.9814453125 683.438476562 97.46484375 c 4
EndSplineSet
EndChar

StartChar: F
Encoding: 60 70 59
Width: 959
VWidth: 25245
Flags: HW
LayerCount: 2
Fore
SplineSet
213 0 m 5
 213 235.5390625 213 471.077148438 213 706.616210938 c 5
 391.059570312 706.616210938 569.120117188 706.616210938 747.1796875 706.616210938 c 5
 747.1796875 641.642578125 747.1796875 576.66796875 747.1796875 511.694335938 c 5
 601.500976562 511.694335938 l 6
 520.568359375 511.694335938 455.822265625 500.854492188 455.822265625 487.329101562 c 4
 455.822265625 473.92578125 510.241210938 462.963867188 576.745117188 462.963867188 c 4
 685.485351562 462.963867188 699.23046875 456.811523438 712.926757812 402.099609375 c 4
 739.513671875 295.727539062 711.6328125 268.017578125 577.965820312 268.017578125 c 6
 455.822265625 268.017578125 l 5
 455.822265625 178.678710938 455.822265625 89.3388671875 455.822265625 0 c 5
 374.881835938 0 293.940429688 0 213 0 c 5
407.23828125 182.739257812 m 6
 407.23828125 316.772460938 l 5
 528.649414062 316.772460938 l 6
 620.373046875 316.772460938 650.060546875 325.68359375 650.060546875 353.3203125 c 4
 650.060546875 380.932617188 620.373046875 389.868164062 528.649414062 389.868164062 c 6
 407.23828125 389.868164062 l 5
 407.23828125 445.90625 407.23828125 501.9453125 407.23828125 557.983398438 c 5
 546.618164062 565.307617188 l 6
 656.579101562 571.069335938 687.70703125 581.616210938 694.103515625 615.258789062 c 4
 701.305664062 653.3203125 678.576171875 657.885742188 481.872070312 657.885742188 c 6
 261.559570312 657.885742188 l 5
 261.559570312 454.833984375 261.559570312 251.782226562 261.559570312 48.73046875 c 5
 334.411132812 48.73046875 l 6
 406.505859375 48.73046875 407.23828125 50.09765625 407.23828125 182.739257812 c 6
EndSplineSet
EndChar

StartChar: G
Encoding: 61 71 60
Width: 1078
VWidth: 25163
Flags: HW
LayerCount: 2
Fore
SplineSet
137.356445312 340.465820312 m 0
 140.75 565.563476562 269.924804688 680.138671875 520.33984375 680.138671875 c 0
 713.455078125 680.138671875 822.122070312 613.09765625 823.879882812 492.858398438 c 0
 824.465820312 450.79296875 808.03515625 437.51171875 745.73046875 429.748046875 c 0
 668.044921875 420.055664062 668.215820312 419.860351562 757.864257812 416.02734375 c 2
 848.928710938 412.12109375 l 1
 848.928710938 297.619140625 848.928710938 183.1171875 848.928710938 68.615234375 c 1
 745.73046875 21.59375 l 2
 603.860351562 -43.0302734375 376.833984375 -42.17578125 274.905273438 23.3759765625 c 0
 180.813476562 83.8740234375 135.0859375 189.293945312 137.356445312 340.465820312 c 0
771.267578125 235.65625 m 2
 778.616210938 363.390625 l 1
 655.935546875 363.390625 l 2
 565.627929688 363.390625 533.279296875 354.162109375 533.279296875 328.454101562 c 0
 533.279296875 308.483398438 561.794921875 290.221679688 599.83203125 285.802734375 c 0
 680.520507812 276.4765625 704.202148438 198.498046875 640.530273438 151.793945312 c 0
 579.666015625 107.140625 436.6484375 111.73046875 383.42578125 160.045898438 c 0
 324.490234375 213.5859375 321.755859375 425.6953125 379.202148438 489.391601562 c 0
 424.978515625 540.124023438 558.596679688 548.913085938 627.517578125 505.724609375 c 0
 652.2734375 490.221679688 691.848632812 484.97265625 715.45703125 494.0546875 c 0
 756.155273438 509.728515625 756.204101562 513.024414062 716.506835938 557.04296875 c 0
 622.415039062 661.388671875 377.6640625 640.856445312 263.674804688 519.103515625 c 0
 217.21484375 469.469726562 205.471679688 430.578125 205.471679688 326.4765625 c 0
 205.471679688 215.856445312 216.140625 184.850585938 275.588867188 122.5703125 c 0
 314.163085938 82.189453125 368.77734375 44.1279296875 397 38 c 0
 469.36328125 22.27734375 629.202148438 43.419921875 702.200195312 78.380859375 c 0
 754.983398438 103.649414062 764.993164062 126.4765625 771.267578125 235.65625 c 2
581.838867188 192.809570312 m 0
 610.208007812 211.217773438 603.518554688 216.515625 551.4921875 216.80859375 c 0
 489.822265625 217.150390625 484.719726562 224.669921875 484.719726562 314.66015625 c 0
 484.719726562 404.552734375 489.895507812 412.169921875 551.4921875 412.90234375 c 0
 615.432617188 413.634765625 616.262695312 415.172851562 571.12109375 449.450195312 c 0
 509.548828125 496.178710938 494.16796875 494.689453125 436.16015625 436.486328125 c 0
 317.776367188 317.6875 445.364257812 104.30859375 581.838867188 192.809570312 c 0
EndSplineSet
EndChar

StartChar: H
Encoding: 62 72 61
Width: 1032
VWidth: 25128
Flags: HW
LayerCount: 2
Fore
SplineSet
156.409179688 0 m 1
 156.409179688 235.5390625 156.409179688 471.077148438 156.409179688 706.616210938 c 1
 237.341796875 706.616210938 318.274414062 706.616210938 399.20703125 706.616210938 c 1
 399.20703125 596.97265625 l 2
 399.20703125 487.915039062 399.646484375 487.329101562 484.192382812 487.329101562 c 0
 568.73828125 487.329101562 569.177734375 487.915039062 569.177734375 596.97265625 c 2
 569.177734375 706.616210938 l 1
 650.118164062 706.616210938 731.059570312 706.616210938 812 706.616210938 c 1
 812 471.077148438 812 235.5390625 812 0 c 1
 731.059570312 0 650.118164062 0 569.177734375 0 c 1
 569.177734375 89.34765625 569.177734375 178.694335938 569.177734375 268.041992188 c 1
 512.520507812 268.041992188 455.864257812 268.041992188 399.20703125 268.041992188 c 1
 399.20703125 178.694335938 399.20703125 89.34765625 399.20703125 0 c 1
 318.274414062 0 237.341796875 0 156.409179688 0 c 1
350.647460938 182.763671875 m 2
 350.647460938 316.772460938 l 1
 439.677734375 316.772460938 528.70703125 316.772460938 617.737304688 316.772460938 c 1
 617.737304688 182.763671875 l 2
 617.737304688 50.09765625 618.469726562 48.73046875 690.588867188 48.73046875 c 2
 763.416015625 48.73046875 l 1
 763.416015625 251.782226562 763.416015625 454.833984375 763.416015625 657.885742188 c 1
 691.907226562 657.885742188 l 2
 623.840820312 657.885742188 620.056640625 652.34375 613.000976562 542.163085938 c 2
 605.603515625 426.416015625 l 1
 524.670898438 426.416015625 443.73828125 426.416015625 362.805664062 426.416015625 c 1
 355.408203125 542.163085938 l 2
 348.352539062 652.34375 344.568359375 657.885742188 276.477539062 657.885742188 c 2
 204.96875 657.885742188 l 1
 204.96875 454.833984375 204.96875 251.782226562 204.96875 48.73046875 c 1
 277.8203125 48.73046875 l 2
 349.915039062 48.73046875 350.647460938 50.09765625 350.647460938 182.763671875 c 2
EndSplineSet
EndChar

StartChar: I
Encoding: 63 73 62
Width: 521
VWidth: 25163
Flags: HW
LayerCount: 2
Fore
SplineSet
120 0 m 1
 120 237.239257812 120 474.479492188 120 711.71875 c 1
 204.984375 706.802734375 289.969726562 701.887695312 374.956054688 696.97265625 c 1
 374.956054688 469.555664062 374.956054688 242.138671875 374.956054688 14.7216796875 c 1
 289.958007812 9.8271484375 204.97265625 4.919921875 120 0 c 1
314.23828125 51.26953125 m 1
 314.23828125 254.321289062 314.23828125 457.373046875 314.23828125 660.424804688 c 1
 265.678710938 660.424804688 217.119140625 660.424804688 168.559570312 660.424804688 c 1
 168.559570312 457.373046875 168.559570312 254.321289062 168.559570312 51.26953125 c 1
 217.119140625 51.26953125 265.678710938 51.26953125 314.23828125 51.26953125 c 1
EndSplineSet
EndChar

StartChar: J
Encoding: 64 74 63
Width: 753
VWidth: 25000
Flags: HW
LayerCount: 2
Fore
SplineSet
74.5986328125 177.350585938 m 0
 73.890625 247.614257812 81.3369140625 254.62109375 172.42578125 269.245117188 c 0
 280.873046875 286.627929688 316.639648438 274.8359375 316.639648438 221.662109375 c 0
 316.639648438 166.486328125 357.97265625 180.646484375 374.18359375 241.364257812 c 0
 382.240234375 271.515625 388.978515625 381.159179688 389.149414062 485.041015625 c 2
 389.491210938 673.859375 l 1
 470.423828125 673.859375 551.356445312 673.859375 632.2890625 673.859375 c 1
 632.2890625 391.779296875 l 2
 632.2890625 112.482421875 631.60546875 108.991210938 561.317382812 38.4833984375 c 0
 500.35546875 -22.6982421875 472.108398438 -32.634765625 361 -32 c 0
 289.881835938 -31.609375 209.803710938 -18.6943359375 183.094726562 -3.3134765625 c 0
 108.094726562 39.8505859375 75.453125 94.1962890625 74.5986328125 177.350585938 c 0
462.391601562 52.5703125 m 0
 550.013671875 98.029296875 583.412109375 207.16015625 583.583007812 448.46875 c 2
 583.8515625 625.12890625 l 1
 535.284179688 625.12890625 486.715820312 625.12890625 438.1484375 625.12890625 c 1
 438.1484375 398.541992188 l 2
 438.1484375 254.767578125 427.50390625 161.237304688 409.022460938 142.682617188 c 0
 364.80859375 98.322265625 297.279296875 107.6484375 268.202148438 162.189453125 c 0
 242.127929688 211.06640625 160.609375 228.693359375 137.098632812 190.509765625 c 0
 118.641601562 160.553710938 192.420898438 64.5087890625 252.577148438 40.1435546875 c 0
 330.125 8.7392578125 384.11328125 11.98046875 462.391601562 52.5703125 c 0
EndSplineSet
EndChar

StartChar: greater
Encoding: 65 62 64
Width: 1098
VWidth: 22134
Flags: HW
LayerCount: 2
Fore
SplineSet
277.653320312 105.517578125 m 0
 277.653320312 210.888671875 278.80078125 212.329101562 400.260742188 258.642578125 c 2
 522.868164062 305.395507812 l 1
 400.260742188 349.633789062 l 2
 278.239257812 393.676757812 277.653320312 394.384765625 277.653320312 501.07421875 c 0
 277.653320312 571.069335938 288.200195312 607.983398438 308 607.397460938 c 0
 324.69921875 606.909179688 447.624023438 559.252929688 581.168945312 501.46484375 c 2
 823.966796875 396.435546875 l 1
 823.966796875 334.619140625 823.966796875 272.802734375 823.966796875 210.986328125 c 1
 581.168945312 105.932617188 l 2
 447.624023438 48.1689453125 324.69921875 0.48828125 308 0 c 0
 288.224609375 -0.5615234375 277.653320312 36.181640625 277.653320312 105.517578125 c 0
762.760742188 303.7109375 m 0
 762.516601562 342.08984375 716.10546875 371.459960938 544.328125 441.967773438 c 0
 359.342773438 517.895507812 326.212890625 525.268554688 326.212890625 490.576171875 c 0
 326.212890625 463.110351562 374.11328125 431.030273438 471.891601562 392.96875 c 0
 552.018554688 361.791992188 617.594726562 321.630859375 617.594726562 303.7109375 c 0
 617.594726562 285.791015625 552.018554688 245.629882812 471.891601562 214.453125 c 0
 373.52734375 176.171875 326.212890625 144.384765625 326.212890625 116.528320312 c 0
 326.212890625 81.4208984375 358.5859375 88.623046875 544.645507812 165.161132812 c 0
 717.497070312 236.23046875 763.029296875 265.13671875 762.760742188 303.7109375 c 0
EndSplineSet
EndChar

StartChar: zero
Encoding: 66 48 65
Width: 894
VWidth: 23375
Flags: HW
LayerCount: 2
Fore
SplineSet
250.928710938 63.6494140625 m 0
 120.435546875 194.58203125 129.712890625 543.263671875 266.529296875 651.271484375 c 0
 360.791992188 725.661132812 564.844726562 721.071289062 655.884765625 642.506835938 c 0
 721.802734375 585.59765625 724 576.02734375 724 348 c 0
 724 119.948242188 721.802734375 110.377929688 655.884765625 53.4931640625 c 0
 601.661132812 6.69140625 560.401367188 -5.3203125 453.6875 -5.3203125 c 0
 338.916992188 -5.3203125 309.766601562 4.591796875 250.928710938 63.6494140625 c 0
553.638671875 67.62890625 m 0
 667.212890625 110.963867188 720.97265625 329.884765625 660.669921875 503.46875 c 0
 609.180664062 651.735351562 391.211914062 695.094726562 285.694335938 578.078125 c 0
 222.413085938 507.912109375 208.326171875 270.729492188 261.3046875 167.897460938 c 0
 319.190429688 55.568359375 426.001953125 18.9228515625 553.638671875 67.62890625 c 0
376.783203125 145.75390625 m 0
 338.111328125 184.572265625 338.111328125 511.427734375 376.783203125 550.24609375 c 0
 421.387695312 594.997070312 512.940429688 585.036132812 541.041015625 532.350585938 c 0
 554.859375 506.422851562 566.1875 423.463867188 566.1875 348 c 0
 566.1875 272.536132812 554.859375 189.577148438 541.041015625 163.649414062 c 0
 512.940429688 110.963867188 421.387695312 101.002929688 376.783203125 145.75390625 c 0
502.7109375 267.140625 m 0
 519.776367188 352.736328125 499.268554688 499.831054688 467.530273438 519.508789062 c 0
 415.6015625 551.7109375 372.364257812 329.030273438 410.962890625 228.151367188 c 0
 435.669921875 163.551757812 486.353515625 185.084960938 502.7109375 267.140625 c 0
EndSplineSet
EndChar

StartChar: one
Encoding: 67 49 66
Width: 638
VWidth: 25074
Flags: HW
LayerCount: 2
Fore
SplineSet
268 198.852539062 m 2
 268 378.857421875 263.971679688 396.020507812 225.51953125 379.809570312 c 0
 202.130859375 369.946289062 158.4296875 356.54296875 128.375976562 350 c 0
 78.7666015625 339.208984375 73.76171875 347.16796875 73.76171875 436.767578125 c 0
 73.76171875 513.793945312 84.3330078125 538.793945312 121.979492188 550.78125 c 0
 148.493164062 559.228515625 202.9609375 599.0234375 243 639.208984375 c 0
 302.545898438 698.950195312 332.453125 710.888671875 407.233398438 704.6875 c 2
 498.6640625 697.094726562 l 1
 498.6640625 469.677734375 498.6640625 242.260742188 498.6640625 14.84375 c 1
 421.776367188 9.8955078125 344.887695312 4.9482421875 268 0 c 1
 268 198.852539062 l 2
437.970703125 355.95703125 m 2
 437.970703125 638.110351562 434.6015625 660.546875 392.194335938 660.546875 c 0
 367.0234375 660.546875 329.62109375 634.814453125 309.088867188 603.369140625 c 0
 288.556640625 571.923828125 238.141601562 532.202148438 197.028320312 515.13671875 c 0
 155.939453125 498.046875 122.321289062 467.7734375 122.321289062 447.875976562 c 0
 122.321289062 422.802734375 135.3828125 417.1875 164.801757812 429.58984375 c 0
 313.532226562 492.333984375 316.559570312 488.940429688 316.559570312 261.352539062 c 0
 316.559570312 53.6376953125 317.21875 51.3916015625 377.252929688 51.3916015625 c 2
 437.970703125 51.3916015625 l 1
 437.970703125 355.95703125 l 2
EndSplineSet
EndChar

StartChar: two
Encoding: 68 50 67
Width: 840
VWidth: 24998
Flags: HW
LayerCount: 2
Fore
SplineSet
348.474609375 356.274414062 m 0
 468.665039062 448.2421875 502.771484375 511.71875 431.995117188 511.71875 c 0
 411.560546875 511.71875 388.538085938 495.288085938 380.84765625 475.170898438 c 0
 365.002929688 433.740234375 166.19921875 422.705078125 142.053710938 461.9140625 c 0
 118.518554688 500.146484375 193.860351562 651.782226562 251.892578125 682.958984375 c 0
 284.290039062 700.366210938 368.787109375 707.885742188 463.586914062 701.831054688 c 0
 649.109375 689.965820312 712.341796875 636.1328125 711.462890625 490.747070312 c 0
 710.852539062 391.9921875 661.31640625 314.35546875 553.381835938 242.944335938 c 2
 481.3359375 195.288085938 l 1
 558.223632812 195.173828125 635.112304688 195.060546875 712 194.946289062 c 1
 712 129.963867188 712 64.982421875 712 0 c 1
 420.618164062 0 l 2
 139.44140625 0 129.260742188 1.8310546875 129.260742188 51.953125 c 0
 129.260742188 133.7890625 217.102539062 255.737304688 348.474609375 356.274414062 c 0
663.440429688 97.509765625 m 0
 663.440429688 140.33203125 647.25390625 146.240234375 529.895507812 146.240234375 c 0
 362.87890625 146.240234375 358.411132812 177.197265625 507.385742188 302.172851562 c 0
 634.509765625 408.7890625 667.590820312 475.87890625 631.873046875 554.58984375 c 0
 577.4296875 674.462890625 289.294921875 678.41796875 226.208984375 560.15625 c 0
 188.635742188 489.697265625 291.638671875 465.649414062 339.172851562 533.764648438 c 0
 380.603515625 593.115234375 474.231445312 600.903320312 517.493164062 548.583984375 c 0
 566.78515625 488.96484375 526.208984375 404.663085938 399.280273438 303.051757812 c 0
 294.177734375 218.896484375 202.087890625 106.958007812 202.087890625 63.28125 c 0
 202.087890625 55.2978515625 305.896484375 48.779296875 432.776367188 48.779296875 c 0
 647.25390625 48.779296875 663.440429688 52.197265625 663.440429688 97.509765625 c 0
EndSplineSet
EndChar

StartChar: three
Encoding: 69 51 68
Width: 783
VWidth: 25245
Flags: HW
LayerCount: 2
Fore
SplineSet
172.741210938 -3.6865234375 m 0
 111.876953125 20.9228515625 29.6015625 162.866210938 60.1435546875 190.576171875 c 0
 71.30078125 200.708007812 121.3984375 215.185546875 171.447265625 222.802734375 c 0
 245.2265625 233.984375 267.223632812 227.661132812 287.633789062 189.428710938 c 0
 323.375976562 122.412109375 389.342773438 127.880859375 379.552734375 197.045898438 c 0
 374.572265625 232.275390625 352.282226562 254.663085938 317.174804688 259.66796875 c 0
 273.107421875 265.942382812 262.536132812 283.0078125 262.536132812 347.924804688 c 0
 262.536132812 422.94921875 255.993164062 429.443359375 165.416992188 443.969726562 c 0
 54.3330078125 461.791992188 37.951171875 513.427734375 113.610351562 607.202148438 c 0
 150.329101562 652.709960938 188.341796875 665.234375 313.927734375 673.193359375 c 0
 445.275390625 681.494140625 479.11328125 674.926757812 535.680664062 630.126953125 c 0
 605.895507812 574.560546875 628.502929688 446.118164062 577.16015625 394.604492188 c 0
 559.606445312 376.977539062 563.317382812 359.643554688 589.293945312 338.012695312 c 0
 634.411132812 300.439453125 638.561523438 123.120117188 595.6171875 67.0166015625 c 0
 579.357421875 45.751953125 542.174804688 15.6005859375 513 0 c 0
 451.452148438 -32.8857421875 250.426757812 -35.0830078125 172.741210938 -3.6865234375 c 0
529.625976562 294.067382812 m 0
 478.161132812 326.318359375 464.733398438 397.241210938 505.333984375 422.436523438 c 0
 540.587890625 444.287109375 535.094726562 545.922851562 496.959960938 577.685546875 c 0
 437.70703125 627.026367188 322.790039062 635.107421875 230.504882812 596.411132812 c 0
 139.953125 558.447265625 110.16796875 507.71484375 178.405273438 507.71484375 c 0
 198.913085938 507.71484375 241.881835938 524.951171875 273.913085938 545.99609375 c 0
 319.103515625 575.708007812 343.346679688 578.247070312 382.311523438 557.32421875 c 0
 450.475585938 520.703125 445.51953125 444.287109375 371.7890625 395.825195312 c 0
 295.250976562 345.483398438 294.225585938 312.79296875 369.201171875 312.79296875 c 0
 463.634765625 312.79296875 495.666015625 140.454101562 409.826171875 94.3359375 c 0
 342.711914062 58.30078125 317.614257812 62.5732421875 260.65625 119.750976562 c 0
 210.802734375 169.750976562 141.125 168.432617188 141.125 117.456054688 c 0
 141.125 73.1689453125 293.56640625 19.23828125 383.947265625 31.54296875 c 0
 434.77734375 38.4765625 490.856445312 68.45703125 523.546875 106.201171875 c 0
 591.149414062 184.27734375 593.395507812 254.1015625 529.625976562 294.067382812 c 0
355.114257812 481.8359375 m 0
 361.168945312 500.09765625 352.0625 509.228515625 333.849609375 503.149414062 c 0
 316.3203125 497.290039062 297.204101562 478.100585938 291.369140625 460.498046875 c 0
 285.290039062 442.236328125 294.396484375 433.081054688 312.609375 439.184570312 c 0
 330.138671875 445.043945312 349.254882812 464.233398438 355.114257812 481.8359375 c 0
EndSplineSet
EndChar

StartChar: four
Encoding: 70 52 69
Width: 924
VWidth: 24849
Flags: HW
LayerCount: 2
Fore
SplineSet
315.82421875 138 m 2
 158 138 l 1
 158.2890625 241.555664062 l 2
 158.546875 333.643554688 176.3125 366.026367188 318.686523438 533.950195312 c 0
 473.428710938 716.462890625 482.366210938 722.788085938 585.483398438 722.788085938 c 2
 692.173828125 722.788085938 l 1
 692.173828125 527.859375 l 2
 692.173828125 370.83203125 699.255859375 332.9296875 728.595703125 332.9296875 c 0
 754.899414062 332.9296875 765.016601562 305.85546875 765.016601562 235.46484375 c 0
 765.016601562 165.073242188 754.899414062 138 728.595703125 138 c 0
 705.93359375 138 692.173828125 114.987304688 692.173828125 77.083984375 c 0
 692.173828125 21.1318359375 683.271484375 16.1689453125 582.911132812 16.1689453125 c 0
 482.55078125 16.1689453125 473.647460938 21.1318359375 473.647460938 77.083984375 c 0
 473.6484375 135.8125 467.983398438 138 315.82421875 138 c 2
619.333007812 125.81640625 m 0
 619.333007812 170.48828125 632.283203125 186.732421875 667.89453125 186.732421875 c 0
 696.141601562 186.732421875 716.456054688 202.9765625 716.456054688 225.5625 c 0
 716.456054688 246.918945312 694.603515625 270.127929688 667.89453125 277.13671875 c 0
 624.513671875 288.520507812 619.333007812 310.373046875 619.333007812 481.96875 c 0
 619.333007812 652.384765625 614.282226562 674.055664062 574.56640625 674.055664062 c 0
 517.19140625 674.055664062 206.561523438 307.09375 206.561523438 239.315429688 c 0
 206.561523438 194.102539062 223.302734375 188.22265625 370.456054688 181.75390625 c 0
 519.374023438 175.208007812 535.059570312 169.5390625 542.109375 119.725585938 c 0
 552.864257812 43.736328125 619.333007812 48.98046875 619.333007812 125.81640625 c 0
303.68359375 308.171875 m 0
 303.68359375 322.826171875 346.719726562 380.9921875 399.319335938 437.428710938 c 0
 510.291992188 556.497070312 554.426757812 542.1328125 542.077148438 390.963867188 c 0
 534.374023438 296.668945312 533.998046875 296.357421875 419.017578125 288.953125 c 0
 347.228515625 284.331054688 303.68359375 291.586914062 303.68359375 308.171875 c 0
473.6484375 372.461914062 m 0
 473.6484375 404.83984375 467.056640625 406.504882812 437.227539062 381.662109375 c 0
 417.196289062 364.978515625 400.806640625 347.188476562 400.806640625 342.12890625 c 0
 400.806640625 337.069335938 417.196289062 332.9296875 437.227539062 332.9296875 c 0
 457.259765625 332.9296875 473.6484375 350.71875 473.6484375 372.461914062 c 0
EndSplineSet
EndChar

StartChar: five
Encoding: 71 53 70
Width: 742
VWidth: 24997
Flags: HW
LayerCount: 2
Fore
SplineSet
75.203125 206.29296875 m 0
 94.673828125 257.211914062 298.623046875 257.369140625 318.083007812 206.4921875 c 0
 337.666992188 155.27734375 398.400390625 160.884765625 412.55859375 215.21484375 c 0
 431.772460938 288.94921875 387.903320312 345.314453125 333.8828125 316.301757812 c 0
 278.418945312 286.513671875 163.463867188 284.897460938 118.840820312 313.27734375 c 0
 91.8681640625 330.432617188 91.3935546875 366.306640625 116.102539062 520.016601562 c 2
 146 706 l 1
 305.650390625 706 465.30078125 706 624.951171875 706 c 1
 624.951171875 608.53515625 l 2
 624.951171875 520.04296875 619.19140625 511.0703125 562.38671875 511.0703125 c 2
 499.822265625 511.0703125 l 1
 571.645507812 450.421875 l 2
 654.26171875 380.66015625 677.44921875 295.942382812 645.60546875 180.20703125 c 0
 612.134765625 58.55859375 521.620117188 -0.92578125 372.799804688 0.9248046875 c 0
 304.490234375 1.7744140625 224.65234375 12.1494140625 195.383789062 23.98046875 c 0
 127.479492188 51.4169921875 56.916015625 158.467773438 75.203125 206.29296875 c 0
552.245117188 371.336914062 m 0
 507.704101562 428.161132812 482.044921875 437.959960938 377.784179688 437.959960938 c 0
 276.293945312 437.959960938 258.046875 444.501953125 270.283203125 476.501953125 c 0
 278.389648438 497.700195312 285.021484375 525.112304688 285.021484375 537.416992188 c 0
 285.021484375 549.72265625 350.579101562 559.791015625 430.705078125 559.791015625 c 0
 560.203125 559.791015625 576.389648438 565.205078125 576.389648438 608.5234375 c 0
 576.389648438 652.884765625 560.203125 657.255859375 395.920898438 657.255859375 c 0
 196.541992188 657.255859375 205.958007812 665.415039062 174.952148438 465.775390625 c 2
 158.459960938 359.576171875 l 1
 283.16015625 376.787109375 l 2
 433.172851562 397.4921875 479.266601562 368.624023438 479.266601562 253.969726562 c 0
 479.266601562 169.881835938 427.666992188 96.8330078125 368.26953125 96.8330078125 c 0
 349.19140625 96.8330078125 310.885742188 119.610351562 283.14453125 147.44921875 c 0
 233.297851562 197.470703125 163.618164062 196.1328125 163.618164062 145.154296875 c 0
 163.618164062 101.137695312 316.002929688 46.9296875 404.973632812 59.2958984375 c 0
 450.916015625 65.6826171875 508.012695312 90.4853515625 531.857421875 114.412109375 c 0
 603.633789062 186.44140625 612.232421875 294.806640625 552.245117188 371.336914062 c 0
EndSplineSet
EndChar

StartChar: six
Encoding: 72 54 71
Width: 862
VWidth: 25229
Flags: HW
LayerCount: 2
Fore
SplineSet
243 21 m 0
 161.224609375 65.6015625 112.174804688 184.365234375 112.174804688 337.76953125 c 0
 112.174804688 584.940429688 210.6171875 691.080078125 439.862304688 691.080078125 c 0
 538.837890625 691.080078125 575.4921875 679.120117188 623.173828125 631.271484375 c 0
 697.11328125 557.071289062 699.21484375 506.149414062 629.09765625 487.748046875 c 2
 575.424804688 473.663085938 l 1
 627.297851562 417.899414062 l 2
 738.561523438 298.29296875 716.163085938 88.73828125 584.83203125 20.5859375 c 0
 497.577148438 -24.6943359375 326.401367188 -24.486328125 243 21 c 0
579.579101562 119.806640625 m 0
 647.65625 197.439453125 649.06640625 275.6953125 583.88671875 358.849609375 c 0
 532.387695312 424.55078125 409.879882812 448.400390625 379.262695312 398.685546875 c 0
 370.739257812 384.845703125 391.32421875 374.319335938 426.912109375 374.319335938 c 0
 546.383789062 374.319335938 573.9140625 165.190429688 462.330078125 105.262695312 c 0
 384.666992188 63.5517578125 294.280273438 133.866210938 294.280273438 235.993164062 c 0
 294.280273438 279.909179688 307.391601562 328.998046875 323.416992188 345.080078125 c 0
 346.079101562 367.821289062 346.079101562 374.319335938 323.416992188 374.319335938 c 0
 275.799804688 374.319335938 290.209960938 509.266601562 342.940429688 557.155273438 c 0
 383.483398438 593.975585938 401.899414062 596.637695312 453.345703125 573.114257812 c 0
 527.643554688 539.142578125 585.6484375 536.620117188 585.6484375 567.358398438 c 0
 585.6484375 602.724609375 427.024414062 646.131835938 359.729492188 629.182617188 c 0
 201.797851562 589.405273438 123.44140625 352.211914062 208.682617188 171.948242188 c 0
 278.84375 23.5732421875 471.447265625 -3.5029296875 579.579101562 119.806640625 c 0
460.298828125 227.274414062 m 0
 468.427734375 283.073242188 423.693359375 333.430664062 386.4921875 310.357421875 c 0
 362.768554688 295.64453125 360.815429688 193.83984375 383.815429688 170.759765625 c 0
 413.413085938 141.057617188 451.879882812 169.479492188 460.298828125 227.274414062 c 0
428.466796875 515.810546875 m 0
 420.990234375 523.3125 401.3984375 515.826171875 384.927734375 499.173828125 c 0
 361.126953125 475.109375 363.915039062 472.310546875 398.520507812 485.533203125 c 0
 422.466796875 494.68359375 435.942382812 508.30859375 428.466796875 515.810546875 c 0
EndSplineSet
EndChar

StartChar: seven
Encoding: 73 55 72
Width: 785
VWidth: 24829
Flags: HW
LayerCount: 2
Fore
SplineSet
217.79296875 46.1650390625 m 0
 217.79296875 114.532226562 312.490234375 409.844726562 339.856445312 426.81640625 c 0
 393.7578125 460.248046875 356.765625 487.32421875 257.188476562 487.32421875 c 0
 134.194335938 487.32421875 89.4013671875 527.0078125 100.706054688 625.956054688 c 2
 108.529296875 694.436523438 l 1
 298.727539062 699.013671875 488.926757812 703.58984375 679.125976562 708.166015625 c 1
 679.125976562 612.912109375 l 2
 679.125976562 555.874023438 663.75390625 504.854492188 640.811523438 485.74609375 c 0
 579.388671875 434.590820312 485.19140625 228.358398438 468.955078125 109.497070312 c 2
 454 0 l 1
 335.896484375 0 l 2
 236.170898438 0 217.79296875 7.1826171875 217.79296875 46.1650390625 c 0
412.915039062 176.655273438 m 0
 449.329101562 331.9375 510.810546875 459.290039062 579.419921875 521.557617188 c 0
 607.551757812 547.087890625 630.564453125 588.206054688 630.564453125 612.931640625 c 0
 630.564453125 653.473632812 607.920898438 657.887695312 399.8984375 657.887695312 c 0
 185.418945312 657.887695312 169.231445312 654.467773438 169.231445312 609.155273438 c 0
 169.231445312 565.890625 185.418945312 560.422851562 313.482421875 560.422851562 c 0
 392.822265625 560.422851562 464.049804688 550.166992188 471.76953125 537.6328125 c 0
 479.490234375 525.099609375 452.681640625 462.4296875 412.198242188 398.368164062 c 0
 294.8671875 212.70703125 259.495117188 48.732421875 336.775390625 48.732421875 c 0
 372.439453125 48.732421875 389.7265625 77.7763671875 412.915039062 176.655273438 c 0
EndSplineSet
EndChar

StartChar: eight
Encoding: 74 56 73
Width: 966
VWidth: 25170
Flags: HW
LayerCount: 2
Fore
SplineSet
209 306 m 0
 232.217773438 353.1484375 235.364257812 392.202148438 219.53515625 436.802734375 c 0
 163.954101562 593.416015625 275.135742188 702.162109375 490.833984375 702.162109375 c 0
 682.095703125 702.162109375 791.854492188 588.141601562 737.838867188 445.567382812 c 0
 720.022460938 398.5390625 719.830078125 369.645507812 737.231445312 352.194335938 c 0
 779.756835938 309.517578125 766.786132812 128.190429688 716.772460938 66.2109375 c 0
 678.817382812 19.1708984375 643.051757812 8.0693359375 504.31640625 0.2666015625 c 0
 362.674804688 -7.701171875 327.706054688 -1.3662109375 272.59375 42.2421875 c 0
 191.340820312 106.525390625 164.860351562 216.368164062 209 306 c 0
589.326171875 71.203125 m 0
 717.0546875 115.88671875 750.499023438 226.782226562 662.794921875 314.796875 c 0
 612.62109375 365.146484375 612.506835938 367.436523438 656.1328125 448.728515625 c 0
 700.0390625 530.546875 699.9296875 532.022460938 645.802734375 586.33984375 c 0
 605.7421875 626.541015625 562.6875 641.24609375 485.05078125 641.24609375 c 0
 320.774414062 641.24609375 216.063476562 515.041992188 313.208007812 434.133789062 c 0
 361.495117188 393.918945312 359.171875 370.610351562 301.067382812 312.302734375 c 0
 153.4921875 164.20703125 360.426757812 -8.8720703125 589.326171875 71.203125 c 0
416.401367188 119.325195312 m 0
 362.537109375 150.809570312 359.501953125 294.3359375 411.783203125 337.876953125 c 0
 438.788085938 360.368164062 468.3984375 362.845703125 514.9765625 346.51171875 c 0
 594.6484375 318.573242188 618.057617188 195.294921875 555.592773438 132.612304688 c 0
 510.418945312 87.2783203125 476.731445312 84.0625 416.401367188 119.325195312 c 0
515.213867188 235.020507812 m 0
 520.2578125 269.413085938 510.134765625 287.936523438 486.295898438 287.936523438 c 0
 438.443359375 287.936523438 418.508789062 253.555664062 437.525390625 203.823242188 c 0
 457.9921875 150.299804688 505.59375 169.415039062 515.213867188 235.020507812 c 0
390.09765625 426.01171875 m 0
 355.631835938 460.599609375 376.012695312 555.37890625 423.389648438 580.823242188 c 0
 523.430664062 634.552734375 635.99609375 528.346679688 567.189453125 445.147460938 c 0
 537.435546875 409.168945312 419.572265625 396.43359375 390.09765625 426.01171875 c 0
519.594726562 508.669921875 m 0
 519.594726562 521.280273438 503.205078125 531.598632812 483.172851562 531.598632812 c 0
 445.625976562 531.598632812 434.934570312 502.846679688 462.280273438 475.40625 c 0
 481.6796875 455.939453125 519.594726562 477.9453125 519.594726562 508.669921875 c 0
EndSplineSet
EndChar

StartChar: nine
Encoding: 75 57 74
Width: 861
VWidth: 24846
Flags: HW
LayerCount: 2
Fore
SplineSet
147.7265625 169.456054688 m 0
 147.7265625 209.368164062 163.446289062 219.3671875 226.638671875 219.655273438 c 2
 305.551757812 220.013671875 l 1
 245.330078125 250.591796875 l 2
 160.452148438 293.688476562 119.46875 384.600585938 133.133789062 499.467773438 c 0
 150.157226562 642.5546875 234.685546875 706.619140625 406.45703125 706.619140625 c 0
 527.178710938 706.619140625 549.596679688 698.06640625 623.62890625 623.774414062 c 0
 703.220703125 543.903320312 706.18359375 534.192382812 706.18359375 353.309570312 c 0
 706.18359375 172.42578125 703.220703125 162.71484375 623.62890625 82.8447265625 c 0
 549.2421875 8.1953125 527.515625 0 404 0 c 0
 290.836914062 0 256.526367188 10.4326171875 207.326171875 59.8076171875 c 0
 174.546875 92.7021484375 147.7265625 142.043945312 147.7265625 169.456054688 c 0
563.720703125 112.573242188 m 0
 725.916015625 259.874023438 653.623046875 609.2109375 453.134765625 646.955078125 c 0
 254.9765625 684.259765625 112.048828125 474.395507812 244.849609375 341.126953125 c 0
 295.649414062 290.150390625 425.413085938 274.830078125 451.235351562 316.760742188 c 0
 459.622070312 330.375 440.967773438 341.126953125 408.965820312 341.126953125 c 0
 334.513671875 341.126953125 293.321289062 384.263671875 293.78515625 461.740234375 c 0
 294.247070312 540.962890625 316.465820312 574.036132812 383.22265625 594.934570312 c 0
 482.688476562 626.072265625 572.270507812 484.794921875 512.84765625 390.502929688 c 0
 498.282226562 367.388671875 499.5546875 348.806640625 516.421875 338.346679688 c 0
 557.602539062 312.805664062 516.884765625 150.56640625 461.87109375 121.0234375 c 0
 425.216796875 101.3359375 396.87109375 105.34765625 341.750976562 138.021484375 c 0
 288.499023438 169.58984375 262.487304688 173.641601562 242.412109375 153.49609375 c 0
 222.3359375 133.350585938 233.401367188 116.000976562 284.665039062 87.2392578125 c 0
 367.229492188 40.9169921875 497.87890625 52.7783203125 563.720703125 112.573242188 c 0
457.818359375 214.744140625 m 0
 463.732421875 232.549804688 452.631835938 237.995117188 428.985351562 228.888671875 c 0
 407.8359375 220.745117188 390.534179688 203.376953125 390.534179688 190.291992188 c 0
 390.534179688 158.265625 445.71875 178.3203125 457.818359375 214.744140625 c 0
458.595703125 470.2421875 m 0
 454.55078125 497.639648438 437.590820312 524.568359375 420.904296875 530.083007812 c 0
 384.454101562 542.12890625 355.572265625 477.321289062 374.8828125 426.819335938 c 0
 395.317382812 373.380859375 467.377929688 410.758789062 458.595703125 470.2421875 c 0
EndSplineSet
EndChar

StartChar: less
Encoding: 76 60 75
Width: 1004
VWidth: 25232
Flags: HW
LayerCount: 2
Fore
SplineSet
451.666992188 109.694335938 m 2
 221 212 l 1
 221 275.55078125 221 339.102539062 221 402.653320312 c 1
 462.909179688 508.498046875 l 2
 595.958007812 566.711914062 718.87890625 608.926757812 736.067382812 602.307617188 c 0
 776.154296875 586.870117188 776.846679688 431.736328125 736.96484375 399.97265625 c 0
 720.271484375 386.677734375 663.384765625 361.807617188 610.549804688 344.708007812 c 2
 514.485351562 313.616210938 l 1
 642.408203125 256.961914062 l 2
 767.19921875 201.693359375 770.14453125 198.057617188 762.752929688 108.424804688 c 0
 757.85546875 49.0654296875 742.282226562 14.9228515625 718.75390625 11.9658203125 c 0
 698.72265625 9.4482421875 578.533203125 53.4267578125 451.666992188 109.694335938 c 2
694.473632812 122.815429688 m 0
 694.473632812 156.426757812 655.794921875 183.092773438 548.790039062 223.250976562 c 0
 468.663085938 253.321289062 403.10546875 291.698242188 403.10546875 308.532226562 c 0
 403.10546875 325.366210938 468.663085938 363.743164062 548.790039062 393.814453125 c 0
 630.015625 424.296875 694.473632812 463.345703125 694.473632812 482.06640625 c 0
 694.473632812 529.76953125 673.602539062 525.494140625 460.083007812 434.05859375 c 0
 205.049804688 324.844726562 206.987304688 293.022460938 475.947265625 173.30859375 c 0
 589.459960938 122.784179688 685.065429688 80.4580078125 688.404296875 79.25 c 0
 691.7421875 78.0400390625 694.473632812 97.646484375 694.473632812 122.815429688 c 0
EndSplineSet
EndChar

StartChar: parenleft
Encoding: 77 40 76
Width: 698
VWidth: 24507
Flags: HW
LayerCount: 2
Fore
SplineSet
313 -32 m 4
 216.622070312 78.3076171875 185.8125 179.885742188 185.356445312 388.826171875 c 4
 184.96875 564.05078125 194.575195312 615.37890625 246.883789062 717.76953125 c 4
 302.459960938 826.5546875 318.139648438 839.873046875 398.637695312 846.653320312 c 4
 448.014648438 850.813476562 488.413085938 847.033203125 488.413085938 838.252929688 c 4
 488.413085938 829.473632812 465.103515625 745.272460938 436.610351562 651.139648438 c 4
 378.286132812 458.436523438 383.962890625 243.373046875 451.671875 80.75390625 c 4
 472.71875 30.20703125 484.47265625 -25.4345703125 477.797851562 -42.8955078125 c 4
 460.259765625 -88.75390625 356.600585938 -81.9013671875 313 -32 c 4
375.651367188 698.985351562 m 4
 430.090820312 848.26171875 382.223632812 826.418945312 304.198242188 666.381835938 c 4
 215.061523438 483.549804688 215.0390625 301.034179688 304.198242188 124.595703125 c 4
 381.087890625 -27.6728515625 424.4140625 -41.91796875 372.880859375 102.013671875 c 4
 324.455078125 237.083007812 326.001953125 562.850585938 375.651367188 698.985351562 c 4
EndSplineSet
EndChar

StartChar: parenright
Encoding: 78 41 77
Width: 540
VWidth: 25274
Flags: HW
LayerCount: 2
Fore
SplineSet
135.032226562 -27.3310546875 m 0
 135.032226562 -2.212890625 151.421875 64.9541015625 171.453125 121.9296875 c 0
 191.484375 178.905273438 207.874023438 299.517578125 207.874023438 389.958007812 c 0
 207.874023438 480.3984375 191.484375 601.010742188 171.453125 657.986328125 c 0
 115.677734375 816.630859375 122.391601562 852.916015625 207.532226562 852.916015625 c 0
 297.61328125 852.916015625 386.584960938 729.373046875 426.87890625 548.337890625 c 0
 486.658203125 279.774414062 354.4375 -73 194 -73 c 0
 152.538085938 -73 135.032226562 -59.4423828125 135.032226562 -27.3310546875 c 0
313.823242188 143.250976562 m 0
 395.705078125 326.350585938 397.407226562 480.779296875 319.3984375 648.909179688 c 0
 287.514648438 717.624023438 249.376953125 781.318359375 234.651367188 790.452148438 c 0
 199.689453125 812.13671875 201.104492188 791.768554688 244.560546875 648.022460938 c 0
 264.446289062 582.235351562 280.716796875 466.106445312 280.716796875 389.958007812 c 0
 280.716796875 313.809570312 264.446289062 197.680664062 244.560546875 131.893554688 c 0
 201.607421875 -10.1904296875 202.8359375 0.0986328125 228.840820312 0.0986328125 c 0
 240.37109375 0.0986328125 278.61328125 64.517578125 313.823242188 143.250976562 c 0
EndSplineSet
EndChar

StartChar: comma
Encoding: 79 44 78
Width: 697
VWidth: 25040
Flags: HW
LayerCount: 2
Fore
SplineSet
247.477539062 -62.8671875 m 0
 290.153320312 -30.4169921875 290.192382812 -28.8466796875 248.352539062 -28.107421875 c 0
 211.307617188 -27.451171875 205.677734375 -9.435546875 211.931640625 88.4072265625 c 2
 219.333007812 204.146484375 l 1
 296.221679688 209.09765625 373.111328125 214.048828125 450 219 c 1
 450 63.5322265625 l 2
 450 -67.4716796875 441.159179688 -100.272460938 393.8046875 -144.916015625 c 0
 322.044921875 -212.567382812 239.752929688 -213.72265625 218.766601562 -147.374023438 c 0
 207.924804688 -113.09765625 217.161132812 -85.923828125 247.477539062 -62.8671875 c 0
401.434570312 60.6494140625 m 0
 401.434570312 132.493164062 393.543945312 143.231445312 340.733398438 143.231445312 c 0
 292.171875 143.231445312 280.03125 131.048828125 280.03125 82.31640625 c 0
 280.03125 44.4130859375 293.791015625 21.400390625 316.452148438 21.400390625 c 0
 354.51953125 21.400390625 366.060546875 -49.1845703125 334.663085938 -89.9814453125 c 0
 324.647460938 -102.99609375 335.560546875 -93.009765625 358.943359375 -67.7890625 c 0
 382.313476562 -42.568359375 401.434570312 15.228515625 401.434570312 60.6494140625 c 0
EndSplineSet
EndChar

StartChar: dollar
Encoding: 80 36 79
Width: 18424
VWidth: 24899
Flags: H
LayerCount: 2
Fore
SplineSet
351.830078125 -27.615234375 m 2
 351.830078125 -27.615234375 335.643554688 21.115234375 301.390625 21.115234375 c 0
 236.717773438 21.115234375 109.032226562 148.532226562 109.032226562 213.083007812 c 0
 109.032226562 250.338867188 129.979492188 266.525390625 193.822265625 278.537109375 c 0
 240.453125 287.326171875 295.653320312 287.936523438 316.478515625 279.928710938 c 0
 338.231445312 271.5546875 348.045898438 275.583007812 339.525390625 289.42578125 c 0
 331.346679688 302.682617188 308.446289062 313.522460938 288.59765625 313.522460938 c 0
 219.115234375 313.522460938 133.299804688 427.975585938 133.299804688 520.626953125 c 0
 133.299804688 620.48046875 220.750976562 727.731445312 302.171875 727.731445312 c 0
 329.491210938 727.731445312 351.830078125 738.693359375 351.830078125 752.096679688 c 5
 333 789 371.6015625 786 405 786 c 0
 438.374023438 786 477 782.71875 477 771 c 4
 477 759.256835938 509.43636082 716.351679313 548.88671875 708.427734375 c 0
 628.500976562 692.436523438 708.75 591.166992188 686.948242188 534.16015625 c 0
 677.573242188 509.6484375 638.364257812 497.026367188 568.955078125 496.220703125 c 2
 465 495 l 1
 564.8046875 446.391601562 l 2
 661.655273438 399.19921875 720.053710938 319.340820312 719.858398438 234.35546875 c 0
 719.6875 153.59375 625.302734375 33.7451171875 549.9609375 18.6328125 c 0
 500.131835938 8.623046875 477.133789062 -10.3955078125 477.133789062 -41.669921875 c 0
 477.133789062 -74.1650390625 459.604492188 -87.3486328125 416.440429688 -87.3486328125 c 0
 371.93359375 -87.3486328125 355.747070312 -74.3603515625 355.747070312 -38.6181640625 c 2
 351.830078125 -27.615234375 l 2
609.59375 161.49609375 m 0
 698.436523438 278.903320312 610.643554688 381.076171875 345.750976562 468.52734375 c 0
 320.3359375 476.901367188 303.270507812 507.028320312 303.270507812 543.478515625 c 0
 303.270507812 598.141601562 312.669921875 604.147460938 394.310546875 601.779296875 c 0
 444.408203125 600.314453125 498.55859375 588.7421875 514.671875 576.046875 c 0
 545.23828125 551.950195312 594.627929688 569.674804688 594.627929688 604.733398438 c 0
 594.627929688 615.915039062 554.076171875 641.305664062 504.491210938 661.154296875 c 0
 430.565429688 690.744140625 398.875976562 691.891601562 328.44140625 667.575195312 c 0
 162.059570312 610.12890625 153.001953125 457.809570312 311.278320312 378.512695312 c 0
 360.27734375 353.952148438 400.389648438 325.314453125 400.389648438 314.889648438 c 0
 400.389648438 304.440429688 426.415039062 300.900390625 458.250976562 307.00390625 c 0
 527.611328125 320.309570312 555.8828125 282.931640625 536.131835938 204.000976562 c 0
 523.75390625 154.46484375 507.201171875 146.212890625 422.728515625 147.384765625 c 0
 362.010742188 148.21484375 318.846679688 161.740234375 310.936523438 182.39453125 c 0
 294.65234375 224.997070312 174.120117188 228.122070312 187.157226562 185.592773438 c 0
 192.284179688 168.844726562 245.091796875 131.466796875 304.515625 102.536132812 c 0
 403.24609375 54.46484375 419.627929688 52.90234375 495.018554688 84.5185546875 c 0
 540.404296875 103.537109375 591.942382812 138.180664062 609.59375 161.49609375 c 0
EndSplineSet
EndChar

StartChar: percent
Encoding: 81 37 80
Width: 1027
VWidth: 25084
Flags: HW
LayerCount: 2
Fore
SplineSet
249.291992188 593.26953125 m 0
 249.291992188 620.076171875 238.354492188 642 225 642 c 0
 211.645507812 642 200.708007812 620.076171875 200.708007812 593.26953125 c 0
 200.708007812 566.462890625 211.645507812 544.5390625 225 544.5390625 c 0
 238.354492188 544.5390625 249.291992188 566.462890625 249.291992188 593.26953125 c 0
202 60 m 0
 202.1953125 76.748046875 245.676757812 170.205078125 298.630859375 267.690429688 c 0
 372.947265625 404.53125 384.299804688 439.248046875 348.435546875 419.985351562 c 0
 322.874023438 406.264648438 263.010742188 395.034179688 215.403320312 395.034179688 c 0
 97.0927734375 395.034179688 31.6875 464.418945312 31.6875 589.956054688 c 0
 31.6875 719.912109375 96.43359375 784.90234375 225.950195312 784.90234375 c 0
 352.244140625 784.90234375 419.7734375 719.619140625 421.360351562 596.059570312 c 2
 422.532226562 504.677734375 l 1
 494.578125 644.790039062 l 2
 557.908203125 767.885742188 575.4375 784.90234375 639.109375 784.90234375 c 0
 678.953125 784.90234375 711.545898438 773.647460938 711.545898438 759.926757812 c 0
 711.545898438 746.181640625 674.143554688 660.366210938 628.391601562 569.228515625 c 2
 545.237304688 403.505859375 l 1
 670.920898438 413.979492188 l 2
 829.34375 427.163085938 888.1328125 374.819335938 888.1328125 220.571289062 c 0
 888.1328125 92.5927734375 820.9453125 29.53125 684.592773438 29.53125 c 0
 561.130859375 29.53125 493.430664062 95.888671875 491.868164062 218.374023438 c 2
 490.696289062 309.755859375 l 1
 418.625976562 169.643554688 l 2
 355.3203125 46.5478515625 337.766601562 29.53125 274.119140625 29.53125 c 0
 232.151367188 29.53125 201.8046875 42.373046875 202 60 c 0
784.397460938 127.016601562 m 0
 811.106445312 153.798828125 832.95703125 197.670898438 832.95703125 224.477539062 c 0
 832.95703125 285.219726562 750.510742188 370.668945312 691.916992188 370.668945312 c 0
 580.979492188 370.668945312 515.037109375 238.491210938 583.518554688 153.45703125 c 0
 626.145507812 100.502929688 626.584960938 101.137695312 626.584960938 217.055664062 c 0
 626.584960938 325.673828125 630.955078125 334.12109375 687.278320312 334.12109375 c 0
 741.35546875 334.12109375 748.801757812 322.79296875 755.466796875 230.288085938 c 0
 761.887695312 141.030273438 755.076171875 123.330078125 706.8828125 103.920898438 c 0
 664.890625 87.0263671875 661.497070312 80.9716796875 693.357421875 79.82421875 c 0
 716.721679688 78.9697265625 757.688476562 100.209960938 784.397460938 127.016601562 c 0
711.545898438 229.3359375 m 0
 711.545898438 268.715820312 704.368164062 275.747070312 684.543945312 255.825195312 c 0
 669.67578125 240.908203125 664.866210938 216.787109375 673.826171875 202.236328125 c 0
 698.948242188 161.440429688 711.545898438 170.522460938 711.545898438 229.3359375 c 0
325.4140625 490.752929688 m 4
 379.637695312 545.171875 386.131835938 592.974609375 348.8515625 662.920898438 c 4
 308.03125 739.458984375 288.98828125 717.657226562 288.98828125 594.366210938 c 0
 288.98828125 487.090820312 284.520507812 478.5703125 228.294921875 478.5703125 c 0
 172.069335938 478.5703125 167.6015625 487.090820312 167.6015625 594.366210938 c 0
 167.6015625 658.038085938 159.7890625 710.11328125 150.243164062 710.088867188 c 0
 126.415039062 710.040039062 82.6162109375 624.249023438 82.6162109375 577.642578125 c 0
 82.6162109375 523.833984375 170.482421875 442.022460938 228.294921875 442.022460938 c 0
 255.00390625 442.022460938 298.705078125 463.946289062 325.4140625 490.752929688 c 4
EndSplineSet
EndChar

StartChar: exclam
Encoding: 82 33 81
Width: 13177
VWidth: 24614
Flags: HW
LayerCount: 2
Fore
SplineSet
44.87109375 43.7998046875 m 0
 43.357421875 47.14453125 38.62109375 206.12890625 34.3486328125 397.095703125 c 2
 26.609375 744.3125 l 1
 145.432617188 744.3125 l 1
 264.255859375 744.3125 l 1
 261.643554688 391.016601562 l 1
 259.03125 37.6962890625 l 1
 153.342773438 37.6962890625 l 2
 95.212890625 37.6962890625 46.384765625 40.4306640625 44.87109375 43.7998046875 c 0
217.600585938 135.157226562 m 0
 217.600585938 170.899414062 201.4140625 183.887695312 156.907226562 183.887695312 c 0
 112.400390625 183.887695312 96.2138671875 170.899414062 96.2138671875 135.157226562 c 0
 96.2138671875 99.4150390625 112.400390625 86.4267578125 156.907226562 86.4267578125 c 0
 201.4140625 86.4267578125 217.600585938 99.4150390625 217.600585938 135.157226562 c 0
177 324 m 0
 182.95703125 334.05859375 195.627929688 421.778320312 205.173828125 518.921875 c 2
 222.532226562 695.58203125 l 1
 159.373046875 695.58203125 l 2
 99.9736328125 695.58203125 96.2138671875 688.501953125 96.2138671875 576.807617188 c 0
 96.2138671875 375.7578125 135.276367188 253.516601562 177 324 c 0
EndSplineSet
EndChar

StartChar: numbersign
Encoding: 83 35 82
Width: 670
VWidth: 25063
Flags: HW
LayerCount: 2
Fore
SplineSet
52.2138671875 97.302734375 m 1
 62.1748046875 150.57421875 58.634765625 182.581054688 42.7900390625 182.581054688 c 0
 28.8251953125 182.581054688 17.3994140625 220.959960938 17.3994140625 267.859375 c 0
 17.3994140625 336.90234375 26.65234375 353.137695312 65.958984375 353.137695312 c 0
 92.66796875 353.137695312 114.518554688 364.099609375 114.518554688 377.502929688 c 0
 114.518554688 390.90625 92.66796875 401.868164062 65.958984375 401.868164062 c 0
 26.8232421875 401.868164062 17.3994140625 418.103515625 17.3994140625 485.53515625 c 0
 17.3994140625 558.362304688 25.919921875 570.203125 83.2197265625 576.916992188 c 0
 130.338867188 582.434570312 153.01953125 601.916992188 163.078125 645.520507812 c 0
 174.625976562 695.520507812 193.83984375 707.825195312 270.231445312 714.197265625 c 0
 361.784179688 721.790039062 363.151367188 720.666992188 352.287109375 646.423828125 c 0
 340.470703125 565.61328125 371.061523438 576.013671875 385.5390625 657.703125 c 0
 392.106445312 694.8125 416.569335938 708.2890625 488.004882812 714.197265625 c 0
 579.97265625 721.765625 581.6328125 720.447265625 571.061523438 648.108398438 c 0
 564.176757812 601.0625 571.891601562 569.8125 592.350585938 561.951171875 c 0
 644.669921875 541.809570312 631.950195312 423.645507812 575.87109375 408.923828125 c 0
 512.956054688 392.419921875 513.810546875 362.366210938 577.653320312 345.618164062 c 0
 616.30078125 335.461914062 626.1640625 316.418945312 620.133789062 263.586914062 c 0
 613.932617188 209.241210938 598.380859375 193.15234375 546.330078125 187.122070312 c 0
 492.619140625 180.920898438 477.458007812 163.953125 464.713867188 95.740234375 c 0
 450.016601562 17.2001953125 443.131835938 12 353.532226562 12 c 2
 258 12 l 1
 273.063476562 103.381835938 l 2
 284.26953125 171.375 281.53515625 185.413085938 262.39453125 158.215820312 c 0
 248.258789062 138.098632812 236.515625 96.9853515625 236.295898438 66.833984375 c 0
 235.978515625 18.93359375 223.33203125 12 136.100585938 12 c 2
 36.271484375 12 l 1
 52.2138671875 97.302734375 l 1
187.467773438 148.03515625 m 0
 197.794921875 207.947265625 212.58984375 220.349609375 281.559570312 226.990234375 c 2
 363.395507812 234.8515625 l 1
 346.647460938 145.227539062 l 2
 333.830078125 76.6728515625 337.39453125 58.1181640625 361.833007812 66.296875 c 0
 379.38671875 72.15625 399.259765625 108.923828125 405.998046875 148.03515625 c 0
 415.592773438 203.674804688 432.755859375 220.7890625 484.928710938 226.84375 c 0
 561.442382812 235.681640625 577.482421875 304.407226562 503.01953125 304.407226562 c 0
 466.935546875 304.407226562 454.459960938 320.642578125 454.459960938 367.590820312 c 0
 454.459960938 410.315429688 470.20703125 434.924804688 503.01953125 443.54296875 c 0
 551.994140625 456.384765625 572.379882812 523.694335938 527.287109375 523.694335938 c 0
 513.932617188 523.694335938 503.01953125 556.604492188 503.01953125 596.790039062 c 0
 503.01953125 691.296875 463.004882812 691.296875 442.326171875 596.790039062 c 0
 428.99609375 535.92578125 414.4453125 523.694335938 355.412109375 523.694335938 c 0
 292.790039062 523.694335938 284.489257812 532.263671875 284.489257812 596.790039062 c 0
 284.489257812 691.296875 244.474609375 691.296875 223.795898438 596.790039062 c 0
 210.465820312 535.92578125 195.915039062 523.694335938 136.881835938 523.694335938 c 0
 90.03125 523.694335938 65.958984375 511.291992188 65.958984375 487.146484375 c 0
 65.958984375 464.416992188 88.8837890625 450.598632812 126.676757812 450.598632812 c 0
 191.520507812 450.598632812 194.743164062 444.153320312 172.0625 359.216796875 c 0
 163.444335938 326.990234375 138.590820312 304.407226562 111.686523438 304.407226562 c 0
 86.5400390625 304.407226562 65.958984375 287.952148438 65.958984375 267.859375 c 0
 65.958984375 247.7421875 83.5615234375 231.311523438 105.094726562 231.311523438 c 0
 136.857421875 231.311523438 141.129882812 214.807617188 127.799804688 143.469726562 c 0
 115.275390625 76.501953125 118.961914062 58.1669921875 143.302734375 66.296875 c 0
 160.856445312 72.15625 180.729492188 108.923828125 187.467773438 148.03515625 c 0
235.9296875 377.502929688 m 0
 235.9296875 445.251953125 242.350585938 450.598632812 323.747070312 450.598632812 c 0
 402.970703125 450.598632812 410.124023438 445.227539062 396.916015625 395.7890625 c 0
 388.859375 365.61328125 382.12109375 332.727539062 381.950195312 322.668945312 c 0
 381.754882812 312.634765625 348.844726562 304.407226562 308.78125 304.407226562 c 0
 244.010742188 304.407226562 235.9296875 312.537109375 235.9296875 377.502929688 c 0
EndSplineSet
EndChar

StartChar: ampersand
Encoding: 84 38 83
Width: 898
VWidth: 24988
Flags: HW
LayerCount: 2
Fore
SplineSet
144 88 m 0
 58.892578125 155.1875 54.1806640625 306.286132812 134.649414062 386.706054688 c 0
 178.521484375 430.553710938 187.84765625 463.512695312 181.98828125 553.91796875 c 0
 175.860351562 648.131835938 183.697265625 672.86328125 229.864257812 705.333984375 c 0
 301.861328125 755.919921875 513.018554688 756.432617188 584.502929688 706.188476562 c 0
 655.059570312 656.603515625 657.96484375 520.006835938 589.922851562 451.745117188 c 0
 541.36328125 402.990234375 541.36328125 402.990234375 612.212890625 402.990234375 c 0
 720.07421875 402.990234375 759.893554688 379.2109375 759.893554688 314.782226562 c 0
 759.893554688 282.53125 773.467773438 234.313476562 790.044921875 207.653320312 c 0
 845.220703125 119.030273438 726.51953125 1.037109375 637.994140625 56.505859375 c 0
 602.935546875 78.5029296875 575.469726562 80.1875 542.388671875 62.4384765625 c 0
 516.875976562 48.7177734375 431.182617188 37.51171875 351.983398438 37.51171875 c 0
 243.047851562 37.51171875 192.388671875 49.81640625 144 88 c 0
505.81640625 124.352539062 m 0
 595.831054688 155.016601562 624.76171875 156.505859375 654.180664062 131.994140625 c 0
 683.697265625 107.43359375 694.854492188 108.239257812 712.06640625 136.193359375 c 0
 726.299804688 159.2890625 720.953125 177.819335938 696.026367188 191.80859375 c 0
 670.342773438 206.237304688 663.482421875 231.994140625 674.053710938 274.279296875 c 0
 688.091796875 330.3828125 684.014648438 334.435546875 627.837890625 320.275390625 c 0
 558.575195312 302.819335938 468.51171875 347.887695312 468.51171875 399.987304688 c 0
 468.51171875 418.6640625 495.831054688 459.362304688 529.205078125 490.416992188 c 0
 599.981445312 556.237304688 603.838867188 580.48046875 551.788085938 632.702148438 c 0
 495.293945312 689.416015625 403.985351562 704.772460938 323.174804688 671.178710938 c 0
 236.67578125 635.216796875 214.21484375 576.76953125 253.5703125 490.099609375 c 0
 280.401367188 430.993164062 276.275390625 419.274414062 205.767578125 354.650390625 c 0
 163.311523438 315.758789062 128.594726562 273.229492188 128.594726562 260.16796875 c 0
 128.594726562 200.280273438 166.216796875 151.256835938 235.40625 121.032226562 c 0
 333.672851562 78.1123046875 371.465820312 78.576171875 505.81640625 124.352539062 c 0
259.454101562 194.127929688 m 0
 237.359375 251.8671875 259.52734375 335.4609375 304.400390625 363.708007812 c 0
 338.82421875 385.36328125 360.89453125 376.037109375 423.174804688 313.561523438 c 0
 523.19921875 213.170898438 505.108398438 159.337890625 371.392578125 159.337890625 c 0
 308.331054688 159.337890625 267.950195312 171.88671875 259.454101562 194.127929688 c 0
383.404296875 256.9453125 m 0
 335.088867188 310.534179688 308.599609375 304.796875 331.20703125 245.666015625 c 0
 339.1171875 224.987304688 364.01953125 208.068359375 386.529296875 208.068359375 c 0
 423.907226562 208.068359375 423.614257812 212.340820312 383.404296875 256.9453125 c 0
348.223632812 486.950195312 m 0
 332.208007812 506.310546875 322.662109375 547.423828125 327.032226562 578.307617188 c 0
 333.306640625 622.716796875 350.25 634.484375 407.818359375 634.484375 c 0
 466.583007812 634.484375 482.28125 622.985351562 489.01953125 574.938476562 c 0
 494.170898438 538.317382812 480.694335938 503.112304688 454.034179688 483.556640625 c 0
 398.931640625 443.126953125 384.063476562 443.590820312 348.223632812 486.950195312 c 0
431.060546875 547.521484375 m 0
 438.750976562 559.997070312 433.916992188 577.086914062 420.342773438 585.509765625 c 0
 406.768554688 593.908203125 395.66015625 583.703125 395.66015625 562.829101562 c 0
 395.66015625 520.03125 410.235351562 513.708007812 431.060546875 547.521484375 c 0
EndSplineSet
EndChar

StartChar: period
Encoding: 85 46 84
Width: 338
VWidth: 24628
Flags: HW
LayerCount: 2
Fore
SplineSet
22.24609375 131.831054688 m 1
 29.66796875 247.553710938 l 1
 145 255 l 1
 260.33203125 262.421875 l 1
 260.33203125 139.252929688 l 1
 260.33203125 16.083984375 l 1
 137.602539062 16.083984375 l 1
 14.8486328125 16.083984375 l 1
 22.24609375 131.831054688 l 1
211.772460938 125.727539062 m 0
 211.772460938 174.458007812 199.614257812 186.640625 151.0546875 186.640625 c 0
 102.495117188 186.640625 90.361328125 174.458007812 90.361328125 125.727539062 c 0
 90.361328125 76.9970703125 102.495117188 64.814453125 151.0546875 64.814453125 c 0
 199.614257812 64.814453125 211.772460938 76.9970703125 211.772460938 125.727539062 c 0
EndSplineSet
EndChar

StartChar: slash
Encoding: 86 47 85
Width: 414
VWidth: 25232
Flags: HW
LayerCount: 2
Fore
SplineSet
29.1142578125 95.9716796875 m 0
 38.0009765625 148.754882812 74.4755859375 304.98046875 110.168945312 443.188476562 c 0
 171.448242188 680.46875 178.772460938 694.873046875 241.833984375 702.1484375 c 0
 325.403320312 711.791992188 327.307617188 677.075195312 258.97265625 389.868164062 c 0
 162.561523438 -15.33203125 169.32421875 0 87 0 c 0
 14.2705078125 0 13.2451171875 1.6845703125 29.1142578125 95.9716796875 c 0
106.653320312 102.026367188 m 2
 98.9140625 121.459960938 93.15234375 115.698242188 91.98046875 87.3046875 c 0
 90.9306640625 61.62109375 96.66796875 47.2412109375 104.749023438 55.322265625 c 0
 112.805664062 63.427734375 113.66015625 84.4482421875 106.653320312 102.026367188 c 2
 106.653320312 102.026367188 l 2
130.9453125 199.487304688 m 0
 123.181640625 218.9453125 117.444335938 213.159179688 116.272460938 184.765625 c 0
 115.22265625 159.08203125 120.959960938 144.702148438 129.016601562 152.807617188 c 0
 137.09765625 160.888671875 137.952148438 181.909179688 130.9453125 199.487304688 c 0
155.212890625 296.97265625 m 0
 147.473632812 316.40625 141.711914062 310.620117188 140.540039062 282.250976562 c 0
 139.514648438 256.567382812 145.227539062 242.163085938 153.30859375 250.268554688 c 0
 161.365234375 258.349609375 162.219726562 279.370117188 155.212890625 296.97265625 c 0
179.504882812 394.43359375 m 0
 171.741210938 413.8671875 166.00390625 408.081054688 164.83203125 379.711914062 c 0
 163.782226562 354.028320312 169.51953125 339.624023438 177.576171875 347.729492188 c 0
 185.657226562 355.810546875 186.51171875 376.831054688 179.504882812 394.43359375 c 0
203.772460938 491.89453125 m 0
 196.033203125 511.328125 190.271484375 505.56640625 189.099609375 477.172851562 c 0
 188.07421875 451.489257812 193.787109375 437.084960938 201.868164062 445.190429688 c 0
 209.924804688 453.295898438 210.803710938 474.291992188 203.772460938 491.89453125 c 0
228.064453125 589.35546875 m 0
 220.30078125 608.7890625 214.563476562 603.02734375 213.391601562 574.633789062 c 0
 212.341796875 548.950195312 218.079101562 534.5703125 226.135742188 542.651367188 c 0
 234.216796875 550.756835938 235.071289062 571.77734375 228.064453125 589.35546875 c 0
EndSplineSet
EndChar

StartChar: plus
Encoding: 87 43 86
Width: 605
VWidth: 24602
Flags: HW
LayerCount: 2
Fore
SplineSet
193.880859375 183.278320312 m 0
 193.880859375 264.50390625 189.828125 268.581054688 108.895507812 268.581054688 c 0
 25.9365234375 268.581054688 23.91015625 270.900390625 23.91015625 366.041992188 c 0
 23.91015625 461.18359375 25.9365234375 463.502929688 108.895507812 463.502929688 c 0
 189.828125 463.502929688 193.880859375 467.555664062 193.880859375 548.78125 c 0
 193.880859375 632.033203125 196.200195312 634.059570312 291 634.059570312 c 0
 385.82421875 634.059570312 388.119140625 632.033203125 388.119140625 548.78125 c 0
 388.119140625 467.555664062 392.171875 463.502929688 473.104492188 463.502929688 c 0
 556.063476562 463.502929688 558.08984375 461.18359375 558.08984375 366.041992188 c 0
 558.08984375 270.900390625 556.087890625 268.581054688 473.104492188 268.581054688 c 0
 392.171875 268.581054688 388.119140625 264.50390625 388.119140625 183.278320312 c 0
 388.119140625 100.026367188 385.82421875 98 291 98 c 0
 196.200195312 98 193.880859375 100.026367188 193.880859375 183.278320312 c 0
339.559570312 232.008789062 m 0
 339.559570312 313.234375 343.612304688 317.311523438 424.544921875 317.311523438 c 0
 493.34375 317.311523438 509.530273438 326.588867188 509.530273438 366.041992188 c 0
 509.530273438 405.495117188 493.34375 414.772460938 424.544921875 414.772460938 c 0
 343.612304688 414.772460938 339.559570312 418.825195312 339.559570312 500.05078125 c 0
 339.559570312 613.13671875 272.982421875 618.361328125 262.19140625 506.129882812 c 0
 255.501953125 436.500976562 245.052734375 426.02734375 175.66796875 419.313476562 c 0
 117.440429688 413.673828125 96.76171875 399.708984375 96.76171875 366.041992188 c 0
 96.76171875 332.350585938 117.440429688 318.385742188 175.66796875 312.74609375 c 0
 245.052734375 306.032226562 255.501953125 295.55859375 262.19140625 225.9296875 c 0
 272.982421875 113.698242188 339.559570312 118.947265625 339.559570312 232.008789062 c 0
EndSplineSet
EndChar

StartChar: hyphen
Encoding: 88 45 87
Width: 552
VWidth: 25059
Flags: HW
LayerCount: 2
Fore
SplineSet
95 405.3671875 m 1
 95 504 l 1
 246.7578125 496.749023438 l 1
 398.515625 489.498046875 l 1
 406.059570312 398.116210938 l 1
 413.579101562 306.734375 l 1
 254.301757812 306.734375 l 1
 95 306.734375 l 1
 95 405.3671875 l 1
337.822265625 405.684570312 m 0
 337.822265625 448.775390625 324.956054688 454.805664062 246.977539062 448.311523438 c 0
 183.4765625 443.038085938 153.69140625 427.92578125 148.051757812 398.116210938 c 0
 141.459960938 363.155273438 157.841796875 355.489257812 238.920898438 355.489257812 c 0
 322.587890625 355.489257812 337.822265625 363.204101562 337.822265625 405.684570312 c 0
EndSplineSet
EndChar

StartChar: asterisk
Encoding: 89 42 88
Width: 423
VWidth: 24779
Flags: HW
LayerCount: 2
Fore
SplineSet
57.548828125 461.436523438 m 0
 50.1513671875 480.772460938 50.3955078125 513.047851562 58.0859375 533.140625 c 0
 66.6064453125 555.40625 58.0859375 569.688476562 36.40625 569.688476562 c 0
 -2.998046875 569.688476562 -5.439453125 580.650390625 16.044921875 661.0703125 c 0
 24.6630859375 693.321289062 49.5166015625 715.904296875 76.4208984375 715.904296875 c 0
 101.567382812 715.904296875 122.1484375 732.334960938 122.1484375 752.452148438 c 0
 122.1484375 776.817382812 146.416015625 789 195 789 c 0
 249.370117188 789 267.827148438 777.696289062 267.827148438 744.419921875 c 0
 267.827148438 713.853515625 285.014648438 700.450195312 322.465820312 701.768554688 c 0
 364.604492188 703.2578125 378.862304688 688.389648438 384.770507812 636.705078125 c 0
 390.483398438 587.022460938 381.865234375 569.688476562 351.4453125 569.688476562 c 0
 317.75390625 569.688476562 315.825195312 563.169921875 340.678710938 533.140625 c 0
 391.313476562 471.91015625 330.3515625 428.282226562 192.65625 427.208007812 c 0
 108.37890625 426.548828125 66.875 437.071289062 57.548828125 461.436523438 c 0
238.920898438 587.974609375 m 0
 229.057617188 639.341796875 185.966796875 636.094726562 175.004882812 583.165039062 c 0
 170.415039062 561.094726562 183.793945312 545.323242188 207.133789062 545.323242188 c 0
 232.133789062 545.323242188 244.047851562 561.290039062 238.920898438 587.974609375 c 0
EndSplineSet
EndChar

StartChar: quotedbl
Encoding: 90 34 89
Width: 993
VWidth: 24812
Flags: HW
LayerCount: 2
Fore
SplineSet
323.74609375 540.142578125 m 0
 315.640625 561.333984375 309 627.129882812 309 686.333984375 c 2
 309 794 l 1
 462.776367188 794 616.551757812 794 770.328125 794 c 1
 770.328125 723.931640625 l 2
 770.328125 685.40625 763.4921875 619.610351562 755.166992188 577.740234375 c 0
 741.299804688 508.184570312 731.8515625 501.592773438 645.889648438 501.592773438 c 0
 564.95703125 501.592773438 551.602539062 509.258789062 550.259765625 556.426757812 c 2
 548.721679688 611.236328125 l 1
 526.7734375 556.426757812 l 2
 509.9765625 514.532226562 485.196289062 501.592773438 421.646484375 501.592773438 c 0
 368.204101562 501.592773438 333.194335938 515.362304688 323.74609375 540.142578125 c 0
463.663085938 605.157226562 m 0
 492.374023438 712.701171875 481.827148438 745.245117188 418.252929688 745.245117188 c 0
 352.310546875 745.245117188 350.162109375 739.678710938 372.745117188 626.470703125 c 0
 390.372070312 537.920898438 442.447265625 525.713867188 463.663085938 605.157226562 c 0
692.88671875 655.767578125 m 0
 699.33203125 732.330078125 693.204101562 745.245117188 650.40625 745.245117188 c 0
 609.87890625 745.245117188 600.357421875 729.815429688 600.357421875 664.043945312 c 0
 600.357421875 517.388671875 680.630859375 510.2109375 692.88671875 655.767578125 c 0
EndSplineSet
EndChar

StartChar: quotesingle
Encoding: 91 39 90
Width: 8278
VWidth: 24814
Flags: H
LayerCount: 2
Fore
SplineSet
182.881835938 551.369140625 m 4
 174.263671875 573.927734375 166.40234375 636.989257812 165.42578125 691.481445312 c 6
 163.66796875 790.578125 l 5
 279 798 l 5
 394.33203125 805.446289062 l 5
 393.990234375 712.721679688 l 6
 393.404296875 545.631835938 373.799804688 510.377929688 281.465820312 510.377929688 c 4
 226.16796875 510.377929688 193.331054688 524.025390625 182.881835938 551.369140625 c 4
321.822265625 601.735351562 m 4
 322.017578125 625.197265625 328.731445312 669.044921875 336.788085938 699.220703125 c 4
 349.239257812 745.827148438 341.939453125 754.030273438 287.911132812 754.030273438 c 4
 236.885742188 754.030273438 224.361328125 742.409179688 224.361328125 695.119140625 c 4
 224.361328125 610.98828125 248.506835938 559.108398438 287.666992188 559.108398438 c 4
 306.270507812 559.108398438 321.626953125 578.297851562 321.822265625 601.735351562 c 4
EndSplineSet
EndChar
